SplineFontDB: 3.2
FontName: SeriousShannsItalic
FullName: Serious Shanns Italic
FamilyName: Serious Shanns Italic
Weight: Book
Copyright: https://github.com/kaBeech/serious-shanns/blob/main/LICENSE
Version: 6.0.0
ItalicAngle: -12.7
UnderlinePosition: 0
UnderlineWidth: 0
Ascent: 800
Descent: 200
InvalidEm: 0
sfntRevision: 0x00003333
LayerCount: 2
Layer: 0 0 "Back" 1
Layer: 1 0 "Fore" 0
XUID: [1021 45 630387186 1984481]
StyleMap: 0x0040
FSType: 4
OS2Version: 3
OS2_WeightWidthSlopeOnly: 0
OS2_UseTypoMetrics: 0
CreationTime: 1532631502
ModificationTime: 315532800
PfmFamily: 81
TTFWeight: 400
TTFWidth: 5
LineGap: 0
VLineGap: 0
Panose: 0 0 0 0 0 0 0 0 0 0
OS2TypoAscent: 613
OS2TypoAOffset: 0
OS2TypoDescent: -188
OS2TypoDOffset: 0
OS2TypoLinegap: 98
OS2WinAscent: 778
OS2WinAOffset: 0
OS2WinDescent: 308
OS2WinDOffset: 0
HheadAscent: 796
HheadAOffset: 0
HheadDescent: -317
HheadDOffset: 0
OS2SubXSize: 317
OS2SubYSize: 293
OS2SubXOff: 0
OS2SubYOff: 37
OS2SupXSize: 317
OS2SupYSize: 293
OS2SupXOff: 0
OS2SupYOff: 171
OS2StrikeYSize: 0
OS2StrikeYPos: 132
OS2CapHeight: 576
OS2XHeight: 485
OS2Vendor: 'NONE'
OS2CodePages: 00000001.00000000
OS2UnicodeRanges: 00000001.00000000.00000000.00000000
MarkAttachClasses: 1
DEI: 91125
LangName: 1033 "" "" "Normal" "" "" "Version 0.2.0"
Encoding: UnicodeBmp
Compacted: 1
UnicodeInterp: none
NameList: AGL For New Fonts
DisplaySize: -48
AntiAlias: 1
FitToEm: 0
WinInfo: 0 16 14
BeginPrivate: 8
BlueValues 32 [-40 -6 497 511 708 718 765 769]
OtherBlues 11 [-298 -287]
BlueScale 9 0.0291667
BlueShift 1 2
StdHW 4 [86]
StdVW 4 [58]
StemSnapH 19 [82 85 86 89 90 94]
StemSnapV 7 [58 68]
EndPrivate
BeginChars: 65537 123

StartChar: .notdef
Encoding: 65536 -1 0
Width: 640
GlyphClass: 1
Flags: W
HStem: -268 54<119.699 417.699> 695 54<329.699 627.699>
LayerCount: 2
Fore
SplineSet
57.69921875 -268 m 1
 291.69921875 749 l 1
 690.69921875 749 l 1
 455.69921875 -268 l 1
 57.69921875 -268 l 1
119.69921875 -214 m 1
 417.69921875 -214 l 1
 627.69921875 695 l 1
 329.69921875 695 l 1
 119.69921875 -214 l 1
EndSplineSet
Validated: 524289
EndChar

StartChar: exclam
Encoding: 33 33 12
Width: 640
GlyphClass: 2
Flags: HMW
HStem: -24.001 152.997
VStem: 256.782 151
LayerCount: 2
Fore
SplineSet
543.786132812 738 m 0
 542.453125 732 531.116210938 688.166015625 509.783203125 606.499023438 c 0
 488.450195312 524.83203125 472.450195312 458.33203125 461.783203125 406.999023438 c 0
 451.116210938 356.999023438 444.116210938 327.166015625 440.783203125 317.499023438 c 0
 437.450195312 307.83203125 433.450195312 292.33203125 428.783203125 270.999023438 c 0
 424.116210938 256.33203125 416.116210938 244.83203125 404.783203125 236.499023438 c 0
 394.290039062 228.783203125 383.225585938 224.92578125 371.588867188 224.92578125 c 0
 370.657226562 224.92578125 369.721679688 224.950195312 368.783203125 225 c 0
 356.116210938 225 346.783203125 229.333007812 340.783203125 238 c 0
 337.606445312 242.587890625 336.018554688 248.297851562 336.018554688 255.127929688 c 0
 336.018554688 261.200195312 337.2734375 268.157226562 339.783203125 276.000976562 c 0
 343.116210938 286.000976562 346.616210938 295.66796875 350.283203125 305.000976562 c 0
 353.950195312 314.333984375 356.783203125 322.166992188 358.783203125 328.5 c 0
 360.783203125 334.833007812 364.616210938 349.833007812 370.283203125 373.5 c 0
 375.950195312 397.166992188 382.450195312 427.666992188 389.783203125 465 c 0
 394.450195312 491 400.1171875 518.5 406.784179688 547.5 c 0
 413.451171875 576.5 419.284179688 600.666992188 424.284179688 620 c 0
 429.284179688 639.333007812 434.951171875 661.333007812 441.284179688 686 c 0
 447.6171875 710.666992188 451.784179688 727 453.784179688 735 c 0
 458.451171875 753 466.118164062 766.666992188 476.78515625 776 c 0
 487.452148438 785.333007812 499.119140625 790 511.786132812 790 c 0
 512.739257812 790.047851562 513.672851562 790.071289062 514.587890625 790.071289062 c 0
 526.482421875 790.071289062 535.21484375 786.047851562 540.786132812 778 c 0
 544.385742188 772.799804688 546.186523438 765.919921875 546.186523438 757.360351562 c 0
 546.186523438 751.653320312 545.385742188 745.200195312 543.786132812 738 c 0
315.782226562 -24.0009765625 m 0
 312.447265625 -24.3818359375 309.2421875 -24.572265625 306.166015625 -24.572265625 c 0
 287.719726562 -24.572265625 273.926757812 -17.7177734375 264.784179688 -4.0048828125 c 0
 257.672851562 6.662109375 254.1171875 18.810546875 254.1171875 32.4404296875 c 0
 254.1171875 39.2548828125 255.005859375 46.439453125 256.783203125 53.9951171875 c 0
 261.450195312 73.9951171875 273.450195312 91.328125 292.783203125 105.995117188 c 0
 312.116210938 120.662109375 331.783203125 128.329101562 351.783203125 128.99609375 c 0
 352.76171875 129.025390625 353.727539062 129.041015625 354.682617188 129.041015625 c 0
 375.194335938 129.041015625 390.227539062 122.192382812 399.783203125 108.497070312 c 0
 406.6015625 98.724609375 410.010742188 87.3251953125 410.010742188 74.298828125 c 0
 410.010742188 68.2197265625 409.268554688 61.7861328125 407.783203125 54.998046875 c 0
 403.116210938 33.6650390625 392.44921875 15.83203125 375.782226562 1.4990234375 c 0
 359.115234375 -12.833984375 339.115234375 -21.333984375 315.782226562 -24.0009765625 c 0
EndSplineSet
Validated: 524289
EndChar

StartChar: quotedbl
Encoding: 34 34 13
Width: 640
GlyphClass: 2
Flags: HMW
VStem: 304.301 306.002
LayerCount: 2
Fore
SplineSet
461.306640625 738 m 0
 455.306640625 710.666992188 444.471679688 665.830078125 428.8046875 603.497070312 c 0
 413.137695312 541.1640625 401.3046875 498.331054688 393.3046875 474.998046875 c 0
 388.637695312 461.665039062 380.970703125 451.665039062 370.303710938 444.998046875 c 0
 360.606445312 438.9375 351.185546875 435.907226562 342.040039062 435.907226562 c 0
 341.125 435.907226562 340.212890625 435.9375 339.303710938 435.998046875 c 0
 326.63671875 436.665039062 316.469726562 440.83203125 308.802734375 448.499023438 c 0
 304.037109375 453.264648438 301.654296875 459.25390625 301.654296875 466.466796875 c 0
 301.654296875 470.857421875 302.537109375 475.701171875 304.302734375 480.999023438 c 0
 314.302734375 514.999023438 325.135742188 558.666015625 336.802734375 611.999023438 c 0
 348.469726562 665.33203125 357.63671875 709.33203125 364.303710938 743.999023438 c 0
 365.63671875 751.999023438 368.63671875 758.83203125 373.303710938 764.499023438 c 0
 377.970703125 770.166015625 383.303710938 774.333007812 389.303710938 777 c 0
 395.303710938 779.666992188 401.303710938 781.5 407.303710938 782.5 c 0
 413.303710938 783.5 419.303710938 783.666992188 425.303710938 783 c 0
 430.63671875 783 435.63671875 782.333007812 440.303710938 781 c 0
 444.970703125 779.666992188 449.137695312 777.5 452.8046875 774.5 c 0
 456.471679688 771.5 459.138671875 766.833007812 460.805664062 760.5 c 0
 462.47265625 754.166992188 462.639648438 746.666992188 461.306640625 738 c 0
610.3046875 737.99609375 m 0
 604.971679688 710.663085938 594.473632812 665.826171875 578.806640625 603.493164062 c 0
 563.139648438 541.16015625 550.97265625 498.327148438 542.305664062 474.994140625 c 0
 537.638671875 461.661132812 529.971679688 451.661132812 519.3046875 444.994140625 c 0
 509.607421875 438.93359375 500.186523438 435.903320312 491.041015625 435.903320312 c 0
 490.125976562 435.903320312 489.213867188 435.93359375 488.3046875 435.994140625 c 0
 476.3046875 436.661132812 466.3046875 440.828125 458.3046875 448.495117188 c 0
 453.504882812 453.095703125 451.104492188 458.834960938 451.104492188 465.71484375 c 0
 451.104492188 470.301757812 452.171875 475.395507812 454.3046875 480.995117188 c 0
 464.3046875 514.995117188 474.971679688 558.662109375 486.3046875 611.995117188 c 0
 497.637695312 665.328125 506.637695312 709.328125 513.3046875 743.995117188 c 0
 514.637695312 751.995117188 517.637695312 758.828125 522.3046875 764.495117188 c 0
 526.971679688 770.162109375 532.471679688 774.329101562 538.8046875 776.99609375 c 0
 545.137695312 779.663085938 551.137695312 781.49609375 556.8046875 782.49609375 c 0
 562.471679688 783.49609375 568.3046875 783.663085938 574.3046875 782.99609375 c 0
 580.3046875 782.99609375 585.471679688 782.329101562 589.8046875 780.99609375 c 0
 594.137695312 779.663085938 598.3046875 777.49609375 602.3046875 774.49609375 c 0
 606.3046875 771.49609375 609.137695312 766.829101562 610.8046875 760.49609375 c 0
 612.471679688 754.163085938 612.3046875 746.663085938 610.3046875 737.99609375 c 0
EndSplineSet
Validated: 524289
EndChar

StartChar: numbersign
Encoding: 35 35 14
Width: 640
GlyphClass: 2
Flags: HMW
HStem: 192 82<523.113 542.114 490.114 561.113> 445 84<390.107 530.112 424.112 497.107 424.112 623.113 424.112 589.113>
LayerCount: 2
Fore
SplineSet
221.115234375 42 m 0
 213.115234375 28 201.44140625 16.5 186.108398438 7.5 c 0
 175.493164062 1.26953125 165.99609375 -1.845703125 157.6171875 -1.845703125 c 0
 153.893554688 -1.845703125 150.390625 -1.23046875 147.108398438 0 c 0
 136.44140625 2.6669921875 129.94140625 11.1669921875 127.608398438 25.5 c 0
 127.11328125 28.5400390625 126.866210938 31.6474609375 126.866210938 34.822265625 c 0
 126.866210938 46.6162109375 130.280273438 59.341796875 137.109375 72.9990234375 c 0
 146.442382812 90.9990234375 164.109375 129.666015625 190.109375 188.999023438 c 1
 162.109375 188.999023438 l 2
 146.776367188 188.999023438 135.776367188 192.33203125 129.109375 198.999023438 c 0
 122.442382812 205.666015625 120.442382812 214.666015625 123.109375 225.999023438 c 0
 125.109375 237.999023438 130.776367188 247.999023438 140.109375 255.999023438 c 0
 149.442382812 263.999023438 162.109375 268.666015625 178.109375 269.999023438 c 0
 182.776367188 269.999023438 190.276367188 270.166015625 200.609375 270.499023438 c 0
 210.942382812 270.83203125 218.775390625 270.999023438 224.108398438 270.999023438 c 1
 296.108398438 443.999023438 l 1
 290.775390625 443.999023438 283.775390625 443.83203125 275.108398438 443.499023438 c 0
 266.44140625 443.166015625 260.44140625 442.999023438 257.108398438 442.999023438 c 0
 255.880859375 442.9453125 254.682617188 442.918945312 253.513671875 442.918945312 c 0
 240.0703125 442.918945312 230.435546875 446.4453125 224.609375 453.499023438 c 0
 218.276367188 461.166015625 216.443359375 470.666015625 219.110351562 481.999023438 c 0
 221.110351562 493.999023438 226.943359375 504.166015625 236.610351562 512.499023438 c 0
 246.27734375 520.83203125 259.444335938 525.33203125 276.111328125 525.999023438 c 0
 288.111328125 526.666015625 306.111328125 526.999023438 330.111328125 526.999023438 c 1
 371.444335938 627.666015625 392.444335938 679.666015625 393.111328125 682.999023438 c 0
 401.778320312 699.666015625 412.111328125 711.333007812 424.111328125 718 c 0
 432.111328125 722.4453125 439.815429688 724.666992188 447.223632812 724.666992188 c 0
 450.926757812 724.666992188 454.555664062 724.112304688 458.111328125 723.000976562 c 0
 470.778320312 720.333984375 479.4453125 713.666992188 484.112304688 703 c 0
 485.927734375 698.8515625 486.834960938 694.19921875 486.834960938 689.041992188 c 0
 486.834960938 680.939453125 484.594726562 671.591796875 480.11328125 661 c 2
 424.11328125 529 l 1
 530.11328125 529 l 1
 588.11328125 675 l 2
 596.780273438 692.333007812 607.11328125 704.333007812 619.11328125 711 c 0
 627.11328125 715.4453125 634.965820312 717.666992188 642.669921875 717.666992188 c 0
 646.521484375 717.666992188 650.3359375 717.112304688 654.11328125 716.000976562 c 0
 667.446289062 713.333984375 676.446289062 706.666992188 681.11328125 696 c 0
 682.747070312 692.266601562 683.563476562 688.125 683.563476562 683.57421875 c 0
 683.563476562 675.124023438 680.747070312 665.266601562 675.11328125 654 c 0
 661.780273438 626 644.780273438 585 624.11328125 531 c 1
 634.11328125 531 l 2
 648.780273438 531 660.280273438 526.5 668.61328125 517.5 c 0
 675.333984375 510.2421875 678.694335938 502.658203125 678.694335938 494.75 c 0
 678.694335938 492.852539062 678.5 490.935546875 678.11328125 489 c 0
 675.446289062 477 669.446289062 466.833007812 660.11328125 458.5 c 0
 650.780273438 450.166992188 638.447265625 445.666992188 623.114257812 445 c 2
 589.114257812 445 l 1
 523.114257812 274 l 1
 561.114257812 274 l 2
 575.78125 274 584.948242188 270.5 588.615234375 263.5 c 0
 592.282226562 256.5 593.115234375 247.333007812 591.115234375 236 c 0
 584.448242188 206.666992188 568.115234375 192 542.115234375 192 c 2
 490.115234375 192 l 1
 460.115234375 116 439.115234375 64.6669921875 427.115234375 38 c 0
 418.448242188 24 407.115234375 13.1669921875 393.115234375 5.5 c 0
 383.915039062 0.4619140625 375.291015625 -2.0576171875 367.243164062 -2.0576171875 c 0
 363.043945312 -2.0576171875 359.000976562 -1.37109375 355.115234375 0 c 0
 344.448242188 2.6669921875 337.615234375 10.5 334.615234375 23.5 c 0
 333.84375 26.8427734375 333.458007812 30.3076171875 333.458007812 33.892578125 c 0
 333.458007812 44.25 336.676757812 55.619140625 343.115234375 68 c 0
 355.782226562 94.6669921875 373.115234375 135.666992188 395.115234375 191 c 1
 382.448242188 191 363.615234375 190.833007812 338.615234375 190.5 c 0
 313.615234375 190.166992188 295.448242188 190 284.115234375 190 c 1
 254.115234375 118 233.115234375 68.6669921875 221.115234375 42 c 0
390.108398438 445 m 1
 319.109375 273.999023438 l 1
 344.442382812 274.666015625 380.775390625 274.999023438 428.108398438 274.999023438 c 1
 450.775390625 329.666015625 473.775390625 386.333007812 497.108398438 445 c 1
 390.108398438 445 l 1
EndSplineSet
Validated: 524289
EndChar

StartChar: dollar
Encoding: 36 36 15
Width: 640
GlyphClass: 2
Flags: HMW
HStem: -28.9932 84.9932<256.539 293.538 267.539 293.538> 642.998 79.002
VStem: 252.539 82.999 512.04 93.998
LayerCount: 2
Fore
SplineSet
335.538085938 -99 m 0
 330.87109375 -113.666992188 322.872070312 -124.993164062 311.5390625 -132.993164062 c 0
 300.206054688 -140.993164062 288.206054688 -144.993164062 275.5390625 -144.993164062 c 0
 264.206054688 -144.993164062 256.5390625 -140.493164062 252.5390625 -131.493164062 c 0
 250.939453125 -127.893554688 250.138671875 -123.6796875 250.138671875 -118.853515625 c 0
 250.138671875 -111.61328125 251.939453125 -102.993164062 255.5390625 -92.9931640625 c 0
 260.206054688 -76.9931640625 265.5390625 -55.66015625 271.5390625 -28.9931640625 c 1
 267.5390625 -28.9931640625 l 2
 245.5390625 -28.9931640625 225.5390625 -25.9931640625 207.5390625 -19.9931640625 c 0
 189.5390625 -13.9931640625 174.5390625 -5.9931640625 162.5390625 4.0068359375 c 0
 150.5390625 14.0068359375 140.872070312 24.673828125 133.5390625 36.0068359375 c 0
 126.206054688 47.33984375 120.5390625 59.6728515625 116.5390625 73.005859375 c 0
 115.256835938 79.9287109375 114.616210938 86.3583984375 114.616210938 92.2958984375 c 0
 114.616210938 101.794921875 116.256835938 110.03125 119.5390625 117.005859375 c 0
 124.872070312 128.338867188 133.205078125 136.671875 144.538085938 142.004882812 c 0
 152.538085938 145.337890625 159.038085938 147.670898438 164.038085938 149.00390625 c 0
 169.038085938 150.336914062 174.038085938 150.669921875 179.038085938 150.002929688 c 0
 184.038085938 149.3359375 188.538085938 146.668945312 192.538085938 142.001953125 c 0
 196.538085938 137.334960938 200.538085938 130.66796875 204.538085938 122.000976562 c 0
 212.538085938 101.333984375 223.038085938 85.1669921875 236.038085938 73.5 c 0
 249.038085938 61.8330078125 267.538085938 56 291.538085938 56 c 2
 293.538085938 56 l 1
 320.87109375 167.333007812 344.204101562 266.666015625 363.537109375 353.999023438 c 1
 360.204101562 353.999023438 355.037109375 354.666015625 348.037109375 355.999023438 c 0
 341.037109375 357.33203125 335.537109375 357.999023438 331.537109375 357.999023438 c 0
 310.204101562 360.666015625 291.537109375 366.999023438 275.537109375 376.999023438 c 0
 259.537109375 386.999023438 247.537109375 399.166015625 239.537109375 413.499023438 c 0
 231.537109375 427.83203125 226.204101562 442.83203125 223.537109375 458.499023438 c 0
 222.470703125 464.765625 221.936523438 471.05859375 221.936523438 477.37890625 c 0
 221.936523438 486.859375 223.13671875 496.399414062 225.537109375 505.999023438 c 0
 230.870117188 529.999023438 239.537109375 552.999023438 251.537109375 574.999023438 c 0
 263.537109375 596.999023438 278.704101562 617.499023438 297.037109375 636.499023438 c 0
 315.370117188 655.499023438 337.537109375 671.83203125 363.537109375 685.499023438 c 0
 389.537109375 699.166015625 417.537109375 708.666015625 447.537109375 713.999023438 c 1
 452.204101562 729.999023438 457.537109375 749.33203125 463.537109375 771.999023438 c 0
 472.870117188 808.666015625 489.537109375 826.999023438 513.537109375 826.999023438 c 0
 514.055664062 827.01171875 514.568359375 827.017578125 515.075195312 827.017578125 c 0
 535.827148438 827.017578125 546.204101562 816.641601562 546.204101562 795.888671875 c 0
 546.204101562 789.814453125 545.314453125 782.8515625 543.537109375 775 c 2
 530.537109375 722 l 1
 544.537109375 721.333007812 563.037109375 718 586.037109375 712 c 0
 609.037109375 706 625.870117188 700.333007812 636.537109375 695 c 0
 647.204101562 690.333007812 654.037109375 683 657.037109375 673 c 0
 658.2109375 669.086914062 658.797851562 665.071289062 658.797851562 660.954101562 c 0
 658.797851562 654.549804688 657.377929688 647.8984375 654.537109375 641 c 0
 651.870117188 633 648.037109375 626.833007812 643.037109375 622.5 c 0
 638.037109375 618.166992188 632.537109375 615.5 626.537109375 614.5 c 0
 620.537109375 613.5 614.870117188 613.333007812 609.537109375 614 c 0
 604.204101562 614.666992188 599.204101562 615.666992188 594.537109375 617 c 0
 589.204101562 618.333007812 582.704101562 621.166015625 575.037109375 625.499023438 c 0
 567.370117188 629.83203125 558.537109375 633.665039062 548.537109375 636.998046875 c 0
 538.537109375 640.331054688 526.204101562 642.331054688 511.537109375 642.998046875 c 1
 498.204101562 589.665039062 480.87109375 518.998046875 459.538085938 430.998046875 c 1
 486.87109375 426.998046875 510.538085938 419.831054688 530.538085938 409.498046875 c 0
 550.538085938 399.165039062 565.705078125 387.33203125 576.038085938 373.999023438 c 0
 586.37109375 360.666015625 594.038085938 345.333007812 599.038085938 328 c 0
 603.725585938 311.749023438 606.069335938 295.791992188 606.069335938 280.126953125 c 0
 606.069335938 266.818359375 604.493164062 247.967773438 598.538085938 225 c 0
 591.205078125 194.333007812 579.705078125 165.333007812 564.038085938 138 c 0
 548.37109375 110.666992188 529.538085938 87 507.538085938 67 c 0
 485.538085938 47 461.37109375 29.6669921875 435.038085938 15 c 0
 408.705078125 0.3330078125 381.205078125 -10.6669921875 352.538085938 -18 c 1
 343.205078125 -58 337.538085938 -85 335.538085938 -99 c 0
317.5390625 531.006835938 m 0
 316.206054688 524.911132812 315.5390625 519.034179688 315.5390625 513.374023438 c 0
 315.5390625 499.224609375 319.706054688 486.435546875 328.0390625 475.006835938 c 0
 339.706054688 459.006835938 358.206054688 447.673828125 383.5390625 441.006835938 c 1
 394.872070312 487.006835938 410.205078125 551.006835938 429.538085938 633.006835938 c 1
 400.87109375 624.33984375 376.37109375 611.33984375 356.038085938 594.006835938 c 0
 335.705078125 576.673828125 322.872070312 555.673828125 317.5390625 531.006835938 c 0
508.5390625 208.006835938 m 0
 510.91015625 219.267578125 512.095703125 229.73828125 512.095703125 239.418945312 c 0
 512.095703125 252.064453125 509.829101562 263.998046875 505.540039062 276.508789062 c 0
 501.540039062 288.17578125 493.70703125 299.008789062 482.040039062 309.008789062 c 0
 470.373046875 319.008789062 455.206054688 327.67578125 436.5390625 335.008789062 c 1
 429.206054688 305.67578125 418.5390625 261.508789062 404.5390625 202.508789062 c 0
 390.5390625 143.508789062 380.206054688 100.67578125 373.5390625 74.0087890625 c 1
 406.872070312 87.341796875 436.0390625 105.674804688 461.0390625 129.0078125 c 0
 486.0390625 152.340820312 501.872070312 178.673828125 508.5390625 208.006835938 c 0
EndSplineSet
Validated: 524289
EndChar

StartChar: percent
Encoding: 37 37 16
Width: 640
GlyphClass: 2
Flags: HMW
HStem: -28.001 76 170.999 74<486.087 499.087> 432 75<274.42 320.087> 632 73<343.753 347.753>
LayerCount: 2
Fore
SplineSet
285.419921875 432 m 0
 263.419921875 432 245.420898438 438.5 231.420898438 451.5 c 0
 217.420898438 464.5 208.587890625 480.833007812 204.920898438 500.5 c 0
 203.426757812 508.513671875 202.6796875 516.775390625 202.6796875 525.286132812 c 0
 202.6796875 537.665039062 204.259765625 550.569335938 207.419921875 564.000976562 c 0
 216.752929688 605.333984375 235.252929688 639.166992188 262.919921875 665.5 c 0
 290.586914062 691.833007812 324.086914062 705 363.419921875 705 c 0
 378.752929688 705 392.419921875 702.166992188 404.419921875 696.5 c 0
 416.419921875 690.833007812 426.419921875 682.333007812 434.419921875 671 c 0
 442.419921875 659.666992188 446.919921875 644.166992188 447.919921875 624.5 c 0
 448.040039062 622.139648438 448.099609375 619.734375 448.099609375 617.283203125 c 0
 448.099609375 599.307617188 444.873046875 578.879882812 438.419921875 556 c 0
 427.086914062 515.333007812 409.086914062 484.5 384.419921875 463.5 c 0
 359.752929688 442.5 326.752929688 432 285.419921875 432 c 0
105.420898438 19 m 0
 124.75390625 47.6669921875 169.419921875 107.833984375 239.419921875 199.500976562 c 0
 309.419921875 291.16796875 379.586914062 383.66796875 449.919921875 477.000976562 c 0
 520.252929688 570.333984375 568.419921875 637.000976562 594.419921875 677.000976562 c 0
 604.419921875 689.000976562 615.752929688 696.500976562 628.419921875 699.500976562 c 0
 632.3515625 700.431640625 636.122070312 700.897460938 639.732421875 700.897460938 c 0
 647.75390625 700.897460938 654.983398438 698.598632812 661.419921875 694.000976562 c 0
 671.419921875 688.66796875 675.919921875 680.834960938 674.919921875 670.501953125 c 0
 673.919921875 660.168945312 667.752929688 647.668945312 656.419921875 633.001953125 c 0
 623.752929688 592.334960938 544.919921875 488.66796875 419.919921875 322.000976562 c 0
 294.919921875 155.333984375 211.419921875 42.6669921875 169.419921875 -16 c 0
 152.189453125 -39.630859375 136.049804688 -51.4462890625 121 -51.4462890625 c 0
 115.669921875 -51.4462890625 110.477539062 -49.9638671875 105.420898438 -47 c 0
 94.4208984375 -40.666015625 88.9208984375 -32 88.9208984375 -21 c 0
 88.9208984375 -10 94.4208984375 3.333984375 105.420898438 19 c 0
312.419921875 507 m 0
 327.752929688 507 340.75390625 512.33203125 351.420898438 522.999023438 c 0
 362.087890625 533.666015625 370.087890625 547.999023438 375.420898438 565.999023438 c 0
 378.262695312 576.736328125 379.684570312 586.126953125 379.684570312 594.171875 c 0
 379.684570312 603.109375 377.9296875 610.385742188 374.420898438 616 c 0
 367.75390625 626.666992188 356.086914062 632 339.419921875 632 c 0
 324.752929688 632 311.919921875 626.166992188 300.919921875 614.5 c 0
 289.919921875 602.833007812 281.419921875 587 275.419921875 567 c 0
 273.0859375 557.666015625 271.919921875 549.416015625 271.919921875 542.25 c 0
 271.919921875 535.083007812 273.0859375 529 275.419921875 524 c 0
 280.086914062 514 292.419921875 508.333007812 312.419921875 507 c 0
428.420898438 -28.0009765625 m 0
 406.420898438 -28.0009765625 388.419921875 -21.5009765625 374.419921875 -8.5009765625 c 0
 360.419921875 4.4990234375 351.586914062 20.83203125 347.919921875 40.4990234375 c 0
 346.42578125 48.5126953125 345.678710938 56.7744140625 345.678710938 65.28515625 c 0
 345.678710938 77.6640625 347.258789062 90.568359375 350.418945312 104 c 0
 359.751953125 145.333007812 378.251953125 179.166015625 405.918945312 205.499023438 c 0
 433.5859375 231.83203125 466.752929688 244.999023438 505.419921875 244.999023438 c 0
 520.752929688 244.999023438 534.5859375 242.33203125 546.918945312 236.999023438 c 0
 559.251953125 231.666015625 569.418945312 223.166015625 577.418945312 211.499023438 c 0
 585.418945312 199.83203125 589.918945312 184.165039062 590.918945312 164.498046875 c 0
 591.030273438 162.3125 591.0859375 160.088867188 591.0859375 157.825195312 c 0
 591.0859375 139.717773438 587.530273438 119.109375 580.418945312 95.998046875 c 0
 569.0859375 55.3310546875 551.252929688 24.3310546875 526.919921875 2.998046875 c 0
 503.32421875 -17.6884765625 471.737304688 -28.03125 432.157226562 -28.03125 c 0
 430.918945312 -28.03125 429.673828125 -28.021484375 428.420898438 -28.0009765625 c 0
455.419921875 47.9990234375 m 0
 456.258789062 47.9609375 457.08984375 47.94140625 457.916015625 47.94140625 c 0
 471.528320312 47.94140625 483.36328125 53.1279296875 493.420898438 63.4990234375 c 0
 504.087890625 74.4990234375 512.087890625 88.666015625 517.420898438 105.999023438 c 0
 520.172851562 116.522460938 521.548828125 125.768554688 521.548828125 133.736328125 c 0
 521.548828125 158.578125 508.172851562 170.999023438 481.420898438 170.999023438 c 0
 466.75390625 170.999023438 454.086914062 165.166015625 443.419921875 153.499023438 c 0
 432.752929688 141.83203125 424.419921875 126.33203125 418.419921875 106.999023438 c 0
 416.166992188 98.3095703125 415.040039062 90.513671875 415.040039062 83.6103515625 c 0
 415.040039062 76.2138671875 416.333984375 69.84375 418.919921875 64.4990234375 c 0
 423.919921875 54.166015625 436.086914062 48.666015625 455.419921875 47.9990234375 c 0
EndSplineSet
Validated: 524289
EndChar

StartChar: ampersand
Encoding: 38 38 17
Width: 640
GlyphClass: 2
Flags: HMW
HStem: -41.998 93.998<239.054 282.718> 645.001 79<463.72 464.053>
VStem: 456.389 89.9971 543.386 83.5<297 297>
LayerCount: 2
Fore
SplineSet
521.385742188 -35 m 0xe0
 514.868164062 -38.5849609375 508.469726562 -40.376953125 502.19140625 -40.376953125 c 0
 495.626953125 -40.376953125 489.192382812 -38.4169921875 482.887695312 -34.498046875 c 0
 470.5546875 -26.8310546875 461.721679688 -13.6640625 456.388671875 5.0029296875 c 0xe0
 455.721679688 8.3359375 454.221679688 18.3359375 451.888671875 35.0029296875 c 0
 449.555664062 51.669921875 447.388671875 63.669921875 445.388671875 71.0029296875 c 1
 443.388671875 68.3359375 438.388671875 62.6689453125 430.388671875 54.001953125 c 0
 422.388671875 45.3349609375 416.388671875 39.001953125 412.388671875 35.001953125 c 0
 408.388671875 31.001953125 401.888671875 25.001953125 392.888671875 17.001953125 c 0
 383.888671875 9.001953125 376.388671875 2.8349609375 370.388671875 -1.498046875 c 0
 364.388671875 -5.8310546875 356.555664062 -10.998046875 346.888671875 -16.998046875 c 0
 337.221679688 -22.998046875 328.0546875 -27.498046875 319.387695312 -30.498046875 c 0
 310.720703125 -33.498046875 300.887695312 -36.1650390625 289.887695312 -38.498046875 c 0
 278.887695312 -40.8310546875 267.720703125 -41.998046875 256.387695312 -41.998046875 c 0
 221.720703125 -41.998046875 192.053710938 -32.3310546875 167.38671875 -12.998046875 c 0
 142.719726562 6.3349609375 126.052734375 31.66796875 117.385742188 63.0009765625 c 0
 112.87890625 79.2939453125 110.625976562 96.30859375 110.625976562 114.04296875 c 0
 110.625976562 130.415039062 112.545898438 147.400390625 116.385742188 165.000976562 c 0
 145.052734375 291.000976562 213.385742188 376.66796875 321.385742188 422.000976562 c 1
 318.052734375 432.000976562 313.885742188 444.000976562 308.885742188 458.000976562 c 0
 303.885742188 472.000976562 300.385742188 481.833984375 298.385742188 487.500976562 c 0
 296.385742188 493.16796875 294.21875 500.500976562 291.885742188 509.500976562 c 0
 289.552734375 518.500976562 288.385742188 526.333984375 288.385742188 533.000976562 c 0
 288.385742188 539.66796875 288.885742188 547.834960938 289.885742188 557.501953125 c 0
 290.885742188 567.168945312 292.71875 577.668945312 295.385742188 589.001953125 c 0
 298.052734375 601.001953125 302.219726562 612.834960938 307.88671875 624.501953125 c 0
 313.553710938 636.168945312 321.38671875 648.168945312 331.38671875 660.501953125 c 0
 341.38671875 672.834960938 352.88671875 683.66796875 365.88671875 693.000976562 c 0
 378.88671875 702.333984375 394.88671875 709.833984375 413.88671875 715.500976562 c 0
 432.88671875 721.16796875 453.053710938 724.000976562 474.38671875 724.000976562 c 0
 492.38671875 724.000976562 509.38671875 721.000976562 525.38671875 715.000976562 c 0
 541.38671875 709.000976562 555.219726562 700.16796875 566.88671875 688.500976562 c 0
 578.553710938 676.833984375 586.38671875 661.500976562 590.38671875 642.500976562 c 0
 592.100585938 634.358398438 592.958007812 625.817382812 592.958007812 616.87890625 c 0
 592.958007812 604.9609375 591.434570312 592.333984375 588.38671875 579.000976562 c 0
 583.719726562 557.66796875 576.552734375 537.834960938 566.885742188 519.501953125 c 0
 557.21875 501.168945312 547.21875 485.8359375 536.885742188 473.502929688 c 0
 526.552734375 461.169921875 514.052734375 449.336914062 499.385742188 438.00390625 c 0
 484.71875 426.670898438 471.71875 417.670898438 460.385742188 411.00390625 c 0
 449.052734375 404.336914062 436.052734375 397.669921875 421.385742188 391.002929688 c 1
 428.052734375 370.3359375 440.052734375 339.668945312 457.385742188 299.001953125 c 0
 474.71875 258.334960938 485.71875 231.334960938 490.385742188 218.001953125 c 1
 496.385742188 227.334960938 503.385742188 238.16796875 511.385742188 250.500976562 c 0
 519.385742188 262.833984375 526.052734375 272.833984375 531.385742188 280.500976562 c 0
 536.71875 288.16796875 540.71875 293.66796875 543.385742188 297.000976562 c 0
 558.052734375 314.333984375 570.885742188 325.166992188 581.885742188 329.5 c 0
 586.21875 331.20703125 590.525390625 332.060546875 594.806640625 332.060546875 c 0
 601.39453125 332.060546875 607.920898438 330.040039062 614.385742188 325.999023438 c 0
 622.815429688 321.181640625 627.03125 312.694335938 627.03125 300.534179688 c 0
 627.03125 288.635742188 623.213867188 271.743164062 607.385742188 248 c 0
 602.71875 242 590.385742188 228.666992188 570.385742188 208 c 0
 550.385742188 187.333007812 533.052734375 168.333007812 518.385742188 151 c 1
 522.385742188 138.333007812 528.052734375 120.166015625 535.385742188 96.4990234375 c 0
 542.71875 72.83203125 546.71875 58.9990234375 547.385742188 54.9990234375 c 0
 549.895507812 47.4697265625 551.150390625 39.5712890625 551.150390625 31.302734375 c 0
 551.150390625 22.001953125 549.5625 12.234375 546.385742188 1.9990234375 c 0
 540.385742188 -17.333984375 532.052734375 -29.6669921875 521.385742188 -35 c 0xe0
379.38671875 572.000976562 m 0
 377.385742188 563.665039062 376.385742188 554.913085938 376.385742188 545.744140625 c 0
 376.385742188 536.579101562 377.385742188 526.999023438 379.384765625 517.000976562 c 0
 383.384765625 497.000976562 389.717773438 479.333984375 398.384765625 464.000976562 c 1
 413.051757812 468.66796875 425.71875 473.500976562 436.385742188 478.500976562 c 0
 447.052734375 483.500976562 457.552734375 490.000976562 467.885742188 498.000976562 c 0
 478.21875 506.000976562 486.71875 515.833984375 493.385742188 527.500976562 c 0
 500.052734375 539.16796875 505.052734375 553.000976562 508.385742188 569.000976562 c 0
 510.462890625 577.5390625 511.500976562 585.37890625 511.500976562 592.51953125 c 0
 511.500976562 606.006835938 507.795898438 617.000976562 500.385742188 625.500976562 c 0
 489.052734375 638.500976562 473.719726562 645.000976562 454.38671875 645.000976562 c 0
 415.719726562 645.000976562 390.719726562 620.66796875 379.38671875 572.000976562 c 0
211.384765625 174.000976562 m 0
 208.237304688 160.361328125 206.663085938 147.59765625 206.663085938 135.711914062 c 0
 206.663085938 117.389648438 210.403320312 101.15234375 217.883789062 87 c 0
 230.216796875 63.6669921875 250.383789062 52 278.383789062 52 c 0
 287.05078125 52 295.717773438 53 304.384765625 55 c 0
 313.051757812 57 320.71875 59 327.385742188 61 c 0
 334.052734375 63 341.052734375 66.3330078125 348.385742188 71 c 0
 355.71875 75.6669921875 361.551757812 79.5 365.884765625 82.5 c 0
 370.217773438 85.5 375.717773438 90.1669921875 382.384765625 96.5 c 0
 389.051757812 102.833007812 393.71875 107.333007812 396.385742188 110 c 0
 399.052734375 112.666992188 403.385742188 117.5 409.385742188 124.5 c 0
 415.385742188 131.5 419.052734375 135.666992188 420.385742188 137 c 0
 415.71875 163 411.051757812 183.333007812 406.384765625 198 c 0
 402.384765625 213.333007812 393.217773438 238.333007812 378.884765625 273 c 0
 364.551757812 307.666992188 354.384765625 333.333984375 348.384765625 350.000976562 c 1
 327.717773438 341.333984375 309.384765625 330.500976562 293.384765625 317.500976562 c 0
 277.384765625 304.500976562 264.051757812 290.16796875 253.384765625 274.500976562 c 0
 242.717773438 258.833984375 234.217773438 243.000976562 227.884765625 227.000976562 c 0
 221.551757812 211.000976562 216.051757812 193.333984375 211.384765625 174.000976562 c 0
EndSplineSet
Validated: 524289
EndChar

StartChar: quotesingle
Encoding: 39 39 18
Width: 640
GlyphClass: 2
Flags: HMW
HStem: 446.001 325.499
VStem: 381.465 152
LayerCount: 2
Fore
SplineSet
533.463867188 728 m 0
 528.130859375 701.333007812 518.465820312 660.16796875 504.465820312 604.500976562 c 0
 490.465820312 548.833984375 479.1328125 509.333984375 470.465820312 486.000976562 c 0
 465.798828125 472.000976562 458.131835938 461.66796875 447.46484375 455.000976562 c 0
 437.767578125 448.940429688 428.346679688 445.91015625 419.201171875 445.91015625 c 0
 418.286132812 445.91015625 417.374023438 445.940429688 416.46484375 446.000976562 c 0
 403.797851562 446.66796875 393.630859375 451.000976562 385.963867188 459.000976562 c 0
 381.198242188 463.973632812 378.815429688 470.106445312 378.815429688 477.397460938 c 0
 378.815429688 481.8359375 379.698242188 486.703125 381.463867188 492.000976562 c 0
 391.463867188 526.66796875 401.463867188 566.66796875 411.463867188 612.000976562 c 0
 421.463867188 657.333984375 429.796875 697.666992188 436.463867188 733 c 0
 437.796875 741 440.796875 748 445.463867188 754 c 0
 450.130859375 760 455.630859375 764.166992188 461.963867188 766.5 c 0
 468.296875 768.833007812 474.296875 770.5 479.963867188 771.5 c 0
 485.630859375 772.5 491.463867188 772.666992188 497.463867188 772 c 0
 502.796875 772 507.796875 771.333007812 512.463867188 770 c 0
 517.130859375 768.666992188 521.463867188 766.5 525.463867188 763.5 c 0
 529.463867188 760.5 532.130859375 756 533.463867188 750 c 0
 534.796875 744 534.796875 736.666992188 533.463867188 728 c 0
EndSplineSet
Validated: 524289
EndChar

StartChar: parenleft
Encoding: 40 40 19
Width: 640
GlyphClass: 2
Flags: HMW
HStem: -130.998 83.998<366.372 413.041> 733.002 81<578.041 618.707>
LayerCount: 2
Fore
SplineSet
433.040039062 -93 m 0
 430.373046875 -103.666992188 424.205078125 -112.665039062 414.538085938 -119.998046875 c 0
 404.87109375 -127.331054688 395.704101562 -130.998046875 387.037109375 -130.998046875 c 0
 345.704101562 -130.998046875 311.87109375 -114.998046875 285.538085938 -82.998046875 c 0
 259.205078125 -50.998046875 242.038085938 -6.6650390625 234.038085938 50.001953125 c 0
 230.482421875 75.1875 228.705078125 102.083984375 228.705078125 130.693359375 c 0
 228.705078125 166.455078125 231.482421875 204.890625 237.038085938 246.001953125 c 0
 243.705078125 294.668945312 259.372070312 358.001953125 284.0390625 436.001953125 c 0
 308.706054688 514.001953125 335.706054688 578.334960938 365.0390625 629.001953125 c 0
 378.372070312 651.001953125 394.0390625 672.834960938 412.0390625 694.501953125 c 0
 430.0390625 716.168945312 449.706054688 736.001953125 471.0390625 754.001953125 c 0
 492.372070312 772.001953125 515.0390625 786.501953125 539.0390625 797.501953125 c 0
 563.0390625 808.501953125 585.372070312 814.001953125 606.0390625 814.001953125 c 0
 626.521484375 814.001953125 636.762695312 805.068359375 636.762695312 787.200195312 c 0
 636.762695312 782.96875 636.1875 778.236328125 635.0390625 773.001953125 c 0
 631.706054688 759.001953125 625.373046875 748.834960938 616.040039062 742.501953125 c 0
 606.70703125 736.168945312 596.70703125 733.001953125 586.040039062 733.001953125 c 0
 570.040039062 733.001953125 553.873046875 728.001953125 537.540039062 718.001953125 c 0
 521.20703125 708.001953125 505.70703125 694.334960938 491.040039062 677.001953125 c 0
 476.373046875 659.668945312 462.873046875 640.668945312 450.540039062 620.001953125 c 0
 438.20703125 599.334960938 426.70703125 577.001953125 416.040039062 553.001953125 c 0
 400.040039062 518.334960938 383.540039062 470.66796875 366.540039062 410.000976562 c 0
 349.540039062 349.333984375 338.040039062 300.000976562 332.040039062 262.000976562 c 0
 327.130859375 228.727539062 324.676757812 196.235351562 324.676757812 164.5234375 c 0
 324.676757812 157.477539062 324.797851562 150.469726562 325.040039062 143.500976562 c 0
 326.373046875 105.16796875 330.540039062 72.16796875 337.540039062 44.5009765625 c 0
 344.540039062 16.833984375 354.20703125 -5.3330078125 366.540039062 -22 c 0
 378.873046875 -38.6669921875 392.373046875 -47 407.040039062 -47 c 0
 419.040039062 -47 427.373046875 -50.3330078125 432.040039062 -57 c 0
 434.552734375 -60.58984375 435.809570312 -65.7255859375 435.809570312 -72.408203125 c 0
 435.809570312 -78.1357421875 434.88671875 -85 433.040039062 -93 c 0
EndSplineSet
Validated: 524289
EndChar

StartChar: parenright
Encoding: 41 41 20
Width: 640
GlyphClass: 2
Flags: HMW
HStem: -131.005 84<201.674 208.675> 732.998 81.002<383.343 415.676>
VStem: 476.009 86.001
LayerCount: 2
Fore
SplineSet
512.01171875 246 m 0
 488.01171875 172 459.008789062 106.662109375 425.008789062 49.9951171875 c 0
 391.008789062 -6.671875 353.341796875 -51.0048828125 312.008789062 -83.0048828125 c 0
 270.67578125 -115.004882812 229.342773438 -131.004882812 188.009765625 -131.004882812 c 0
 179.342773438 -131.004882812 171.67578125 -127.337890625 165.008789062 -120.004882812 c 0
 158.341796875 -112.671875 156.341796875 -103.671875 159.008789062 -93.0048828125 c 0
 163.008789062 -75.671875 169.008789062 -63.671875 177.008789062 -57.0048828125 c 0
 185.008789062 -50.337890625 195.341796875 -47.0048828125 208.008789062 -47.0048828125 c 0
 222.67578125 -47.0048828125 239.842773438 -38.671875 259.509765625 -22.0048828125 c 0
 279.176757812 -5.337890625 299.009765625 16.8291015625 319.009765625 44.49609375 c 0
 339.009765625 72.1630859375 358.676757812 105.330078125 378.009765625 143.997070312 c 0
 397.342773438 182.6640625 413.009765625 221.997070312 425.009765625 261.997070312 c 0
 437.009765625 299.997070312 448.342773438 349.330078125 459.009765625 409.997070312 c 0
 469.676757812 470.6640625 475.34375 518.331054688 476.010742188 552.998046875 c 0
 476.010742188 576.998046875 474.510742188 599.331054688 471.510742188 619.998046875 c 0
 468.510742188 640.665039062 463.84375 659.665039062 457.510742188 676.998046875 c 0
 451.177734375 694.331054688 442.177734375 707.998046875 430.510742188 717.998046875 c 0
 418.84375 727.998046875 405.010742188 732.998046875 389.010742188 732.998046875 c 0
 377.677734375 732.998046875 369.010742188 736.165039062 363.010742188 742.498046875 c 0
 358.856445312 746.8828125 356.780273438 753.104492188 356.780273438 761.1640625 c 0
 356.780273438 764.745117188 357.190429688 768.690429688 358.010742188 772.998046875 c 0
 360.010742188 781.665039062 363.010742188 788.83203125 367.010742188 794.499023438 c 0
 371.010742188 800.166015625 375.34375 804.333007812 380.010742188 807 c 0
 384.677734375 809.666992188 389.010742188 811.5 393.010742188 812.5 c 0
 397.010742188 813.5 401.010742188 814 405.010742188 814 c 0
 426.34375 814 446.34375 808.5 465.010742188 797.5 c 0
 483.677734375 786.5 499.510742188 772 512.510742188 754 c 0
 525.510742188 736 536.34375 716.166992188 545.010742188 694.5 c 0
 553.677734375 672.833007812 559.344726562 651 562.01171875 629 c 0
 564.049804688 611.791992188 565.068359375 593.0078125 565.068359375 572.647460938 c 0
 565.068359375 533.057617188 561.215820312 487.508789062 553.51171875 436 c 0
 541.844726562 358 528.01171875 294.666992188 512.01171875 246 c 0
EndSplineSet
Validated: 524289
EndChar

StartChar: asterisk
Encoding: 42 42 21
Width: 640
GlyphClass: 2
Flags: HMW
HStem: 292.998 103.999 305.999 77<456.193 500.193>
VStem: 305.192 86.001 405.193 86
LayerCount: 2
Fore
SplineSet
301.1953125 139 m 0x70
 297.1953125 131 291.693359375 124.999023438 284.693359375 120.999023438 c 0
 277.693359375 116.999023438 270.526367188 114.666015625 263.193359375 113.999023438 c 0
 255.860351562 113.33203125 249.193359375 113.83203125 243.193359375 115.499023438 c 0
 237.193359375 117.166015625 232.193359375 119.333007812 228.193359375 122 c 0
 223.526367188 125.333007812 219.859375 130.166015625 217.192382812 136.499023438 c 0
 214.525390625 142.83203125 213.692382812 150.665039062 214.692382812 159.998046875 c 0
 215.692382812 169.331054688 219.859375 178.998046875 227.192382812 188.998046875 c 2
 314.192382812 297.998046875 l 1
 262.192382812 294.665039062 224.192382812 292.998046875 200.192382812 292.998046875 c 0
 185.525390625 292.998046875 175.192382812 298.331054688 169.192382812 308.998046875 c 0
 165.038085938 316.3828125 162.961914062 324.086914062 162.961914062 332.110351562 c 0
 162.961914062 335.676757812 163.372070312 339.305664062 164.192382812 342.998046875 c 0
 164.859375 348.998046875 166.692382812 355.165039062 169.692382812 361.498046875 c 0
 172.692382812 367.831054688 176.525390625 373.831054688 181.192382812 379.498046875 c 0
 185.859375 385.165039062 191.859375 389.665039062 199.192382812 392.998046875 c 0
 206.525390625 396.331054688 213.858398438 397.6640625 221.19140625 396.997070312 c 0xb0
 249.19140625 394.330078125 290.524414062 390.997070312 345.19140625 386.997070312 c 1
 329.858398438 435.6640625 316.525390625 472.997070312 305.192382812 498.997070312 c 0
 302.525390625 506.6640625 301.192382812 514.247070312 301.192382812 521.747070312 c 0
 301.192382812 529.247070312 302.525390625 536.663085938 305.192382812 543.997070312 c 0
 310.525390625 558.6640625 318.525390625 568.331054688 329.192382812 572.998046875 c 0
 335.859375 576.998046875 343.359375 579.165039062 351.692382812 579.498046875 c 0
 360.025390625 579.831054688 368.025390625 577.331054688 375.692382812 571.998046875 c 0
 383.359375 566.665039062 388.526367188 558.665039062 391.193359375 547.998046875 c 0
 394.526367188 531.998046875 403.859375 493.665039062 419.192382812 432.998046875 c 1
 454.525390625 478.331054688 481.858398438 516.331054688 501.19140625 546.998046875 c 0
 507.858398438 557.665039062 516.025390625 565.665039062 525.692382812 570.998046875 c 0
 535.359375 576.331054688 544.026367188 578.831054688 551.693359375 578.498046875 c 0
 559.360351562 578.165039062 565.52734375 575.665039062 570.194335938 570.998046875 c 0
 575.52734375 567.665039062 579.360351562 562.33203125 581.693359375 554.999023438 c 0
 584.026367188 547.666015625 584.026367188 538.999023438 581.693359375 528.999023438 c 0
 579.360351562 518.999023438 574.193359375 509.33203125 566.193359375 499.999023438 c 0
 538.860351562 468.666015625 507.860351562 429.666015625 473.193359375 382.999023438 c 1
 527.193359375 382.999023438 566.526367188 386.666015625 591.193359375 393.999023438 c 0
 595.860351562 395.484375 600.172851562 396.2265625 604.130859375 396.2265625 c 0
 612.612304688 396.2265625 619.466796875 392.817382812 624.694335938 385.999023438 c 0
 630.775390625 378.068359375 633.815429688 369.717773438 633.815429688 360.948242188 c 0
 633.815429688 358.66015625 633.608398438 356.34375 633.194335938 353.999023438 c 0
 631.861328125 347.999023438 629.861328125 341.999023438 627.194335938 335.999023438 c 0
 624.52734375 329.999023438 621.02734375 323.999023438 616.694335938 317.999023438 c 0
 612.361328125 311.999023438 606.861328125 307.33203125 600.194335938 303.999023438 c 0
 593.52734375 300.666015625 586.860351562 299.999023438 580.193359375 301.999023438 c 0
 565.193359375 304.999023438 538.192382812 306.499023438 499.19140625 306.499023438 c 0
 486.192382812 306.499023438 471.859375 306.33203125 456.193359375 305.999023438 c 1
 492.193359375 189.999023438 l 2
 493.708007812 183.029296875 494.465820312 176.438476562 494.465820312 170.2265625 c 0
 494.465820312 162.771484375 493.375 155.862304688 491.193359375 149.499023438 c 0
 487.193359375 137.83203125 480.526367188 129.33203125 471.193359375 123.999023438 c 0
 464.526367188 119.999023438 456.193359375 117.666015625 446.193359375 116.999023438 c 0
 436.193359375 116.33203125 427.026367188 118.33203125 418.693359375 122.999023438 c 0
 410.360351562 127.666015625 405.860351562 135.333007812 405.193359375 146 c 0
 403.860351562 172.666992188 396.52734375 211 383.194335938 261 c 1
 339.861328125 199.666992188 312.528320312 159 301.1953125 139 c 0x70
EndSplineSet
Validated: 524289
EndChar

StartChar: plus
Encoding: 43 43 22
Width: 640
GlyphClass: 2
Flags: HMW
HStem: 356.998 84.001<353.991 380.323>
LayerCount: 2
Fore
SplineSet
411.323242188 250 m 0
 407.990234375 234.666992188 402.322265625 223.831054688 394.322265625 217.498046875 c 0
 386.322265625 211.165039062 376.989257812 207.998046875 366.322265625 207.998046875 c 0
 344.771484375 207.998046875 333.995117188 216.701171875 333.995117188 234.108398438 c 0
 333.995117188 238.778320312 334.771484375 244.075195312 336.322265625 249.998046875 c 2
 360.322265625 356.998046875 l 1
 347.655273438 356.998046875 330.822265625 356.831054688 309.822265625 356.498046875 c 0
 288.822265625 356.165039062 274.655273438 355.998046875 267.322265625 355.998046875 c 0
 251.989257812 355.998046875 241.489257812 360.165039062 235.822265625 368.498046875 c 0
 231.96875 374.1640625 230.041992188 380.678710938 230.041992188 388.041015625 c 0
 230.041992188 391.505859375 230.46875 395.158203125 231.322265625 398.998046875 c 0
 233.322265625 411.665039062 238.989257812 422.33203125 248.322265625 430.999023438 c 0
 256.98828125 439.046875 268.529296875 443.0703125 282.943359375 443.0703125 c 0
 284.052734375 443.0703125 285.178710938 443.046875 286.322265625 442.999023438 c 0
 329.655273438 441.666015625 360.98828125 440.999023438 380.321289062 440.999023438 c 1
 388.321289062 474.33203125 395.654296875 510.33203125 402.321289062 548.999023438 c 0
 407.654296875 577.666015625 424.321289062 591.999023438 452.321289062 591.999023438 c 0
 464.98828125 592.666015625 474.655273438 589.999023438 481.322265625 583.999023438 c 0
 485.244140625 580.469726562 487.205078125 575.094726562 487.205078125 567.875 c 0
 487.205078125 562.8203125 486.244140625 556.862304688 484.322265625 549.999023438 c 0
 472.989257812 511.33203125 463.322265625 474.33203125 455.322265625 438.999023438 c 1
 557.322265625 438.999023438 l 2
 571.989257812 438.999023438 581.322265625 435.666015625 585.322265625 428.999023438 c 0
 589.322265625 422.33203125 590.655273438 413.33203125 589.322265625 401.999023438 c 0
 587.989257812 395.999023438 586.15625 390.499023438 583.823242188 385.499023438 c 0
 581.490234375 380.499023438 578.323242188 375.666015625 574.323242188 370.999023438 c 0
 570.323242188 366.33203125 565.323242188 362.83203125 559.323242188 360.499023438 c 0
 553.323242188 358.166015625 546.65625 357.333007812 539.323242188 358 c 0
 529.723632812 359.200195312 513.524414062 359.799804688 490.724609375 359.799804688 c 0
 475.524414062 359.799804688 457.390625 359.533203125 436.323242188 359 c 1
 432.323242188 341 427.490234375 319.666992188 421.823242188 295 c 0
 416.15625 270.333007812 412.65625 255.333007812 411.323242188 250 c 0
EndSplineSet
Validated: 524289
EndChar

StartChar: comma
Encoding: 44 44 23
Width: 640
GlyphClass: 2
Flags: HMW
VStem: 183.421 254.999
LayerCount: 2
Fore
SplineSet
436.919921875 96 m 0
 422.919921875 63.3330078125 397.921875 12.9990234375 361.921875 -55.0009765625 c 0
 325.921875 -123.000976562 300.588867188 -165.000976562 285.921875 -181.000976562 c 0
 272.588867188 -195.000976562 257.588867188 -205.000976562 240.921875 -211.000976562 c 0
 230.921875 -214.600585938 222.361328125 -216.401367188 215.241210938 -216.401367188 c 0
 210.494140625 -216.401367188 206.387695312 -215.600585938 202.920898438 -214.000976562 c 0
 196.920898438 -212.000976562 191.920898438 -208.000976562 187.920898438 -202.000976562 c 0
 183.920898438 -196.000976562 182.420898438 -188.66796875 183.420898438 -180.000976562 c 0
 184.420898438 -171.333984375 188.920898438 -162.333984375 196.920898438 -153.000976562 c 0
 214.25390625 -133.000976562 242.086914062 -89.0009765625 280.419921875 -21.0009765625 c 0
 318.752929688 46.9990234375 343.5859375 94.33203125 354.918945312 120.999023438 c 0
 358.918945312 130.33203125 365.0859375 137.665039062 373.418945312 142.998046875 c 0
 381.751953125 148.331054688 389.751953125 150.998046875 397.418945312 150.998046875 c 0
 405.0859375 150.998046875 412.252929688 150.331054688 418.919921875 148.998046875 c 0
 427.586914062 145.665039062 434.086914062 139.33203125 438.419921875 129.999023438 c 0
 440.362304688 125.815429688 441.333007812 121.229492188 441.333007812 116.2421875 c 0
 441.333007812 110.103515625 439.862304688 103.356445312 436.919921875 96 c 0
EndSplineSet
Validated: 524289
EndChar

StartChar: hyphen
Encoding: 45 45 24
Width: 640
GlyphClass: 2
Flags: HMW
HStem: 243 87<275.842 281.51> 251 82<476.51 506.844>
VStem: 240.51 290.001
LayerCount: 2
Fore
SplineSet
289.508789062 330 m 0xa0
 324.841796875 330 367.010742188 330.5 416.010742188 331.5 c 0
 465.010742188 332.5 492.84375 333 499.510742188 333 c 0
 514.177734375 333 523.510742188 329.5 527.510742188 322.5 c 0
 531.510742188 315.5 532.510742188 306.333007812 530.510742188 295 c 0
 523.84375 265.666992188 507.176757812 251 480.509765625 251 c 0x60
 472.509765625 251 441.009765625 249.666992188 386.009765625 247 c 0
 331.009765625 244.333007812 292.509765625 243 270.509765625 243 c 0
 249.176757812 243 238.509765625 252.172851562 238.509765625 270.51953125 c 0
 238.509765625 275.106445312 239.176757812 280.266601562 240.509765625 286 c 0
 245.842773438 315.333007812 262.17578125 330 289.508789062 330 c 0xa0
EndSplineSet
Validated: 524289
EndChar

StartChar: period
Encoding: 46 46 25
Width: 640
GlyphClass: 2
Flags: HMW
HStem: -14 153.998
VStem: 259.034 151
LayerCount: 2
Fore
SplineSet
318.034179688 -14 m 0
 314.7578125 -14.3740234375 311.606445312 -14.5615234375 308.581054688 -14.5615234375 c 0
 290.052734375 -14.5615234375 276.205078125 -7.5439453125 267.036132812 6.49609375 c 0
 259.924804688 17.384765625 256.369140625 29.5341796875 256.369140625 42.94140625 c 0
 256.369140625 49.6455078125 257.2578125 56.6630859375 259.03515625 63.99609375 c 0
 263.702148438 84.6630859375 275.702148438 102.330078125 295.03515625 116.997070312 c 0
 314.368164062 131.6640625 334.03515625 139.331054688 354.03515625 139.998046875 c 0
 355.013671875 140.02734375 355.98046875 140.04296875 356.935546875 140.04296875 c 0
 377.4609375 140.04296875 392.661132812 133.194335938 402.53515625 119.499023438 c 0
 409.350585938 110.044921875 412.758789062 98.923828125 412.758789062 86.1337890625 c 0
 412.758789062 79.533203125 411.850585938 72.48828125 410.03515625 64.9990234375 c 0
 405.368164062 43.666015625 394.701171875 25.8330078125 378.034179688 11.5 c 0
 361.3671875 -2.8330078125 341.3671875 -11.3330078125 318.034179688 -14 c 0
EndSplineSet
Validated: 524289
EndChar

StartChar: slash
Encoding: 47 47 26
Width: 640
GlyphClass: 2
Flags: HMW
VStem: 81.5913 95
LayerCount: 2
Fore
SplineSet
698.58984375 676 m 0
 674.58984375 642 610.091796875 558.498046875 505.091796875 425.498046875 c 0
 400.091796875 292.498046875 335.924804688 209.998046875 312.591796875 177.998046875 c 0
 297.924804688 157.331054688 273.7578125 122.331054688 240.090820312 72.998046875 c 0
 206.423828125 23.6650390625 185.256835938 -6.3349609375 176.58984375 -17.001953125 c 0
 162.58984375 -35.6689453125 147.08984375 -48.6689453125 130.08984375 -56.001953125 c 0
 121.58984375 -59.66796875 113.96484375 -61.501953125 107.21484375 -61.501953125 c 0
 100.46484375 -61.501953125 94.58984375 -59.66796875 89.58984375 -56.001953125 c 0
 83.58984375 -52.001953125 80.58984375 -44.0654296875 80.58984375 -32.1904296875 c 0
 80.58984375 -28.232421875 80.9228515625 -23.8359375 81.58984375 -19.0029296875 c 0
 84.2568359375 0.330078125 92.2568359375 17.9970703125 105.58984375 33.9970703125 c 0
 233.58984375 193.997070312 343.922851562 336.330078125 436.58984375 460.997070312 c 0
 494.58984375 537.6640625 557.256835938 624.331054688 624.58984375 720.998046875 c 0
 631.922851562 731.665039062 640.58984375 739.83203125 650.58984375 745.499023438 c 0
 660.58984375 751.166015625 669.58984375 753.833007812 677.58984375 753.5 c 0
 685.58984375 753.166992188 693.256835938 751.333984375 700.58984375 748.000976562 c 0
 710.58984375 742.000976562 715.58984375 732.66796875 715.58984375 720.000976562 c 0
 715.58984375 707.333984375 709.922851562 692.666992188 698.58984375 676 c 0
EndSplineSet
Validated: 524289
EndChar

StartChar: zero
Encoding: 48 48 27
Width: 640
GlyphClass: 2
Flags: HMW
HStem: -24 83.999<290.936 302.268> 636.999 81.001<477.268 478.602>
LayerCount: 2
Fore
SplineSet
292.936523438 -24 m 0
 264.26953125 -24 238.770507812 -18.333984375 216.4375 -7.0009765625 c 0
 194.104492188 4.33203125 176.604492188 19.9990234375 163.9375 39.9990234375 c 0
 151.270507812 59.9990234375 143.4375 84.9990234375 140.4375 114.999023438 c 0
 139.708007812 122.295898438 139.342773438 129.770507812 139.342773438 137.422851562 c 0
 139.342773438 161.23046875 142.875 186.755859375 149.9375 213.999023438 c 0
 151.270507812 220.666015625 154.770507812 237.166015625 160.4375 263.499023438 c 0
 166.104492188 289.83203125 170.771484375 310.83203125 174.438476562 326.499023438 c 0
 178.10546875 342.166015625 183.60546875 363.833007812 190.938476562 391.5 c 0
 198.271484375 419.166992188 205.271484375 443 211.938476562 463 c 0
 218.60546875 483 226.938476562 504.5 236.938476562 527.5 c 0
 246.938476562 550.5 256.938476562 570.666992188 266.938476562 588 c 0
 292.271484375 630 325.104492188 662.166992188 365.4375 684.5 c 0
 405.770507812 706.833007812 451.603515625 718 502.936523438 718 c 0
 528.26953125 718 550.76953125 713.333007812 570.436523438 704 c 0
 590.103515625 694.666992188 606.770507812 681 620.4375 663 c 0
 634.104492188 645 643.271484375 621.666992188 647.938476562 593 c 0
 650.116210938 579.62109375 651.206054688 565.298828125 651.206054688 550.032226562 c 0
 651.206054688 532.586914062 649.783203125 513.91015625 646.939453125 494 c 0
 641.606445312 460.666992188 634.2734375 422.833984375 624.940429688 380.500976562 c 0
 615.607421875 338.16796875 604.607421875 295.500976562 591.940429688 252.500976562 c 0
 579.2734375 209.500976562 567.606445312 176.66796875 556.939453125 154.000976562 c 0
 546.272460938 131.333984375 535.60546875 111.333984375 524.938476562 94.0009765625 c 0
 514.271484375 76.66796875 503.604492188 61.66796875 492.9375 49.0009765625 c 0
 482.270507812 36.333984375 470.770507812 25.6669921875 458.4375 17 c 0
 446.104492188 8.3330078125 434.104492188 1.3330078125 422.4375 -4 c 0
 410.770507812 -9.3330078125 397.770507812 -13.5 383.4375 -16.5 c 0
 369.104492188 -19.5 355.104492188 -21.5 341.4375 -22.5 c 0
 327.770507812 -23.5 311.603515625 -24 292.936523438 -24 c 0
243.9375 229.999023438 m 0
 243.270507812 227.33203125 242.4375 223.333007812 241.4375 218 c 0
 240.4375 212.666992188 239.604492188 209 238.9375 207 c 1
 350.270507812 329 454.270507812 454.333007812 550.9375 583 c 1
 543.604492188 600.333007812 532.9375 613.666015625 518.9375 622.999023438 c 0
 504.9375 632.33203125 488.270507812 636.999023438 468.9375 636.999023438 c 0
 434.270507812 636.999023438 404.9375 626.666015625 380.9375 605.999023438 c 0
 356.9375 585.33203125 334.9375 551.999023438 314.9375 505.999023438 c 0
 306.9375 489.33203125 299.4375 469.83203125 292.4375 447.499023438 c 0
 285.4375 425.166015625 278.4375 398.166015625 271.4375 366.499023438 c 0
 264.4375 334.83203125 259.770507812 312.499023438 257.4375 299.499023438 c 0
 255.104492188 286.499023438 250.604492188 263.33203125 243.9375 229.999023438 c 0
472.9375 168 m 0
 476.9375 176 484.604492188 197.999023438 495.9375 233.999023438 c 0
 507.270507812 269.999023438 518.9375 311.166015625 530.9375 357.499023438 c 0
 542.9375 403.83203125 552.270507812 448.33203125 558.9375 490.999023438 c 1
 458.270507812 344.33203125 351.270507812 221.33203125 237.9375 121.999023438 c 1
 245.270507812 80.666015625 269.9375 59.9990234375 311.9375 59.9990234375 c 0
 328.604492188 59.9990234375 343.9375 61.4990234375 357.9375 64.4990234375 c 0
 371.9375 67.4990234375 385.770507812 72.83203125 399.4375 80.4990234375 c 0
 413.104492188 88.166015625 425.9375 99.3330078125 437.9375 114 c 0
 449.9375 128.666992188 461.604492188 146.666992188 472.9375 168 c 0
EndSplineSet
Validated: 524289
EndChar

StartChar: one
Encoding: 49 49 28
Width: 640
GlyphClass: 2
Flags: HMW
HStem: -9 85.5 -5 89<146.732 147.397>
LayerCount: 2
Fore
SplineSet
555.064453125 38 m 0x80
 552.397460938 24.6669921875 546.561523438 13.5 537.561523438 4.5 c 0
 528.561523438 -4.5 514.728515625 -9 496.061523438 -9 c 0x80
 488.061523438 -9 433.061523438 -8.3330078125 331.061523438 -7 c 0
 229.061523438 -5.6669921875 162.728515625 -5 132.061523438 -5 c 0
 118.061523438 -5 108.89453125 -1 104.561523438 7 c 0
 101.87890625 11.9521484375 100.538085938 17.7978515625 100.538085938 24.5380859375 c 0
 100.538085938 28.6865234375 101.045898438 33.173828125 102.0625 38 c 0
 104.729492188 51.3330078125 110.396484375 62.3330078125 119.063476562 71 c 0
 127.73046875 79.6669921875 139.397460938 84 154.064453125 84 c 0x40
 182.064453125 84 229.731445312 83.6669921875 297.064453125 83 c 1
 303.064453125 109.666992188 307.731445312 131 311.064453125 147 c 0
 311.731445312 152.333007812 315.564453125 170 322.564453125 200 c 0
 329.564453125 230 334.731445312 251.666992188 338.064453125 265 c 0
 341.397460938 278.333007812 347.897460938 303 357.564453125 339 c 0
 367.231445312 375 374.231445312 401.833007812 378.564453125 419.5 c 0
 382.897460938 437.166992188 390.23046875 465.166992188 400.563476562 503.5 c 0
 410.896484375 541.833007812 418.729492188 570 424.0625 588 c 1
 368.729492188 546.666992188 329.396484375 522 306.063476562 514 c 0
 301.9609375 512.359375 298.016601562 511.5390625 294.229492188 511.5390625 c 0
 285.708984375 511.5390625 277.986328125 515.692382812 271.063476562 524 c 0
 263.563476562 533 259.813476562 542 259.813476562 551 c 0
 259.813476562 554 260.23046875 557 261.063476562 560 c 0
 263.063476562 570.666992188 267.396484375 580.166992188 274.063476562 588.5 c 0
 280.73046875 596.833007812 290.73046875 605.333007812 304.063476562 614 c 0
 325.396484375 628.666992188 347.896484375 644.833984375 371.563476562 662.500976562 c 0
 395.23046875 680.16796875 412.563476562 693.000976562 423.563476562 701.000976562 c 0
 434.563476562 709.000976562 445.23046875 715.833984375 455.563476562 721.500976562 c 0
 465.896484375 727.16796875 474.729492188 730.000976562 482.0625 730.000976562 c 0
 495.395507812 730.000976562 507.5625 724.000976562 518.5625 712.000976562 c 0
 527.870117188 701.846679688 532.524414062 693.125 532.524414062 685.834960938 c 0
 532.524414062 683.2109375 532.524414062 683.2109375 488.5625 518.500976562 c 0
 463.5625 424.833984375 449.395507812 370.000976562 446.0625 354.000976562 c 0
 430.729492188 287.333984375 418.0625 231.666992188 408.0625 187 c 0
 402.0625 162.333007812 394.729492188 126.333007812 386.0625 79 c 1
 404.0625 79 422.895507812 78.6669921875 442.5625 78 c 0
 462.229492188 77.3330078125 478.396484375 76.8330078125 491.063476562 76.5 c 0
 503.73046875 76.1669921875 512.397460938 76 517.064453125 76 c 0
 534.397460938 76 545.564453125 72.5 550.564453125 65.5 c 0
 555.564453125 58.5 557.064453125 49.3330078125 555.064453125 38 c 0x80
EndSplineSet
Validated: 524289
EndChar

StartChar: two
Encoding: 50 50 29
Width: 640
GlyphClass: 2
Flags: HMW
HStem: -18.0049 84.0049 -12 89<489.729 526.23> 637.997 83.999<474.063 487.065>
LayerCount: 2
Fore
SplineSet
502.729492188 -12 m 0x60
 476.729492188 -12 444.231445312 -12.6728515625 405.231445312 -14.005859375 c 0
 366.231445312 -15.3388671875 331.564453125 -16.671875 301.231445312 -18.0048828125 c 0
 270.8984375 -19.337890625 240.231445312 -20.0048828125 209.231445312 -20.0048828125 c 0
 178.231445312 -20.0048828125 154.064453125 -18.671875 136.731445312 -16.0048828125 c 0
 123.3984375 -14.671875 115.565429688 -5.671875 113.232421875 10.9951171875 c 0
 112.706054688 14.7587890625 112.442382812 18.8955078125 112.442382812 23.4072265625 c 0
 112.442382812 38.8740234375 115.5390625 58.7373046875 121.732421875 82.9951171875 c 0
 128.399414062 111.662109375 140.899414062 141.829101562 159.232421875 173.49609375 c 0
 177.565429688 205.163085938 201.3984375 235.49609375 230.731445312 264.49609375 c 0
 260.064453125 293.49609375 291.731445312 316.99609375 325.731445312 334.99609375 c 0
 401.731445312 374.99609375 451.064453125 402.99609375 473.731445312 418.99609375 c 0
 503.731445312 440.329101562 525.064453125 462.99609375 537.731445312 486.99609375 c 0
 544.3984375 500.99609375 550.065429688 518.329101562 554.732421875 538.99609375 c 0
 557.514648438 551.053710938 558.90625 561.962890625 558.90625 571.72265625 c 0
 558.90625 590.021484375 554.014648438 604.279296875 544.232421875 614.497070312 c 0
 529.232421875 630.1640625 504.399414062 637.997070312 469.732421875 637.997070312 c 0
 445.732421875 637.997070312 420.732421875 629.997070312 394.732421875 613.997070312 c 0
 368.732421875 597.997070312 347.399414062 580.330078125 330.732421875 560.997070312 c 0
 322.732421875 552.330078125 315.899414062 545.497070312 310.232421875 540.497070312 c 0
 304.565429688 535.497070312 298.8984375 532.6640625 293.231445312 531.997070312 c 0
 287.564453125 531.330078125 282.564453125 531.663085938 278.231445312 532.99609375 c 0
 273.8984375 534.329101562 268.731445312 536.662109375 262.731445312 539.995117188 c 0
 253.3984375 545.995117188 248.731445312 554.662109375 248.731445312 565.995117188 c 0
 248.731445312 577.328125 254.731445312 591.995117188 266.731445312 609.995117188 c 0
 276.064453125 622.662109375 288.231445312 635.329101562 303.231445312 647.99609375 c 0
 318.231445312 660.663085938 335.231445312 672.663085938 354.231445312 683.99609375 c 0
 373.231445312 695.329101562 394.3984375 704.49609375 417.731445312 711.49609375 c 0
 441.064453125 718.49609375 463.397460938 721.99609375 484.73046875 721.99609375 c 0
 552.063476562 721.99609375 599.23046875 705.329101562 626.23046875 671.99609375 c 0
 643.451171875 650.736328125 652.060546875 622.697265625 652.060546875 587.877929688 c 0
 652.060546875 568.103515625 649.284179688 546.143554688 643.73046875 521.99609375 c 0
 631.063476562 466.663085938 607.73046875 422.330078125 573.73046875 388.997070312 c 0
 548.397460938 364.330078125 507.397460938 336.997070312 450.73046875 306.997070312 c 0
 436.73046875 298.997070312 412.397460938 286.6640625 377.73046875 269.997070312 c 0
 347.73046875 254.6640625 321.23046875 235.831054688 298.23046875 213.498046875 c 0
 275.23046875 191.165039062 257.063476562 168.33203125 243.73046875 144.999023438 c 0
 230.397460938 121.666015625 219.73046875 96.3330078125 211.73046875 69 c 1
 245.73046875 67 278.73046875 66 310.73046875 66 c 0xa0
 342.73046875 66 367.897460938 66.5 386.23046875 67.5 c 0
 404.563476562 68.5 425.73046875 70 449.73046875 72 c 2
 497.73046875 76 l 2
 498.397460938 76 501.397460938 76.1669921875 506.73046875 76.5 c 0
 512.063476562 76.8330078125 515.563476562 77 517.23046875 77 c 2
 526.23046875 77 l 2
 530.563476562 77 533.73046875 76.3330078125 535.73046875 75 c 0
 537.73046875 73.6669921875 539.897460938 72 542.23046875 70 c 0
 544.563476562 68 546.23046875 65.3330078125 547.23046875 62 c 0
 548.23046875 58.6669921875 548.397460938 54.6669921875 547.73046875 50 c 0
 547.063476562 42 544.896484375 33.5 541.229492188 24.5 c 0
 537.5625 15.5 532.229492188 7.1669921875 525.229492188 -0.5 c 0
 518.229492188 -8.1669921875 510.729492188 -12 502.729492188 -12 c 0x60
EndSplineSet
Validated: 524289
EndChar

StartChar: three
Encoding: 51 51 30
Width: 640
GlyphClass: 2
Flags: HMW
HStem: -23.9941 84<313.37 337.037> 318.006 100<342.37 349.037> 638.006 83.998<452.705 467.703>
VStem: 484.204 100
LayerCount: 2
Fore
SplineSet
576.704101562 199 m 0
 561.37109375 130.333007812 529.37109375 76.005859375 480.704101562 36.005859375 c 0
 432.037109375 -3.994140625 372.370117188 -23.994140625 301.703125 -23.994140625 c 0
 279.703125 -23.994140625 258.870117188 -20.494140625 239.203125 -13.494140625 c 0
 219.536132812 -6.494140625 202.703125 2.505859375 188.703125 13.505859375 c 0
 174.703125 24.505859375 163.036132812 36.505859375 153.703125 49.505859375 c 0
 144.370117188 62.505859375 138.370117188 75.3388671875 135.703125 88.005859375 c 0
 134.370117188 94.138671875 133.703125 100.059570312 133.703125 105.765625 c 0
 133.703125 114.326171875 135.203125 122.405273438 138.203125 130.005859375 c 0
 143.203125 142.672851562 151.370117188 151.672851562 162.703125 157.005859375 c 0
 172.358398438 161.603515625 180.982421875 163.90234375 188.576171875 163.90234375 c 0
 191.994140625 163.90234375 195.203125 163.436523438 198.203125 162.505859375 c 0
 207.870117188 159.505859375 216.037109375 151.005859375 222.704101562 137.005859375 c 0
 232.037109375 117.005859375 245.370117188 99.1728515625 262.703125 83.505859375 c 0
 280.036132812 67.8388671875 301.036132812 60.005859375 325.703125 60.005859375 c 0
 362.370117188 60.005859375 395.370117188 71.3388671875 424.703125 94.005859375 c 0
 454.036132812 116.672851562 472.703125 146.005859375 480.703125 182.005859375 c 0
 483.814453125 196.673828125 485.370117188 210.0078125 485.370117188 222.008789062 c 0
 485.370117188 228.0078125 484.981445312 233.672851562 484.204101562 239.005859375 c 0
 481.87109375 255.005859375 475.37109375 269.005859375 464.704101562 281.005859375 c 0
 454.037109375 293.005859375 437.537109375 302.172851562 415.204101562 308.505859375 c 0
 392.87109375 314.838867188 365.37109375 318.005859375 332.704101562 318.005859375 c 0
 320.037109375 318.005859375 310.370117188 323.505859375 303.703125 334.505859375 c 0
 299.2578125 341.83984375 297.036132812 349.692382812 297.036132812 358.0625 c 0
 297.036132812 362.248046875 297.590820312 366.561523438 298.702148438 371.005859375 c 0
 302.03515625 385.005859375 308.03515625 396.338867188 316.702148438 405.005859375 c 0
 325.369140625 413.672851562 336.036132812 418.005859375 348.703125 418.005859375 c 0
 400.703125 418.005859375 444.203125 429.172851562 479.203125 451.505859375 c 0
 514.203125 473.838867188 536.036132812 506.338867188 544.703125 549.005859375 c 0
 547.262695312 558.60546875 548.54296875 567.420898438 548.54296875 575.450195312 c 0
 548.54296875 592.513671875 542.762695312 606.032226562 531.203125 616.005859375 c 0
 514.203125 630.672851562 486.703125 638.005859375 448.703125 638.005859375 c 0
 441.370117188 638.005859375 434.203125 637.172851562 427.203125 635.505859375 c 0
 420.203125 633.838867188 414.203125 632.171875 409.203125 630.504882812 c 0
 404.203125 628.837890625 398.703125 626.004882812 392.703125 622.004882812 c 0
 386.703125 618.004882812 381.870117188 614.671875 378.203125 612.004882812 c 0
 374.536132812 609.337890625 369.703125 605.004882812 363.703125 599.004882812 c 2
 351.203125 586.504882812 l 2
 348.870117188 584.171875 344.703125 579.338867188 338.703125 572.005859375 c 0
 325.370117188 557.338867188 313.203125 548.671875 302.203125 546.004882812 c 0
 299.060546875 545.243164062 295.958007812 544.862304688 292.896484375 544.862304688 c 0
 285.243164062 544.862304688 277.845703125 547.243164062 270.703125 552.004882812 c 0
 261.9921875 556.982421875 257.637695312 565.0078125 257.637695312 576.083007812 c 0
 257.637695312 588.150390625 262.678710938 603.212890625 274.705078125 622.00390625 c 0
 284.038085938 635.336914062 294.705078125 647.50390625 306.705078125 658.50390625 c 0
 318.705078125 669.50390625 332.372070312 680.00390625 347.705078125 690.00390625 c 0
 363.038085938 700.00390625 380.705078125 707.836914062 400.705078125 713.50390625 c 0
 420.705078125 719.170898438 441.705078125 722.00390625 463.705078125 722.00390625 c 0
 535.038085938 722.00390625 585.038085938 706.00390625 613.705078125 674.00390625 c 0
 632.103515625 653.466796875 641.301757812 626.614257812 641.301757812 593.4453125 c 0
 641.301757812 574.932617188 638.436523438 554.452148438 632.705078125 532.00390625 c 0
 628.705078125 512.670898438 622.538085938 495.170898438 614.205078125 479.50390625 c 0
 605.872070312 463.836914062 596.372070312 450.50390625 585.705078125 439.50390625 c 0
 575.038085938 428.50390625 562.87109375 418.836914062 549.204101562 410.50390625 c 0
 535.537109375 402.170898438 522.204101562 395.670898438 509.204101562 391.00390625 c 0
 496.204101562 386.336914062 482.37109375 382.669921875 467.704101562 380.002929688 c 1
 491.704101562 374.002929688 511.704101562 366.669921875 527.704101562 358.002929688 c 0
 543.704101562 349.3359375 556.704101562 338.168945312 566.704101562 324.501953125 c 0
 576.704101562 310.834960938 582.537109375 293.66796875 584.204101562 273.000976562 c 0
 584.537109375 268.8671875 584.704101562 264.573242188 584.704101562 260.119140625 c 0
 584.704101562 242.305664062 582.037109375 221.932617188 576.704101562 199 c 0
EndSplineSet
Validated: 524289
EndChar

StartChar: four
Encoding: 52 52 31
Width: 640
GlyphClass: 2
Flags: HMW
HStem: -23.001 21G<427.947 440.614> 223.999 79.999
LayerCount: 2
Fore
SplineSet
488.611328125 55 m 0
 487.944335938 33.6669921875 482.112304688 15.33203125 471.112304688 -0.0009765625 c 0
 460.112304688 -15.333984375 447.612304688 -23.0009765625 433.612304688 -23.0009765625 c 0
 422.279296875 -23.0009765625 412.279296875 -18.16796875 403.612304688 -8.5009765625 c 0
 396.100585938 -0.123046875 392.344726562 8.380859375 392.344726562 17.0087890625 c 0
 392.344726562 23.4921875 398.22265625 48.0009765625 401.110351562 59.9990234375 c 0
 405.443359375 77.9990234375 411.610351562 103.83203125 419.610351562 137.499023438 c 0
 427.610351562 171.166015625 434.27734375 199.999023438 439.610351562 223.999023438 c 1
 426.357421875 224.15625 413.565429688 224.234375 401.234375 224.234375 c 0
 308.740234375 224.234375 242.19921875 219.822265625 201.610351562 210.999023438 c 0
 191.610351562 208.999023438 182.77734375 209.33203125 175.110351562 211.999023438 c 0
 167.443359375 214.666015625 162.110351562 219.333007812 159.110351562 226 c 0
 156.110351562 232.666992188 154.27734375 240.333984375 153.610351562 249.000976562 c 0
 152.943359375 257.66796875 153.776367188 266.66796875 156.109375 276.000976562 c 0
 158.442382812 285.333984375 161.942382812 294.333984375 166.609375 303.000976562 c 0
 177.276367188 321.66796875 201.109375 352.16796875 238.109375 394.500976562 c 0
 275.109375 436.833984375 322.276367188 489.166992188 379.609375 551.5 c 0
 436.942382812 613.833007812 477.942382812 659 502.609375 687 c 0
 513.942382812 699.666992188 525.442382812 709.166992188 537.109375 715.5 c 0
 548.776367188 721.833007812 558.943359375 725 567.610351562 725 c 0
 569.913085938 725.2421875 572.155273438 725.36328125 574.336914062 725.36328125 c 0
 584.155273438 725.36328125 592.74609375 722.909179688 600.110351562 718 c 0
 608.489257812 712.4140625 612.6796875 703.072265625 612.6796875 689.973632812 c 0
 612.6796875 684.974609375 611.553710938 656.916992188 596.611328125 579 c 0
 587.278320312 530.333007812 578.9453125 489.166015625 571.612304688 455.499023438 c 0
 564.279296875 421.83203125 553.279296875 370.999023438 538.612304688 302.999023438 c 1
 549.279296875 302.33203125 561.279296875 301.999023438 574.612304688 301.999023438 c 0
 589.279296875 301.999023438 598.612304688 298.499023438 602.612304688 291.499023438 c 0
 606.612304688 284.499023438 607.612304688 275.33203125 605.612304688 263.999023438 c 0
 598.9453125 234.666015625 582.278320312 219.999023438 555.611328125 219.999023438 c 0
 542.944335938 219.999023438 531.611328125 220.33203125 521.611328125 220.999023438 c 1
 499.611328125 123.666015625 488.611328125 68.3330078125 488.611328125 55 c 0
519.612304688 601.998046875 m 1
 397.612304688 472.665039062 312.278320312 372.331054688 263.611328125 300.998046875 c 1
 298.850585938 303.37890625 341.9140625 304.569335938 392.801757812 304.569335938 c 0
 413.153320312 304.569335938 434.756835938 304.37890625 457.611328125 303.998046875 c 1
 486.278320312 428.665039062 506.9453125 527.998046875 519.612304688 601.998046875 c 1
EndSplineSet
Validated: 524289
EndChar

StartChar: five
Encoding: 53 53 32
Width: 640
GlyphClass: 2
Flags: HMW
HStem: -18.001 83.998<310.707 317.04> 419.997 89.0029<435.041 497.709> 619 88.998<635.376 666.71> 630 79.998
LayerCount: 2
Fore
SplineSet
608.708984375 296 m 0xd0
 597.375976562 246.666992188 581.373046875 202.166015625 560.706054688 162.499023438 c 0
 540.0390625 122.83203125 516.206054688 89.83203125 489.206054688 63.4990234375 c 0
 462.206054688 37.166015625 432.5390625 16.9990234375 400.206054688 2.9990234375 c 0
 367.873046875 -11.0009765625 334.373046875 -18.0009765625 299.706054688 -18.0009765625 c 0
 272.373046875 -18.0009765625 247.873046875 -15.0009765625 226.206054688 -9.0009765625 c 0
 204.5390625 -3.0009765625 187.206054688 5.33203125 174.206054688 15.9990234375 c 0
 161.206054688 26.666015625 150.873046875 37.8330078125 143.206054688 49.5 c 0
 135.5390625 61.1669921875 129.706054688 73.333984375 125.706054688 86.0009765625 c 0
 124.373046875 93.201171875 123.706054688 99.8681640625 123.706054688 106.000976562 c 0
 123.706054688 115.201171875 125.206054688 123.201171875 128.206054688 130.000976562 c 0
 133.206054688 141.333984375 142.0390625 150.000976562 154.706054688 156.000976562 c 0
 162.706054688 159.333984375 168.873046875 161.666992188 173.206054688 163 c 0
 177.5390625 164.333007812 182.5390625 164.666015625 188.206054688 163.999023438 c 0
 193.873046875 163.33203125 198.540039062 160.665039062 202.20703125 155.998046875 c 0
 205.874023438 151.331054688 209.374023438 144.6640625 212.70703125 135.997070312 c 0
 230.040039062 89.9970703125 262.70703125 66.6640625 310.70703125 65.9970703125 c 0
 357.374023438 65.9970703125 398.874023438 85.830078125 435.20703125 125.497070312 c 0
 471.540039062 165.1640625 497.373046875 218.331054688 512.706054688 284.998046875 c 0
 516.920898438 303.6640625 519.028320312 320.59765625 519.028320312 335.796875 c 0
 519.028320312 354.252929688 515.920898438 370.153320312 509.706054688 383.497070312 c 0
 498.373046875 407.830078125 475.040039062 419.997070312 439.70703125 419.997070312 c 0
 430.374023438 419.997070312 421.20703125 419.497070312 412.20703125 418.497070312 c 0
 403.20703125 417.497070312 395.540039062 416.1640625 389.20703125 414.497070312 c 0
 382.874023438 412.830078125 375.70703125 410.330078125 367.70703125 406.997070312 c 0
 359.70703125 403.6640625 353.70703125 400.997070312 349.70703125 398.997070312 c 0
 345.70703125 396.997070312 340.040039062 393.330078125 332.70703125 387.997070312 c 0
 325.374023438 382.6640625 320.541015625 378.997070312 318.208007812 376.997070312 c 0
 315.875 374.997070312 310.875 370.830078125 303.208007812 364.497070312 c 0
 295.541015625 358.1640625 290.708007812 354.331054688 288.708007812 352.998046875 c 0
 282.708007812 348.331054688 275.875 344.331054688 268.208007812 340.998046875 c 0
 260.541015625 337.665039062 252.208007812 335.498046875 243.208007812 334.498046875 c 0
 234.208007812 333.498046875 226.041015625 334.998046875 218.708007812 338.998046875 c 0
 209.375 343.665039062 203.875 353.998046875 202.208007812 369.998046875 c 0
 201.76953125 374.208984375 201.549804688 378.673828125 201.549804688 383.392578125 c 0
 201.549804688 396.603515625 203.26953125 411.805664062 206.708007812 428.998046875 c 0
 211.375 452.331054688 216.708007812 474.831054688 222.708007812 496.498046875 c 0
 228.708007812 518.165039062 235.375 541.498046875 242.708007812 566.498046875 c 0
 250.041015625 591.498046875 254.708007812 608.665039062 256.708007812 617.998046875 c 1
 253.375 626.665039062 252.375 636.498046875 253.708007812 647.498046875 c 0
 255.041015625 658.498046875 258.041015625 668.665039062 262.708007812 677.998046875 c 0
 267.375 687.331054688 273.541992188 695.331054688 281.208984375 701.998046875 c 0
 288.875976562 708.665039062 297.04296875 711.998046875 305.709960938 711.998046875 c 0
 329.04296875 711.998046875 383.209960938 711.331054688 468.209960938 709.998046875 c 0xd0
 553.209960938 708.665039062 618.04296875 707.998046875 662.709960938 707.998046875 c 0
 670.709960938 707.998046875 676.376953125 704.331054688 679.709960938 696.998046875 c 0
 683.04296875 689.665039062 684.375976562 681.33203125 683.708984375 671.999023438 c 0
 683.041992188 662.666015625 681.375 653.999023438 678.708007812 645.999023438 c 0
 677.375 641.33203125 675.541992188 637.33203125 673.208984375 633.999023438 c 0
 670.875976562 630.666015625 668.04296875 628.166015625 664.709960938 626.499023438 c 0
 661.376953125 624.83203125 658.543945312 623.33203125 656.2109375 621.999023438 c 0
 653.877929688 620.666015625 650.377929688 619.833007812 645.7109375 619.5 c 0
 641.043945312 619.166992188 637.876953125 619 636.209960938 619 c 0xe0
 634.54296875 619 631.04296875 619.333007812 625.709960938 620 c 0
 620.376953125 620.666992188 617.376953125 621 616.709960938 621 c 0
 608.04296875 621 592.875976562 622 571.208984375 624 c 0
 549.541992188 626 530.041992188 627.5 512.708984375 628.5 c 0
 495.375976562 629.5 471.208984375 630 440.208984375 630 c 0
 409.208984375 630 376.708984375 629 342.708984375 627 c 1
 340.708984375 620.333007812 335.541992188 601 327.208984375 569 c 0
 318.875976562 537 312.875976562 513.833007812 309.208984375 499.5 c 0
 305.541992188 485.166992188 301.041992188 464.666992188 295.708984375 438 c 1
 317.708984375 458.666992188 345.041992188 475.666992188 377.708984375 489 c 0
 410.375976562 502.333007812 445.708984375 509 483.708984375 509 c 0
 511.708984375 509 535.375976562 503.5 554.708984375 492.5 c 0
 574.041992188 481.5 588.708984375 466.333007812 598.708984375 447 c 0
 608.708984375 427.666992188 614.541992188 405.166992188 616.208984375 379.5 c 0
 616.541992188 374.366210938 616.708984375 369.145507812 616.708984375 363.837890625 c 0
 616.708984375 342.611328125 614.041992188 319.999023438 608.708984375 296 c 0xd0
EndSplineSet
Validated: 524289
EndChar

StartChar: six
Encoding: 54 54 33
Width: 640
GlyphClass: 2
Flags: HMW
HStem: -21.9971 84.0049<325.472 329.14> 393.004 87.9961<407.14 482.14> 657 80.002
VStem: 147.806 82.9971 515.306 95
LayerCount: 2
Fore
SplineSet
598.806640625 246 m 0
 590.139648438 208.666992188 576.138671875 173.502929688 556.805664062 140.502929688 c 0
 537.47265625 107.502929688 515.305664062 79.169921875 490.305664062 55.5029296875 c 0
 465.305664062 31.8359375 437.305664062 13.0029296875 406.305664062 -0.9970703125 c 0
 375.305664062 -14.9970703125 344.47265625 -21.9970703125 313.805664062 -21.9970703125 c 0
 275.805664062 -21.9970703125 244.305664062 -14.1640625 219.305664062 1.5029296875 c 0
 194.305664062 17.169921875 175.97265625 39.8369140625 164.305664062 69.50390625 c 0
 153.26953125 97.56640625 147.751953125 130.848632812 147.751953125 169.349609375 c 0
 147.751953125 171.55078125 147.76953125 173.768554688 147.805664062 176.00390625 c 0
 148.47265625 217.336914062 155.139648438 263.669921875 167.806640625 315.002929688 c 0
 181.806640625 372.3359375 199.139648438 424.002929688 219.806640625 470.002929688 c 0
 240.473632812 516.002929688 263.306640625 554.669921875 288.306640625 586.002929688 c 0
 313.306640625 617.3359375 341.139648438 643.8359375 371.806640625 665.502929688 c 0
 402.473632812 687.169921875 434.140625 703.669921875 466.807617188 715.002929688 c 0
 499.474609375 726.3359375 534.807617188 733.668945312 572.807617188 737.001953125 c 0
 575.600585938 737.255859375 578.291015625 737.3828125 580.877929688 737.3828125 c 0
 591.87890625 737.3828125 601.021484375 735.088867188 608.307617188 730.500976562 c 0
 616.686523438 725.224609375 620.876953125 716.915039062 620.876953125 705.571289062 c 0
 620.876953125 701.477539062 620.876953125 691.969726562 603.806640625 676.5 c 0
 593.139648438 666.833007812 582.47265625 660.333007812 571.805664062 657 c 0
 564.47265625 655 553.305664062 652.333007812 538.305664062 649 c 0
 523.305664062 645.666992188 510.638671875 642.5 500.305664062 639.5 c 0
 489.97265625 636.5 477.305664062 632 462.305664062 626 c 0
 447.305664062 620 431.805664062 611.333007812 415.805664062 600 c 0
 399.805664062 588.666992188 383.47265625 575 366.805664062 559 c 0
 349.47265625 541.666992188 331.639648438 518 313.306640625 488 c 0
 294.973632812 458 281.473632812 431.333007812 272.806640625 408 c 1
 298.139648438 432.666992188 327.47265625 451 360.805664062 463 c 0
 394.138671875 475 429.805664062 481 467.805664062 481 c 0
 496.47265625 481 520.97265625 476.666992188 541.305664062 468 c 0
 561.638671875 459.333007812 577.805664062 445.666015625 589.805664062 426.999023438 c 0
 601.805664062 408.33203125 608.638671875 383.83203125 610.305664062 353.499023438 c 0
 610.55859375 348.90234375 610.684570312 344.178710938 610.684570312 339.330078125 c 0
 610.684570312 312.178710938 606.725585938 281.069335938 598.806640625 246 c 0
232.805664062 230.002929688 m 0
 231.3046875 218.997070312 230.552734375 207.899414062 230.552734375 196.708007812 c 0
 230.552734375 192.984375 230.63671875 189.250976562 230.802734375 185.506835938 c 0
 231.469726562 170.506835938 234.13671875 155.33984375 238.803710938 140.006835938 c 0
 243.470703125 124.673828125 249.637695312 111.340820312 257.3046875 100.0078125 c 0
 264.971679688 88.6748046875 275.471679688 79.5078125 288.8046875 72.5078125 c 0
 302.137695312 65.5078125 317.137695312 62.0078125 333.8046875 62.0078125 c 0
 356.471679688 62.0078125 380.138671875 70.6748046875 404.805664062 88.0078125 c 0
 429.47265625 105.340820312 450.805664062 127.173828125 468.805664062 153.506835938 c 0
 486.805664062 179.83984375 498.805664062 206.672851562 504.805664062 234.005859375 c 0
 511.8203125 263.977539062 515.327148438 289.375 515.327148438 310.196289062 c 0
 515.327148438 333.04296875 511.104492188 350.248046875 502.805664062 362.00390625 c 0
 494.805664062 373.336914062 484.47265625 381.336914062 471.805664062 386.00390625 c 0
 459.138671875 390.670898438 442.805664062 393.00390625 422.805664062 393.00390625 c 0
 391.47265625 393.00390625 360.305664062 384.336914062 329.305664062 367.00390625 c 0
 298.305664062 349.670898438 271.138671875 327.670898438 247.805664062 301.00390625 c 1
 240.47265625 272.336914062 235.47265625 248.669921875 232.805664062 230.002929688 c 0
EndSplineSet
Validated: 524289
EndChar

StartChar: seven
Encoding: 55 55 34
Width: 640
GlyphClass: 2
Flags: HMW
HStem: 622.497 90.5
LayerCount: 2
Fore
SplineSet
228.213867188 26 m 0
 216.880859375 8.6669921875 204.375976562 -4.3359375 190.708984375 -13.0029296875 c 0
 180.2578125 -19.630859375 170.489257812 -22.9443359375 161.403320312 -22.9443359375 c 0
 158.607421875 -22.9443359375 155.875976562 -22.630859375 153.208984375 -22.0029296875 c 0
 140.541992188 -18.669921875 133.041992188 -10.669921875 130.708984375 1.9970703125 c 0
 130.267578125 4.3935546875 130.046875 6.837890625 130.046875 9.3291015625 c 0
 130.046875 20.0087890625 134.100585938 31.564453125 142.208984375 43.9970703125 c 0
 189.541992188 112.6640625 239.208984375 180.997070312 291.208984375 248.997070312 c 0
 343.208984375 316.997070312 385.708984375 371.1640625 418.708984375 411.497070312 c 0
 451.708984375 451.830078125 482.708984375 490.997070312 511.708984375 528.997070312 c 0
 540.708984375 566.997070312 561.541992188 597.997070312 574.208984375 621.997070312 c 1
 545.1171875 623.087890625 514.8359375 623.633789062 483.36328125 623.633789062 c 0
 457.138671875 623.633789062 430.087890625 623.254882812 402.209960938 622.497070312 c 0
 340.876953125 620.830078125 300.209960938 617.330078125 280.209960938 611.997070312 c 0
 272.209960938 609.997070312 265.709960938 610.330078125 260.709960938 612.997070312 c 0
 255.709960938 615.6640625 252.04296875 619.6640625 249.709960938 624.997070312 c 0
 247.376953125 630.330078125 246.043945312 635.997070312 245.7109375 641.997070312 c 0
 245.377929688 647.997070312 245.544921875 653.997070312 246.211914062 659.997070312 c 0
 248.87890625 671.997070312 253.87890625 681.497070312 261.211914062 688.497070312 c 0
 268.544921875 695.497070312 280.211914062 700.6640625 296.211914062 703.997070312 c 0
 320.211914062 708.6640625 352.544921875 711.6640625 393.211914062 712.997070312 c 0
 413.545898438 713.6640625 433.045898438 713.997070312 451.711914062 713.997070312 c 0
 470.37890625 713.997070312 488.211914062 713.663085938 505.211914062 712.997070312 c 0
 539.211914062 711.6640625 572.37890625 710.331054688 604.711914062 708.998046875 c 0
 637.044921875 707.665039062 654.544921875 706.998046875 657.211914062 706.998046875 c 0
 663.87890625 706.998046875 669.87890625 705.498046875 675.211914062 702.498046875 c 0
 680.544921875 699.498046875 685.211914062 694.665039062 689.211914062 687.998046875 c 0
 693.211914062 681.331054688 694.044921875 672.6640625 691.711914062 661.997070312 c 0
 689.37890625 651.330078125 683.545898438 638.997070312 674.212890625 624.997070312 c 0
 660.879882812 604.997070312 638.212890625 574.830078125 606.212890625 534.497070312 c 0
 574.212890625 494.1640625 541.045898438 452.831054688 506.712890625 410.498046875 c 0
 472.379882812 368.165039062 429.546875 311.83203125 378.213867188 241.499023438 c 0
 326.880859375 171.166015625 276.880859375 99.3330078125 228.213867188 26 c 0
EndSplineSet
Validated: 524289
EndChar

StartChar: eight
Encoding: 56 56 35
Width: 640
GlyphClass: 2
Flags: HMW
HStem: -27.9922 85.9971<311.737 316.403> 646.004 72.001<464.403 469.403>
VStem: 509.57 90.501
LayerCount: 2
Fore
SplineSet
595.0703125 204 m 0
 590.403320312 182.666992188 582.90234375 161.338867188 572.569335938 140.005859375 c 0
 562.236328125 118.672851562 548.569335938 97.83984375 531.569335938 77.5068359375 c 0
 514.569335938 57.173828125 495.236328125 39.3408203125 473.569335938 24.0078125 c 0
 451.90234375 8.6748046875 426.069335938 -3.8251953125 396.069335938 -13.4921875 c 0
 366.069335938 -23.1591796875 333.736328125 -27.9921875 299.069335938 -27.9921875 c 0
 267.736328125 -27.9921875 240.569335938 -23.3251953125 217.569335938 -13.9921875 c 0
 194.569335938 -4.6591796875 176.90234375 7.173828125 164.569335938 21.5068359375 c 0
 152.236328125 35.83984375 142.903320312 53.0068359375 136.5703125 73.0068359375 c 0
 130.553710938 92.0078125 127.544921875 111.159179688 127.544921875 130.4609375 c 0
 127.544921875 141.575195312 128.374023438 165.397460938 135.0703125 196.005859375 c 0
 140.403320312 218.672851562 151.403320312 243.005859375 168.0703125 269.005859375 c 0
 184.737304688 295.005859375 205.737304688 319.005859375 231.0703125 341.005859375 c 0
 256.403320312 363.005859375 282.403320312 378.338867188 309.0703125 387.005859375 c 1
 279.737304688 403.672851562 259.0703125 425.505859375 247.0703125 452.505859375 c 0
 239.356445312 469.86328125 235.499023438 487.426757812 235.499023438 505.197265625 c 0
 235.499023438 515.069335938 236.689453125 525.005859375 239.0703125 535.005859375 c 0
 241.0703125 543.005859375 243.5703125 551.505859375 246.5703125 560.505859375 c 0
 249.5703125 569.505859375 254.403320312 580.172851562 261.0703125 592.505859375 c 0
 267.737304688 604.838867188 275.237304688 616.671875 283.5703125 628.004882812 c 0
 291.903320312 639.337890625 302.403320312 650.504882812 315.0703125 661.504882812 c 0
 327.737304688 672.504882812 341.5703125 682.171875 356.5703125 690.504882812 c 0
 371.5703125 698.837890625 389.403320312 705.504882812 410.0703125 710.504882812 c 0
 430.737304688 715.504882812 452.737304688 718.004882812 476.0703125 718.004882812 c 0
 500.0703125 718.004882812 521.237304688 715.504882812 539.5703125 710.504882812 c 0
 557.903320312 705.504882812 572.903320312 698.837890625 584.5703125 690.504882812 c 0
 596.237304688 682.171875 605.737304688 672.504882812 613.0703125 661.504882812 c 0
 620.403320312 650.504882812 625.736328125 639.337890625 629.069335938 628.004882812 c 0
 632.40234375 616.671875 634.40234375 604.671875 635.069335938 592.004882812 c 0
 635.3359375 586.938476562 635.469726562 582.112304688 635.469726562 577.525390625 c 0
 635.469726562 570.64453125 635.168945312 564.3046875 634.569335938 558.50390625 c 0
 633.569335938 548.836914062 632.069335938 539.669921875 630.069335938 531.002929688 c 0
 628.069335938 523.002929688 625.236328125 515.002929688 621.569335938 507.002929688 c 0
 617.90234375 499.002929688 613.90234375 492.002929688 609.569335938 486.002929688 c 0
 605.236328125 480.002929688 599.736328125 473.669921875 593.069335938 467.002929688 c 0
 586.40234375 460.3359375 580.40234375 454.668945312 575.069335938 450.001953125 c 0
 569.736328125 445.334960938 562.903320312 440.001953125 554.5703125 434.001953125 c 0
 546.237304688 428.001953125 539.5703125 423.501953125 534.5703125 420.501953125 c 0
 529.5703125 417.501953125 522.903320312 413.334960938 514.5703125 408.001953125 c 0
 506.237304688 402.668945312 500.404296875 399.001953125 497.071289062 397.001953125 c 1
 517.73828125 386.334960938 535.23828125 374.334960938 549.571289062 361.001953125 c 0
 563.904296875 347.668945312 574.571289062 334.501953125 581.571289062 321.501953125 c 0
 588.571289062 308.501953125 593.571289062 294.668945312 596.571289062 280.001953125 c 0
 599.025390625 268.001953125 600.252929688 257.006835938 600.252929688 247.014648438 c 0
 600.252929688 244.793945312 600.192382812 242.623046875 600.071289062 240.500976562 c 0
 599.404296875 228.833984375 597.737304688 216.666992188 595.0703125 204 c 0
327.069335938 538.004882812 m 0
 325.670898438 532.235351562 324.971679688 526.637695312 324.971679688 521.211914062 c 0
 324.971679688 505.94921875 330.504882812 492.046875 341.571289062 479.504882812 c 0
 356.571289062 462.504882812 384.071289062 445.337890625 424.071289062 428.004882812 c 1
 452.73828125 439.337890625 479.23828125 454.670898438 503.571289062 474.00390625 c 0
 527.904296875 493.336914062 541.737304688 511.336914062 545.0703125 528.00390625 c 0
 546.784179688 536.00390625 547.641601562 543.942382812 547.641601562 551.819335938 c 0
 547.641601562 562.323242188 546.118164062 572.717773438 543.0703125 583.00390625 c 0
 537.737304688 601.00390625 527.5703125 616.00390625 512.5703125 628.00390625 c 0
 497.5703125 640.00390625 479.737304688 646.00390625 459.0703125 646.00390625 c 0
 430.403320312 646.00390625 402.736328125 634.836914062 376.069335938 612.50390625 c 0
 349.40234375 590.170898438 333.069335938 565.337890625 327.069335938 538.004882812 c 0
323.071289062 58.0048828125 m 0
 341.071289062 58.0048828125 359.737304688 60.8330078125 379.0703125 66.5 c 0
 398.403320312 72.1669921875 416.5703125 80.333984375 433.5703125 91.0009765625 c 0
 450.5703125 101.66796875 465.5703125 115.66796875 478.5703125 133.000976562 c 0
 491.5703125 150.333984375 500.403320312 168.666992188 505.0703125 188 c 0
 506.821289062 195.001953125 509.620117188 208.245117188 509.620117188 221.444335938 c 0
 509.620117188 230.415039062 508.270507812 240.600585938 505.5703125 252.001953125 c 0
 502.5703125 264.668945312 497.403320312 276.3359375 490.0703125 287.002929688 c 0
 482.737304688 297.669921875 471.737304688 308.836914062 457.0703125 320.50390625 c 0
 442.403320312 332.170898438 424.0703125 342.670898438 402.0703125 352.00390625 c 1
 354.0703125 339.336914062 312.737304688 317.336914062 278.0703125 286.00390625 c 0
 243.403320312 254.670898438 221.736328125 221.337890625 213.069335938 186.004882812 c 0
 210.771484375 176.557617188 209.622070312 167.453125 209.622070312 158.690429688 c 0
 209.622070312 144.573242188 212.604492188 131.344726562 218.569335938 119.004882812 c 0
 228.236328125 99.0048828125 242.403320312 83.837890625 261.0703125 73.5048828125 c 0
 279.737304688 63.171875 300.404296875 58.0048828125 323.071289062 58.0048828125 c 0
EndSplineSet
Validated: 524289
EndChar

StartChar: nine
Encoding: 57 57 36
Width: 640
GlyphClass: 2
Flags: HMW
HStem: -22 79.9961<206.612 206.612> 234.998 89<332.945 404.279> 654.995 84.0049<472.279 475.943>
LayerCount: 2
Fore
SplineSet
206.612304688 -22 m 0
 203.81640625 -22.25390625 201.1171875 -22.380859375 198.514648438 -22.380859375 c 0
 187.465820312 -22.380859375 178.163085938 -20.0908203125 170.609375 -15.50390625 c 0
 162.442382812 -10.544921875 158.359375 -2.90625 158.359375 7.412109375 c 0
 158.359375 14.451171875 159.158203125 24.6025390625 175.610351562 38.9970703125 c 0
 186.27734375 48.330078125 196.944335938 54.6630859375 207.611328125 57.99609375 c 0
 214.944335938 59.99609375 226.611328125 62.6630859375 242.611328125 65.99609375 c 0
 258.611328125 69.3291015625 273.111328125 72.8291015625 286.111328125 76.49609375 c 0
 299.111328125 80.1630859375 313.944335938 84.99609375 330.611328125 90.99609375 c 0
 347.278320312 96.99609375 363.778320312 105.329101562 380.111328125 115.99609375 c 0
 396.444335938 126.663085938 412.611328125 139.330078125 428.611328125 153.997070312 c 0
 448.611328125 173.330078125 467.611328125 195.830078125 485.611328125 221.497070312 c 0
 503.611328125 247.1640625 516.944335938 270.331054688 525.611328125 290.998046875 c 1
 503.611328125 269.665039062 478.278320312 254.998046875 449.611328125 246.998046875 c 0
 420.944335938 238.998046875 386.611328125 234.998046875 346.611328125 234.998046875 c 0
 319.278320312 234.998046875 294.778320312 241.831054688 273.111328125 255.498046875 c 0
 251.444335938 269.165039062 234.611328125 287.33203125 222.611328125 309.999023438 c 0
 210.611328125 332.666015625 202.944335938 358.833007812 199.611328125 388.5 c 0
 198.5 398.387695312 197.9453125 408.33203125 197.9453125 418.331054688 c 0
 197.9453125 438.33203125 200.166992188 458.555664062 204.612304688 479.000976562 c 0
 213.279296875 516.333984375 227.112304688 551.166992188 246.112304688 583.5 c 0
 265.112304688 615.833007812 287.112304688 643.333007812 312.112304688 666 c 0
 337.112304688 688.666992188 364.9453125 706.5 395.612304688 719.5 c 0
 426.279296875 732.5 456.946289062 739 487.61328125 739 c 0
 563.61328125 739 613.11328125 708 636.11328125 646 c 0
 646.485351562 618.0390625 651.671875 584.586914062 651.671875 545.643554688 c 0
 651.671875 498.234375 643.985351562 442.686523438 628.61328125 379 c 0
 615.946289062 325.666992188 598.779296875 277.5 577.112304688 234.5 c 0
 555.4453125 191.5 531.278320312 155 504.611328125 125 c 0
 477.944335938 95 448.111328125 69.3330078125 415.111328125 48 c 0
 382.111328125 26.6669921875 348.444335938 10.5 314.111328125 -0.5 c 0
 279.778320312 -11.5 243.9453125 -18.6669921875 206.612304688 -22 c 0
298.609375 490.995117188 m 0
 292.879882812 466.268554688 290.015625 444.237304688 290.015625 424.8984375 c 0
 290.015625 401.482421875 294.215820312 382.015625 302.61328125 366.498046875 c 0
 317.946289062 338.165039062 347.279296875 323.998046875 390.612304688 323.998046875 c 0
 417.9453125 323.998046875 446.278320312 330.665039062 475.611328125 343.998046875 c 0
 504.944335938 357.331054688 529.944335938 375.6640625 550.611328125 398.997070312 c 1
 555.944335938 418.330078125 561.944335938 447.663085938 568.611328125 486.99609375 c 0
 570.111328125 497.99609375 570.861328125 509.088867188 570.861328125 520.276367188 c 0
 570.861328125 524.005859375 570.778320312 527.74609375 570.611328125 531.49609375 c 0
 569.944335938 546.49609375 567.27734375 561.663085938 562.610351562 576.99609375 c 0
 557.943359375 592.329101562 551.776367188 605.662109375 544.109375 616.995117188 c 0
 536.442382812 628.328125 525.942382812 637.495117188 512.609375 644.495117188 c 0
 499.276367188 651.495117188 484.276367188 654.995117188 467.609375 654.995117188 c 0
 444.276367188 654.995117188 420.776367188 646.995117188 397.109375 630.995117188 c 0
 373.442382812 614.995117188 352.609375 594.495117188 334.609375 569.495117188 c 0
 316.609375 544.495117188 304.609375 518.328125 298.609375 490.995117188 c 0
EndSplineSet
Validated: 524289
EndChar

StartChar: colon
Encoding: 58 58 37
Width: 640
GlyphClass: 2
Flags: HMW
VStem: 279.892 192.996
LayerCount: 2
Fore
SplineSet
472.887695312 417 m 0
 469.5546875 395 461.891601562 371.6640625 449.891601562 346.997070312 c 0
 443.891601562 333.6640625 434.891601562 323.497070312 422.891601562 316.497070312 c 0
 411.935546875 310.106445312 401.8125 306.91015625 392.5234375 306.91015625 c 0
 391.638671875 306.91015625 390.76171875 306.939453125 389.891601562 306.997070312 c 0
 356.831054688 308.80078125 340.301757812 321.442382812 340.301757812 344.924804688 c 0
 340.301757812 347.486328125 340.498046875 350.177734375 340.891601562 352.997070312 c 0
 343.55859375 370.997070312 348.225585938 393.997070312 354.892578125 421.997070312 c 0
 356.892578125 430.6640625 360.892578125 437.831054688 366.892578125 443.498046875 c 0
 372.892578125 449.165039062 379.559570312 453.33203125 386.892578125 455.999023438 c 0
 394.225585938 458.666015625 401.05859375 460.333007812 407.391601562 461 c 0
 413.724609375 461.666992188 420.224609375 462 426.891601562 462 c 0
 432.224609375 462 437.557617188 461.333007812 442.890625 460 c 0
 448.223632812 458.666992188 453.556640625 456.5 458.889648438 453.5 c 0
 464.22265625 450.5 468.055664062 445.833007812 470.388671875 439.5 c 0
 472.721679688 433.166992188 473.5546875 425.666992188 472.887695312 417 c 0
411.891601562 149.997070312 m 0
 410.55859375 126.6640625 403.892578125 102.66015625 391.892578125 77.9931640625 c 0
 385.892578125 64.66015625 375.892578125 54.8271484375 361.892578125 48.494140625 c 0
 349.2265625 42.7646484375 337.924804688 39.8994140625 327.987304688 39.8994140625 c 0
 326.940429688 39.8994140625 325.909179688 39.931640625 324.892578125 39.9951171875 c 0
 312.225585938 40.662109375 301.05859375 44.8291015625 291.391601562 52.49609375 c 0
 283.381835938 58.8486328125 279.376953125 67.375 279.376953125 78.0751953125 c 0
 279.376953125 80.2890625 279.548828125 82.595703125 279.891601562 84.99609375 c 0
 282.55859375 98.99609375 284.225585938 107.829101562 284.892578125 111.49609375 c 0
 285.559570312 115.163085938 287.392578125 121.99609375 290.392578125 131.99609375 c 0
 293.392578125 141.99609375 295.559570312 149.663085938 296.892578125 154.99609375 c 0
 298.892578125 162.99609375 302.725585938 169.99609375 308.392578125 175.99609375 c 0
 314.059570312 181.99609375 320.392578125 186.163085938 327.392578125 188.49609375 c 0
 334.392578125 190.829101562 341.059570312 192.49609375 347.392578125 193.49609375 c 0
 353.725585938 194.49609375 359.892578125 194.99609375 365.892578125 194.99609375 c 0
 373.225585938 194.99609375 380.225585938 193.829101562 386.892578125 191.49609375 c 0
 393.559570312 189.163085938 399.559570312 184.330078125 404.892578125 176.997070312 c 0
 410.225585938 169.6640625 412.55859375 160.6640625 411.891601562 149.997070312 c 0
EndSplineSet
Validated: 524289
EndChar

StartChar: semicolon
Encoding: 59 59 38
Width: 640
GlyphClass: 2
Flags: HMW
VStem: 191.401 300.994
LayerCount: 2
Fore
SplineSet
492.393554688 375 m 0
 489.060546875 353 481.065429688 329.666015625 468.3984375 304.999023438 c 0
 462.3984375 291.666015625 453.3984375 281.499023438 441.3984375 274.499023438 c 0
 430.442382812 268.108398438 420.59765625 264.912109375 411.864257812 264.912109375 c 0
 411.032226562 264.912109375 410.209960938 264.94140625 409.3984375 264.999023438 c 0
 401.3984375 265.666015625 393.565429688 267.499023438 385.8984375 270.499023438 c 0
 378.231445312 273.499023438 371.564453125 278.666015625 365.897460938 285.999023438 c 0
 360.23046875 293.33203125 358.063476562 301.999023438 359.396484375 311.999023438 c 0
 362.063476562 329.999023438 367.396484375 352.999023438 375.396484375 380.999023438 c 0
 377.396484375 388.999023438 381.229492188 395.999023438 386.896484375 401.999023438 c 0
 392.563476562 407.999023438 399.063476562 412.166015625 406.396484375 414.499023438 c 0
 413.729492188 416.83203125 420.729492188 418.499023438 427.396484375 419.499023438 c 0
 434.063476562 420.499023438 440.063476562 420.666015625 445.396484375 419.999023438 c 0
 451.396484375 419.999023438 457.063476562 419.499023438 462.396484375 418.499023438 c 0
 467.729492188 417.499023438 473.0625 415.33203125 478.395507812 411.999023438 c 0
 483.728515625 408.666015625 487.561523438 403.833007812 489.89453125 397.5 c 0
 492.227539062 391.166992188 493.060546875 383.666992188 492.393554688 375 c 0
404.3984375 73.9990234375 m 0
 397.731445312 52.666015625 357.399414062 -34.3349609375 283.399414062 -187.001953125 c 0
 276.732421875 -201.001953125 268.232421875 -211.168945312 257.899414062 -217.501953125 c 0
 248.55078125 -223.231445312 239.338867188 -226.096679688 230.262695312 -226.096679688 c 0
 229.306640625 -226.096679688 228.352539062 -226.064453125 227.399414062 -226.000976562 c 0
 214.732421875 -225.333984375 204.399414062 -221.000976562 196.399414062 -213.000976562 c 0
 191.346679688 -207.948242188 188.8203125 -201.69921875 188.8203125 -194.252929688 c 0
 188.8203125 -189.909179688 189.6796875 -185.159179688 191.399414062 -180.000976562 c 0
 196.06640625 -164.000976562 211.56640625 -125.000976562 237.899414062 -63.0009765625 c 0
 264.232421875 -1.0009765625 284.732421875 46.33203125 299.399414062 78.9990234375 c 0
 304.06640625 88.9990234375 308.899414062 96.9990234375 313.899414062 102.999023438 c 0
 318.899414062 108.999023438 323.732421875 112.999023438 328.399414062 114.999023438 c 0
 333.06640625 116.999023438 338.06640625 118.33203125 343.399414062 118.999023438 c 0
 348.732421875 119.666015625 353.399414062 119.666015625 357.399414062 118.999023438 c 0
 363.399414062 118.999023438 369.399414062 118.166015625 375.399414062 116.499023438 c 0
 381.399414062 114.83203125 387.232421875 112.499023438 392.899414062 109.499023438 c 0
 398.56640625 106.499023438 402.56640625 101.999023438 404.899414062 95.9990234375 c 0
 407.232421875 89.9990234375 407.065429688 82.666015625 404.3984375 73.9990234375 c 0
EndSplineSet
Validated: 524289
EndChar

StartChar: less
Encoding: 60 60 39
Width: 640
GlyphClass: 2
Flags: W
HStem: -12.3984 21G<494.678 500.411>
LayerCount: 2
Fore
SplineSet
550.502929688 14 m 0
 545.8359375 7.3330078125 540.00390625 1.66796875 533.00390625 -2.9990234375 c 0
 526.00390625 -7.666015625 517.00390625 -10.666015625 506.00390625 -11.9990234375 c 0
 503.8046875 -12.265625 501.557617188 -12.3984375 499.264648438 -12.3984375 c 0
 490.090820312 -12.3984375 480.170898438 -10.265625 469.50390625 -5.9990234375 c 0
 455.50390625 -0.666015625 439.170898438 11.0009765625 420.50390625 29.0009765625 c 0
 401.836914062 47.0009765625 382.169921875 68.5009765625 361.502929688 93.5009765625 c 0
 340.8359375 118.500976562 320.502929688 144.000976562 300.502929688 170.000976562 c 0
 280.502929688 196.000976562 259.3359375 222.833984375 237.002929688 250.500976562 c 0
 214.669921875 278.16796875 195.169921875 299.66796875 178.502929688 315.000976562 c 0
 171.8359375 321.000976562 168.502929688 330.000976562 168.502929688 342.000976562 c 0
 168.502929688 354.000976562 171.3359375 365.500976562 177.002929688 376.500976562 c 0
 182.669921875 387.500976562 189.836914062 395.333984375 198.50390625 400.000976562 c 0
 239.836914062 428.000976562 289.336914062 463.16796875 347.00390625 505.500976562 c 0
 404.670898438 547.833984375 457.170898438 586.166992188 504.50390625 620.5 c 0
 551.836914062 654.833007812 593.169921875 682 628.502929688 702 c 0
 639.8359375 708.666992188 649.8359375 712.166992188 658.502929688 712.5 c 0
 667.169921875 712.833007812 674.169921875 711.166015625 679.502929688 707.499023438 c 0
 684.8359375 703.83203125 689.002929688 699.33203125 692.002929688 693.999023438 c 0
 695.002929688 688.666015625 697.169921875 682.999023438 698.502929688 676.999023438 c 0
 699.095703125 674.48046875 699.391601562 671.953125 699.391601562 669.41796875 c 0
 699.391601562 660.545898438 695.762695312 651.573242188 688.50390625 642.499023438 c 0
 679.170898438 630.83203125 662.170898438 616.999023438 637.50390625 600.999023438 c 0
 596.836914062 574.999023438 534.169921875 532.33203125 449.502929688 472.999023438 c 0
 364.8359375 413.666015625 311.168945312 375.999023438 288.501953125 359.999023438 c 1
 307.834960938 339.999023438 329.001953125 315.83203125 352.001953125 287.499023438 c 0
 375.001953125 259.166015625 395.001953125 233.499023438 412.001953125 210.499023438 c 0
 429.001953125 187.499023438 447.834960938 163.999023438 468.501953125 139.999023438 c 0
 489.168945312 115.999023438 507.8359375 96.9990234375 524.502929688 82.9990234375 c 0
 541.169921875 68.9990234375 551.502929688 56.83203125 555.502929688 46.4990234375 c 0
 556.915039062 42.8525390625 557.620117188 39.142578125 557.620117188 35.3720703125 c 0
 557.620117188 28.45703125 555.248046875 21.3330078125 550.502929688 14 c 0
EndSplineSet
Validated: 524289
EndChar

StartChar: equal
Encoding: 61 61 40
Width: 640
GlyphClass: 2
Flags: HMW
HStem: 246.996 83<234.86 263.527> 442.999 85.001
LayerCount: 2
Fore
SplineSet
306.528320312 528 m 0
 341.861328125 526.666992188 378.02734375 525.99609375 415.02734375 525.99609375 c 0
 452.02734375 525.99609375 486.860351562 526.329101562 519.52734375 526.99609375 c 0
 552.194335938 527.663085938 571.861328125 527.99609375 578.528320312 527.99609375 c 0
 593.1953125 527.99609375 602.528320312 524.663085938 606.528320312 517.99609375 c 0
 610.528320312 511.329101562 611.528320312 502.329101562 609.528320312 490.99609375 c 0
 608.1953125 484.99609375 606.528320312 479.49609375 604.528320312 474.49609375 c 0
 602.528320312 469.49609375 599.528320312 464.663085938 595.528320312 459.99609375 c 0
 591.528320312 455.329101562 586.528320312 451.829101562 580.528320312 449.49609375 c 0
 574.528320312 447.163085938 567.861328125 446.330078125 560.528320312 446.997070312 c 0
 545.854492188 447.442382812 530.513671875 447.6640625 514.504882812 447.6640625 c 0
 506.512695312 447.6640625 498.353515625 447.609375 490.028320312 447.498046875 c 0
 465.028320312 447.165039062 430.6953125 446.33203125 387.028320312 444.999023438 c 0
 343.361328125 443.666015625 311.528320312 442.999023438 291.528320312 442.999023438 c 0
 276.1953125 442.999023438 265.028320312 446.999023438 258.028320312 454.999023438 c 0
 251.028320312 462.999023438 248.861328125 472.666015625 251.528320312 483.999023438 c 0
 253.528320312 496.666015625 259.361328125 507.333007812 269.028320312 516 c 0
 278.004882812 524.047851562 289.422851562 528.071289062 303.28515625 528.071289062 c 0
 304.3515625 528.071289062 305.432617188 528.047851562 306.528320312 528 c 0
263.52734375 329.99609375 m 0
 279.778320312 329.7734375 296.958984375 329.662109375 315.069335938 329.662109375 c 0
 351.19140625 329.662109375 391.009765625 330.10546875 434.526367188 330.993164062 c 0
 499.859375 332.326171875 532.859375 332.993164062 533.526367188 332.993164062 c 0
 548.193359375 332.993164062 557.526367188 329.493164062 561.526367188 322.493164062 c 0
 565.526367188 315.493164062 566.526367188 306.326171875 564.526367188 294.993164062 c 0
 563.193359375 288.993164062 561.360351562 283.493164062 559.02734375 278.493164062 c 0
 556.694335938 273.493164062 553.694335938 268.66015625 550.02734375 263.993164062 c 0
 546.360351562 259.326171875 541.52734375 255.826171875 535.52734375 253.493164062 c 0
 529.52734375 251.16015625 522.860351562 250.327148438 515.52734375 250.994140625 c 0
 500.853515625 251.439453125 485.364257812 251.661132812 469.059570312 251.661132812 c 0
 460.918945312 251.661132812 452.57421875 251.606445312 444.02734375 251.495117188 c 0
 418.360351562 251.162109375 383.360351562 250.329101562 339.02734375 248.99609375 c 0
 294.694335938 247.663085938 262.52734375 246.99609375 242.52734375 246.99609375 c 0
 227.194335938 246.99609375 216.694335938 251.163085938 211.02734375 259.49609375 c 0
 207.173828125 265.162109375 205.247070312 271.676757812 205.247070312 279.0390625 c 0
 205.247070312 282.50390625 205.673828125 286.15625 206.52734375 289.99609375 c 0
 208.52734375 301.329101562 214.52734375 310.829101562 224.52734375 318.49609375 c 0
 234.52734375 326.163085938 247.52734375 329.99609375 263.52734375 329.99609375 c 0
EndSplineSet
Validated: 524289
EndChar

StartChar: greater
Encoding: 62 62 41
Width: 640
GlyphClass: 2
Flags: W
LayerCount: 2
Fore
SplineSet
171.201171875 5 m 0
 160.534179688 -1 150.700195312 -4.333984375 141.700195312 -5.0009765625 c 0
 132.700195312 -5.66796875 125.533203125 -4.16796875 120.200195312 -0.5009765625 c 0
 114.8671875 3.166015625 110.700195312 7.666015625 107.700195312 12.9990234375 c 0
 104.700195312 18.33203125 102.533203125 23.9990234375 101.200195312 29.9990234375 c 0
 100.607421875 32.517578125 100.311523438 35.044921875 100.311523438 37.580078125 c 0
 100.311523438 46.4521484375 103.940429688 55.4248046875 111.19921875 64.4990234375 c 0
 120.532226562 76.166015625 137.865234375 89.9990234375 163.198242188 105.999023438 c 0
 203.865234375 131.999023438 266.365234375 174.666015625 350.698242188 233.999023438 c 0
 435.03125 293.33203125 488.864257812 330.999023438 512.197265625 346.999023438 c 1
 492.864257812 366.999023438 471.53125 391.166015625 448.198242188 419.499023438 c 0
 424.865234375 447.83203125 404.532226562 473.499023438 387.19921875 496.499023438 c 0
 369.866210938 519.499023438 351.033203125 542.999023438 330.700195312 566.999023438 c 0
 310.3671875 590.999023438 291.8671875 609.999023438 275.200195312 623.999023438 c 0
 258.533203125 637.999023438 248.200195312 650.166015625 244.200195312 660.499023438 c 0
 242.788085938 664.145507812 242.083007812 667.85546875 242.083007812 671.625976562 c 0
 242.083007812 678.541015625 244.455078125 685.665039062 249.200195312 692.998046875 c 0
 253.8671875 699.665039062 259.700195312 705.33203125 266.700195312 709.999023438 c 0
 273.700195312 714.666015625 282.700195312 717.666015625 293.700195312 718.999023438 c 0
 295.899414062 719.265625 298.146484375 719.3984375 300.439453125 719.3984375 c 0
 309.61328125 719.3984375 319.533203125 717.265625 330.200195312 712.999023438 c 0
 344.200195312 707.666015625 360.700195312 696.166015625 379.700195312 678.499023438 c 0
 398.700195312 660.83203125 418.3671875 639.33203125 438.700195312 613.999023438 c 0
 459.033203125 588.666015625 479.200195312 562.999023438 499.200195312 536.999023438 c 0
 519.200195312 510.999023438 540.3671875 484.33203125 562.700195312 456.999023438 c 0
 585.033203125 429.666015625 604.866210938 407.999023438 622.19921875 391.999023438 c 0
 628.19921875 385.999023438 631.032226562 376.999023438 630.69921875 364.999023438 c 0
 630.366210938 352.999023438 627.533203125 341.499023438 622.200195312 330.499023438 c 0
 616.8671875 319.499023438 609.8671875 311.666015625 601.200195312 306.999023438 c 0
 559.8671875 278.999023438 510.3671875 243.83203125 452.700195312 201.499023438 c 0
 395.033203125 159.166015625 342.533203125 120.833007812 295.200195312 86.5 c 0
 247.8671875 52.1669921875 206.534179688 25 171.201171875 5 c 0
EndSplineSet
Validated: 524289
EndChar

StartChar: question
Encoding: 63 63 42
Width: 640
GlyphClass: 2
Flags: HMW
HStem: -14.0039 153.998 637.999 84.001<461.134 473.798>
VStem: 235.468 151 311.466 95.001
LayerCount: 2
Fore
SplineSet
406.467773438 262 m 0xd0
 399.80078125 244.666992188 390.966796875 231.330078125 379.966796875 221.997070312 c 0
 372.633789062 215.775390625 364.189453125 212.6640625 354.634765625 212.6640625 c 0
 349.856445312 212.6640625 344.80078125 213.442382812 339.466796875 214.998046875 c 0
 323.466796875 219.665039062 314.133789062 228.33203125 311.466796875 240.999023438 c 0
 310.905273438 243.666015625 310.625 246.524414062 310.625 249.576171875 c 0
 310.625 261.016601562 314.572265625 275.157226562 322.466796875 291.999023438 c 0
 331.133789062 309.999023438 341.466796875 326.999023438 353.466796875 342.999023438 c 0
 365.466796875 358.999023438 377.633789062 372.666015625 389.966796875 383.999023438 c 0
 402.299804688 395.33203125 415.1328125 406.165039062 428.465820312 416.498046875 c 0
 441.798828125 426.831054688 454.465820312 436.498046875 466.465820312 445.498046875 c 0
 478.465820312 454.498046875 489.6328125 463.665039062 499.965820312 472.998046875 c 0
 510.298828125 482.331054688 519.131835938 492.498046875 526.46484375 503.498046875 c 0
 533.797851562 514.498046875 538.797851562 526.331054688 541.46484375 538.998046875 c 0
 544.247070312 551.055664062 545.638671875 561.96484375 545.638671875 571.724609375 c 0
 545.638671875 590.0234375 540.747070312 604.28125 530.96484375 614.499023438 c 0
 515.96484375 630.166015625 491.131835938 637.999023438 456.46484375 637.999023438 c 0
 447.797851562 637.999023438 438.46484375 635.83203125 428.46484375 631.499023438 c 0
 418.46484375 627.166015625 409.797851562 622.333007812 402.46484375 617 c 0
 395.131835938 611.666992188 386.631835938 604.5 376.96484375 595.5 c 0
 367.297851562 586.5 359.797851562 578.833007812 354.46484375 572.5 c 0
 349.131835938 566.166992188 342.798828125 558.666992188 335.465820312 550 c 0
 328.1328125 541.333007812 321.299804688 534.5 314.966796875 529.5 c 0
 308.633789062 524.5 302.80078125 521.833007812 297.467773438 521.5 c 0
 292.134765625 521.166992188 287.301757812 521.5 282.96875 522.5 c 0
 278.635742188 523.5 273.135742188 525.666992188 266.46875 529 c 0
 257.135742188 535 252.635742188 543.666992188 252.96875 555 c 0
 253.301757812 566.333007812 259.46875 581 271.46875 599 c 0
 281.46875 613 292.801757812 626.5 305.46875 639.5 c 0
 318.135742188 652.5 333.135742188 665.5 350.46875 678.5 c 0
 367.801757812 691.5 387.134765625 702 408.467773438 710 c 0
 429.80078125 718 450.80078125 722 471.467773438 722 c 0
 538.80078125 722 585.967773438 705.333007812 612.967773438 672 c 0
 630.188476562 650.740234375 638.797851562 622.701171875 638.797851562 587.881835938 c 0
 638.797851562 568.107421875 636.021484375 546.147460938 630.467773438 522 c 0
 626.467773438 504 619.967773438 487.666992188 610.967773438 473 c 0
 601.967773438 458.333007812 591.967773438 445.666015625 580.967773438 434.999023438 c 0
 569.967773438 424.33203125 557.967773438 414.33203125 544.967773438 404.999023438 c 0
 531.967773438 395.666015625 518.80078125 386.333007812 505.467773438 377 c 0
 492.134765625 367.666992188 479.301757812 358 466.96875 348 c 0
 454.635742188 338 443.135742188 325.5 432.46875 310.5 c 0
 421.801757812 295.5 413.134765625 279.333007812 406.467773438 262 c 0xd0
295.466796875 -14.00390625 m 0
 292.096679688 -14.3779296875 288.858398438 -14.5654296875 285.751953125 -14.5654296875 c 0
 266.731445312 -14.5654296875 252.638671875 -7.5478515625 243.469726562 6.4921875 c 0
 236.358398438 17.380859375 232.802734375 29.5302734375 232.802734375 42.9375 c 0
 232.802734375 49.6416015625 233.69140625 56.6591796875 235.46875 63.9921875 c 0
 240.135742188 84.6591796875 252.135742188 102.326171875 271.46875 116.993164062 c 0
 290.801757812 131.66015625 310.46875 139.327148438 330.46875 139.994140625 c 0
 331.447265625 140.0234375 332.4140625 140.0390625 333.369140625 140.0390625 c 0
 353.89453125 140.0390625 369.094726562 133.190429688 378.96875 119.495117188 c 0
 385.784179688 110.041015625 389.192382812 98.919921875 389.192382812 86.1298828125 c 0
 389.192382812 79.529296875 388.284179688 72.484375 386.46875 64.9951171875 c 0xe0
 381.801757812 43.662109375 371.134765625 25.8291015625 354.467773438 11.49609375 c 0
 337.80078125 -2.8369140625 318.133789062 -11.3369140625 295.466796875 -14.00390625 c 0
EndSplineSet
Validated: 524289
EndChar

StartChar: at
Encoding: 64 64 43
Width: 640
GlyphClass: 2
Flags: HMW
HStem: -129 84.9961<265.875 314.206> 102.002 77.9951<466.875 509.873> 118.002 79.9941<347.873 356.208> 612.994 90.0078<479.539 483.208>
VStem: 115.706 85.501 432.207 81 582.708 75.499
LayerCount: 2
Fore
SplineSet
513.202148438 5 m 0xde
 507.869140625 -4.3330078125 502.54296875 -12.5009765625 497.209960938 -19.5009765625 c 0
 491.876953125 -26.5009765625 485.209960938 -35.16796875 477.209960938 -45.5009765625 c 0
 469.209960938 -55.833984375 460.876953125 -64.6669921875 452.209960938 -72 c 0
 443.54296875 -79.3330078125 433.209960938 -86.8330078125 421.209960938 -94.5 c 0
 409.209960938 -102.166992188 396.54296875 -108.5 383.209960938 -113.5 c 0
 369.876953125 -118.5 354.376953125 -122.5 336.709960938 -125.5 c 0
 322.255859375 -127.954101562 307.466796875 -129.181640625 292.342773438 -129.181640625 c 0
 288.981445312 -129.181640625 285.603515625 -129.12109375 282.208984375 -129 c 0
 249.541992188 -129 220.875 -120.333007812 196.208007812 -103 c 0
 171.541015625 -85.6669921875 152.374023438 -61.5 138.70703125 -30.5 c 0
 125.040039062 0.5 117.373046875 38.1669921875 115.706054688 82.5 c 0
 115.502929688 87.9072265625 115.401367188 93.3759765625 115.401367188 98.9072265625 c 0
 115.401367188 138.725585938 120.669921875 181.756835938 131.206054688 228 c 0
 145.206054688 286.666992188 162.206054688 341.333984375 182.206054688 392.000976562 c 0
 202.206054688 442.66796875 224.373046875 486.834960938 248.706054688 524.501953125 c 0
 273.0390625 562.168945312 298.706054688 594.501953125 325.706054688 621.501953125 c 0
 352.706054688 648.501953125 380.5390625 668.834960938 409.206054688 682.501953125 c 0
 437.873046875 696.168945312 465.873046875 703.001953125 493.206054688 703.001953125 c 0
 513.873046875 703.001953125 532.373046875 701.168945312 548.706054688 697.501953125 c 0
 565.0390625 693.834960938 580.206054688 687.834960938 594.206054688 679.501953125 c 0
 608.206054688 671.168945312 619.5390625 660.001953125 628.206054688 646.001953125 c 0
 636.873046875 632.001953125 644.040039062 614.501953125 649.70703125 593.501953125 c 0
 655.374023438 572.501953125 658.20703125 548.001953125 658.20703125 520.001953125 c 0
 658.20703125 492.001953125 655.540039062 459.001953125 650.20703125 421.001953125 c 0
 644.874023438 383.001953125 636.874023438 340.334960938 626.20703125 293.001953125 c 0
 620.874023438 269.001953125 614.041015625 246.168945312 605.708007812 224.501953125 c 0
 597.375 202.834960938 587.541992188 182.501953125 576.208984375 163.501953125 c 0
 564.875976562 144.501953125 551.708984375 129.501953125 536.708984375 118.501953125 c 0
 521.708984375 107.501953125 505.875976562 102.001953125 489.208984375 102.001953125 c 0xde
 450.840820312 102.001953125 431.657226562 122.662109375 431.657226562 163.981445312 c 0
 431.657226562 170.764648438 432.173828125 178.104492188 433.208007812 186.001953125 c 1
 408.541015625 140.668945312 376.208007812 118.001953125 336.208007812 118.001953125 c 0
 299.541015625 118.001953125 273.874023438 130.334960938 259.20703125 155.001953125 c 0
 251.140625 168.568359375 247.106445312 186.068359375 247.106445312 207.5 c 0
 247.106445312 225.03515625 249.806640625 245.202148438 255.20703125 268.002929688 c 0
 261.20703125 293.3359375 269.20703125 316.668945312 279.20703125 338.001953125 c 0
 289.20703125 359.334960938 300.374023438 377.501953125 312.70703125 392.501953125 c 0
 325.040039062 407.501953125 338.540039062 420.168945312 353.20703125 430.501953125 c 0
 367.874023438 440.834960938 382.70703125 448.16796875 397.70703125 452.500976562 c 0
 410.706054688 456.255859375 423.705078125 458.133789062 436.704101562 458.133789062 c 0
 442.70703125 458 l 0
 457.70703125 457.333007812 471.874023438 453.666015625 485.20703125 446.999023438 c 0
 498.540039062 440.999023438 508.20703125 432.999023438 514.20703125 422.999023438 c 0
 520.20703125 412.999023438 520.20703125 403.999023438 514.20703125 395.999023438 c 0
 510.874023438 390.666015625 507.20703125 386.333007812 503.20703125 383 c 0
 499.20703125 379.666992188 494.874023438 377.333984375 490.20703125 376.000976562 c 0
 485.540039062 374.66796875 481.373046875 373.66796875 477.706054688 373.000976562 c 0
 474.0390625 372.333984375 469.372070312 372.500976562 463.705078125 373.500976562 c 0
 458.038085938 374.500976562 453.705078125 375.333984375 450.705078125 376.000976562 c 0
 447.705078125 376.66796875 443.538085938 378.000976562 438.205078125 380.000976562 c 0
 430.872070312 381.333984375 423.0390625 381.666992188 414.706054688 381 c 0
 406.373046875 380.333007812 398.040039062 377.5 389.70703125 372.5 c 0
 381.374023438 367.5 373.374023438 361.166992188 365.70703125 353.5 c 0
 358.040039062 345.833007812 351.040039062 335.666015625 344.70703125 322.999023438 c 0
 338.374023438 310.33203125 333.20703125 295.999023438 329.20703125 279.999023438 c 0
 327.20703125 271.33203125 325.874023438 263.165039062 325.20703125 255.498046875 c 0
 324.540039062 247.831054688 324.373046875 239.1640625 324.706054688 229.497070312 c 0
 325.0390625 219.830078125 327.5390625 212.163085938 332.206054688 206.49609375 c 0
 336.873046875 200.829101562 343.540039062 197.99609375 352.20703125 197.99609375 c 0xbe
 371.540039062 197.99609375 387.20703125 206.163085938 399.20703125 222.49609375 c 0
 411.20703125 238.829101562 422.20703125 265.99609375 432.20703125 303.99609375 c 0
 434.874023438 314.663085938 444.874023438 323.330078125 462.20703125 329.997070312 c 0
 473.014648438 334.2421875 482.48046875 336.365234375 490.606445312 336.365234375 c 0
 496.516601562 336.365234375 501.716796875 335.2421875 506.208007812 332.997070312 c 0
 513.541015625 329.6640625 515.874023438 322.997070312 513.20703125 312.997070312 c 0
 501.20703125 277.6640625 493.874023438 250.1640625 491.20703125 230.497070312 c 0
 489.874023438 220.6640625 489.20703125 212.4140625 489.20703125 205.747070312 c 0
 489.20703125 199.080078125 489.874023438 193.997070312 491.20703125 190.497070312 c 0
 493.874023438 183.497070312 499.20703125 179.997070312 507.20703125 179.997070312 c 0
 512.540039062 179.997070312 518.040039062 184.330078125 523.70703125 192.997070312 c 0
 529.374023438 201.6640625 534.541015625 212.997070312 539.208007812 226.997070312 c 0
 543.875 240.997070312 547.708007812 253.330078125 550.708007812 263.997070312 c 0
 553.708007812 274.6640625 556.208007812 284.997070312 558.208007812 294.997070312 c 0
 566.208007812 328.997070312 572.208007812 360.330078125 576.208007812 388.997070312 c 0
 580.208007812 417.6640625 582.375 442.1640625 582.708007812 462.497070312 c 0
 582.741210938 464.529296875 582.7578125 466.541015625 582.7578125 468.533203125 c 0
 582.7578125 486.474609375 581.408203125 502.794921875 578.708007812 517.49609375 c 0
 575.708007812 533.829101562 572.375 547.162109375 568.708007812 557.495117188 c 0
 565.041015625 567.828125 559.708007812 576.661132812 552.708007812 583.994140625 c 0
 545.708007812 591.327148438 539.375 596.827148438 533.708007812 600.494140625 c 0
 528.041015625 604.161132812 521.208007812 606.994140625 513.208007812 608.994140625 c 0
 505.208007812 610.994140625 499.208007812 612.161132812 495.208007812 612.494140625 c 0
 491.208007812 612.827148438 486.208007812 612.994140625 480.208007812 612.994140625 c 0
 455.541015625 612.994140625 430.374023438 604.661132812 404.70703125 587.994140625 c 0
 379.040039062 571.327148438 354.70703125 548.16015625 331.70703125 518.493164062 c 0
 308.70703125 488.826171875 287.374023438 451.993164062 267.70703125 407.993164062 c 0
 248.040039062 363.993164062 232.20703125 315.993164062 220.20703125 263.993164062 c 0
 209.540039062 218.66015625 203.20703125 177.827148438 201.20703125 141.494140625 c 0
 200.661132812 131.5859375 200.388671875 122.198242188 200.388671875 113.330078125 c 0
 200.388671875 89.6826171875 202.328125 69.7373046875 206.20703125 53.4951171875 c 0
 211.540039062 31.162109375 219.373046875 12.3291015625 229.706054688 -3.00390625 c 0
 240.0390625 -18.3369140625 251.5390625 -29.00390625 264.206054688 -35.00390625 c 0
 276.873046875 -41.00390625 290.873046875 -44.00390625 306.206054688 -44.00390625 c 0
 322.206054688 -44.00390625 337.373046875 -42.3369140625 351.706054688 -39.00390625 c 0
 366.0390625 -35.6708984375 378.206054688 -31.6708984375 388.206054688 -27.00390625 c 0
 398.206054688 -22.3369140625 408.0390625 -16.00390625 417.706054688 -8.00390625 c 0
 427.373046875 -0.00390625 435.373046875 7.3291015625 441.706054688 13.99609375 c 0
 448.0390625 20.6630859375 455.206054688 29.330078125 463.206054688 39.9970703125 c 0
 466.5390625 44.6640625 469.372070312 48.3310546875 471.705078125 50.998046875 c 0
 474.038085938 53.6650390625 476.87109375 56.83203125 480.204101562 60.4990234375 c 0
 483.537109375 64.166015625 486.370117188 66.8330078125 488.703125 68.5 c 0
 491.036132812 70.1669921875 493.703125 71.6669921875 496.703125 73 c 0
 499.703125 74.3330078125 502.703125 75 505.703125 75 c 0
 508.703125 75 511.536132812 74.3330078125 514.203125 73 c 0
 518.870117188 71 522.370117188 68.5 524.703125 65.5 c 0
 527.036132812 62.5 528.703125 58.5 529.703125 53.5 c 0
 530.703125 48.5 529.870117188 41.8330078125 527.203125 33.5 c 0
 524.536132812 25.1669921875 519.869140625 15.6669921875 513.202148438 5 c 0xde
EndSplineSet
Validated: 524289
EndChar

StartChar: A
Encoding: 65 65 44
Width: 640
GlyphClass: 2
Flags: HMW
HStem: 251 81.0059
VStem: 485.088 91.501
LayerCount: 2
Fore
SplineSet
166.087890625 41 m 2
 155.420898438 20.3330078125 143.420898438 6.671875 130.087890625 0.0048828125 c 0
 122.680664062 -3.69921875 115.787109375 -5.55078125 109.408203125 -5.55078125 c 0
 104.305664062 -5.55078125 99.5322265625 -4.3662109375 95.087890625 -1.99609375 c 0
 84.89453125 3.6279296875 79.796875 13.330078125 79.796875 27.109375 c 0
 79.796875 39.4638671875 83.89453125 55.0947265625 92.087890625 74.00390625 c 0
 100.754882812 95.3369140625 130.754882812 147.336914062 182.087890625 230.00390625 c 1
 174.829101562 236.225585938 171.200195312 243.456054688 171.200195312 251.694335938 c 0
 171.200195312 254.048828125 171.49609375 256.485351562 172.088867188 259.00390625 c 0
 173.421875 268.336914062 179.421875 277.169921875 190.088867188 285.502929688 c 0
 200.755859375 293.8359375 213.088867188 300.3359375 227.088867188 305.002929688 c 1
 347.088867188 495.669921875 435.088867188 623.002929688 491.088867188 687.002929688 c 0
 503.088867188 700.3359375 513.421875 710.002929688 522.088867188 716.002929688 c 0
 530.755859375 722.002929688 539.422851562 725.002929688 548.08984375 725.002929688 c 0
 550.271484375 725.245117188 552.392578125 725.366210938 554.453125 725.366210938 c 0
 563.725585938 725.366210938 571.771484375 722.912109375 578.58984375 718.002929688 c 0
 585.7734375 712.830078125 589.365234375 704.4375 589.365234375 692.823242188 c 0
 589.365234375 690.965820312 589.2734375 689.025390625 589.08984375 687.002929688 c 0
 582.422851562 604.3359375 577.08984375 487.168945312 573.08984375 335.501953125 c 0
 571.58984375 278.625 570.83984375 230.819335938 570.83984375 192.083984375 c 0
 570.83984375 127.528320312 572.922851562 88.16796875 577.08984375 74.0009765625 c 0
 578.676757812 67.9697265625 579.470703125 62.203125 579.470703125 56.701171875 c 0
 579.470703125 50.6474609375 578.509765625 44.9140625 576.588867188 39.5009765625 c 0
 572.921875 29.16796875 567.754882812 20.5009765625 561.087890625 13.5009765625 c 0
 554.420898438 6.5009765625 547.087890625 1.333984375 539.087890625 -1.9990234375 c 0
 533.296875 -4.4365234375 527.750976562 -5.65625 522.447265625 -5.65625 c 0
 516.150390625 -5.65625 510.197265625 -3.9365234375 504.587890625 -0.4990234375 c 0
 494.254882812 5.833984375 487.754882812 19.6669921875 485.087890625 41 c 0
 484.021484375 49.2666015625 483.487304688 65.4267578125 483.487304688 89.4794921875 c 0
 483.487304688 125.559570312 484.6875 179.399414062 487.087890625 251 c 1
 407.087890625 247.666992188 334.754882812 240.666992188 270.087890625 230 c 1
 166.087890625 41 l 2
502.087890625 602.005859375 m 1
 464.754882812 557.338867188 404.087890625 462.672851562 320.087890625 318.005859375 c 1
 384.754882812 326.005859375 441.754882812 330.672851562 491.087890625 332.005859375 c 1
 502.087890625 602.005859375 l 1
EndSplineSet
Validated: 524289
EndChar

StartChar: B
Encoding: 66 66 45
Width: 640
GlyphClass: 2
Flags: HMW
HStem: -22.9961 21G<148.543 154.876> 297.005 72<337.21 341.209> 630.005 78.998<421.207 435.543>
LayerCount: 2
Fore
SplineSet
267.208007812 -14 m 0
 256.541015625 -14.6669921875 244.7109375 -15.662109375 231.7109375 -16.9951171875 c 0
 218.7109375 -18.328125 208.043945312 -19.328125 199.7109375 -19.9951171875 c 0
 191.377929688 -20.662109375 182.877929688 -21.3291015625 174.2109375 -21.99609375 c 0
 165.543945312 -22.6630859375 158.043945312 -22.99609375 151.7109375 -22.99609375 c 0
 145.377929688 -22.99609375 139.877929688 -22.3291015625 135.2109375 -20.99609375 c 2
 131.2109375 -20.99609375 l 2
 118.543945312 -20.99609375 109.376953125 -16.49609375 103.709960938 -7.49609375 c 0
 100.602539062 -2.560546875 99.048828125 3.427734375 99.048828125 10.4677734375 c 0
 99.048828125 16.265625 100.102539062 22.7783203125 102.209960938 30.00390625 c 0
 110.876953125 58.00390625 123.876953125 111.336914062 141.209960938 190.00390625 c 0
 158.54296875 268.670898438 175.54296875 349.670898438 192.209960938 433.00390625 c 0
 201.54296875 477.670898438 207.875976562 507.670898438 211.208984375 523.00390625 c 0
 214.541992188 538.336914062 219.708984375 559.00390625 226.708984375 585.00390625 c 0
 233.708984375 611.00390625 238.541992188 629.00390625 241.208984375 639.00390625 c 0
 245.875976562 657.00390625 253.708984375 670.50390625 264.708984375 679.50390625 c 0
 275.708984375 688.50390625 287.541992188 693.00390625 300.208984375 693.00390625 c 2
 303.208984375 693.00390625 l 2
 313.875976562 696.336914062 325.04296875 699.169921875 336.709960938 701.502929688 c 0
 348.376953125 703.8359375 358.876953125 705.502929688 368.209960938 706.502929688 c 0
 377.54296875 707.502929688 387.375976562 708.169921875 397.708984375 708.502929688 c 0
 408.041992188 708.8359375 415.875 709.002929688 421.208007812 709.002929688 c 2
 439.708007812 709.002929688 l 1
 450.208007812 709.002929688 l 2
 492.208007812 709.002929688 527.708007812 700.669921875 556.708007812 684.002929688 c 0
 585.708007812 667.3359375 606.208007812 643.168945312 618.208007812 611.501953125 c 0
 624.958007812 593.689453125 628.333007812 574.2421875 628.333007812 553.16015625 c 0
 628.333007812 536.762695312 626.291015625 519.376953125 622.208007812 501.001953125 c 0
 613.541015625 462.334960938 597.541015625 429.16796875 574.208007812 401.500976562 c 0
 550.875 373.833984375 523.208007812 353.666992188 491.208007812 341 c 1
 510.541015625 333.666992188 528.708007812 322.833984375 545.708007812 308.500976562 c 0
 562.708007812 294.16796875 575.875 278.16796875 585.208007812 260.500976562 c 0
 592.084960938 247.483398438 595.5234375 235.098632812 595.5234375 223.34765625 c 0
 595.5234375 219.151367188 595.084960938 215.036132812 594.208007812 211.000976562 c 0
 588.875 185.66796875 577.208007812 160.500976562 559.208007812 135.500976562 c 0
 541.208007812 110.500976562 518.375 87.66796875 490.708007812 67.0009765625 c 0
 463.041015625 46.333984375 429.708007812 28.6669921875 390.708007812 14 c 0
 351.708007812 -0.6669921875 310.541015625 -10 267.208007812 -14 c 0
430.2109375 630.004882812 m 0
 396.877929688 630.004882812 363.209960938 625.671875 329.209960938 617.004882812 c 1
 325.876953125 604.337890625 320.543945312 584.004882812 313.2109375 556.004882812 c 0
 305.877929688 528.004882812 298.377929688 498.337890625 290.7109375 467.004882812 c 0
 283.043945312 435.671875 275.543945312 403.671875 268.2109375 371.004882812 c 1
 296.877929688 369.671875 324.2109375 369.004882812 350.2109375 369.004882812 c 0
 368.877929688 369.004882812 386.377929688 370.671875 402.7109375 374.004882812 c 0
 419.043945312 377.337890625 433.043945312 381.670898438 444.7109375 387.00390625 c 0
 456.377929688 392.336914062 467.2109375 398.836914062 477.2109375 406.50390625 c 0
 487.2109375 414.170898438 495.543945312 422.00390625 502.2109375 430.00390625 c 0
 508.877929688 438.00390625 514.7109375 446.836914062 519.7109375 456.50390625 c 0
 524.7109375 466.170898438 528.543945312 474.837890625 531.2109375 482.504882812 c 0
 533.877929688 490.171875 536.2109375 498.338867188 538.2109375 507.005859375 c 0
 540.497070312 516.91015625 541.639648438 526.379882812 541.639648438 535.4140625 c 0
 541.639648438 542.189453125 540.997070312 548.719726562 539.7109375 555.005859375 c 0
 536.7109375 569.672851562 531.377929688 581.505859375 523.7109375 590.505859375 c 0
 516.043945312 599.505859375 506.7109375 607.172851562 495.7109375 613.505859375 c 0
 484.7109375 619.838867188 473.7109375 624.171875 462.7109375 626.504882812 c 0
 451.7109375 628.837890625 440.877929688 630.004882812 430.2109375 630.004882812 c 0
341.209960938 297.004882812 m 1
 295.876953125 297.004882812 266.208007812 296.670898438 252.208007812 296.00390625 c 1
 230.208007812 188.670898438 214.875 112.337890625 206.208007812 67.0048828125 c 1
 212.875 67.0048828125 224.041992188 67.337890625 239.708984375 68.0048828125 c 0
 255.375976562 68.671875 267.54296875 69.0048828125 276.209960938 69.0048828125 c 0
 304.876953125 70.337890625 332.876953125 75.6708984375 360.209960938 85.00390625 c 0
 387.54296875 94.3369140625 410.54296875 105.50390625 429.209960938 118.50390625 c 0
 447.876953125 131.50390625 463.376953125 145.170898438 475.709960938 159.50390625 c 0
 488.04296875 173.836914062 495.875976562 187.00390625 499.208984375 199.00390625 c 0
 501.208984375 207.670898438 499.708984375 216.337890625 494.708984375 225.004882812 c 0
 489.708984375 233.671875 481.541992188 242.671875 470.208984375 252.004882812 c 0
 458.875976562 261.337890625 442.04296875 270.004882812 419.709960938 278.004882812 c 0
 397.376953125 286.004882812 371.209960938 292.337890625 341.209960938 297.004882812 c 1
EndSplineSet
Validated: 524289
EndChar

StartChar: C
Encoding: 67 67 46
Width: 640
GlyphClass: 2
Flags: HMW
HStem: -31.002 90.0029<265.805 320.471> 632.001 80.9961<550.805 552.805>
VStem: 590.471 77
LayerCount: 2
Fore
SplineSet
546.47265625 64 m 0
 480.4921875 0.607421875 394.426757812 -31.0908203125 288.276367188 -31.0908203125 c 0
 285.026367188 -31.0908203125 281.758789062 -31.0615234375 278.471679688 -31.001953125 c 0
 253.138671875 -31.001953125 230.305664062 -26.3349609375 209.97265625 -17.001953125 c 0
 189.639648438 -7.6689453125 173.139648438 4.6640625 160.47265625 19.9970703125 c 0
 147.805664062 35.330078125 137.805664062 53.1630859375 130.47265625 73.49609375 c 0
 123.139648438 93.8291015625 119.139648438 115.49609375 118.47265625 138.49609375 c 0
 118.40625 140.796875 118.373046875 143.099609375 118.373046875 145.403320312 c 0
 118.373046875 166.1328125 121.073242188 186.997070312 126.47265625 207.99609375 c 0
 137.805664062 256.663085938 153.305664062 303.663085938 172.97265625 348.99609375 c 0
 192.639648438 394.329101562 214.639648438 435.329101562 238.97265625 471.99609375 c 0
 263.305664062 508.663085938 289.638671875 542.330078125 317.971679688 572.997070312 c 0
 346.3046875 603.6640625 374.471679688 629.1640625 402.471679688 649.497070312 c 0
 430.471679688 669.830078125 458.3046875 685.497070312 485.971679688 696.497070312 c 0
 513.638671875 707.497070312 539.138671875 712.997070312 562.471679688 712.997070312 c 0
 585.138671875 712.997070312 605.471679688 710.330078125 623.471679688 704.997070312 c 1
 628.138671875 714.997070312 634.638671875 723.1640625 642.971679688 729.497070312 c 0
 651.3046875 735.830078125 660.137695312 739.330078125 669.470703125 739.997070312 c 0
 680.137695312 741.997070312 689.8046875 739.497070312 698.471679688 732.497070312 c 0
 707.138671875 725.497070312 711.471679688 715.330078125 711.471679688 701.997070312 c 0
 711.471679688 691.997070312 710.8046875 682.1640625 709.471679688 672.497070312 c 0
 708.138671875 662.830078125 706.638671875 653.330078125 704.971679688 643.997070312 c 0
 703.3046875 634.6640625 701.8046875 626.997070312 700.471679688 620.997070312 c 0
 699.138671875 614.997070312 697.471679688 607.997070312 695.471679688 599.997070312 c 0
 693.471679688 591.997070312 692.138671875 586.997070312 691.471679688 584.997070312 c 0
 688.138671875 570.997070312 680.138671875 556.830078125 667.471679688 542.497070312 c 0
 654.8046875 528.1640625 643.137695312 520.331054688 632.470703125 518.998046875 c 0
 630.1484375 518.611328125 627.875976562 518.416992188 625.653320312 518.416992188 c 0
 616.391601562 518.416992188 607.997070312 521.77734375 600.470703125 528.498046875 c 0
 593.211914062 534.979492188 589.583007812 543.174804688 589.583007812 553.083007812 c 0
 589.583007812 555.915039062 589.87890625 558.88671875 590.471679688 561.998046875 c 0
 591.8046875 567.331054688 595.8046875 581.331054688 602.471679688 603.998046875 c 0
 601.8046875 604.665039062 599.3046875 606.83203125 594.971679688 610.499023438 c 0
 590.638671875 614.166015625 587.471679688 616.833007812 585.471679688 618.5 c 0
 583.471679688 620.166992188 580.3046875 622.333984375 575.971679688 625.000976562 c 0
 571.638671875 627.66796875 567.471679688 629.500976562 563.471679688 630.500976562 c 0
 559.471679688 631.500976562 555.138671875 632.000976562 550.471679688 632.000976562 c 0
 531.138671875 632.000976562 508.971679688 625.333984375 483.971679688 612.000976562 c 0
 458.971679688 598.66796875 433.471679688 579.66796875 407.471679688 555.000976562 c 0
 381.471679688 530.333984375 356.638671875 502.000976562 332.971679688 470.000976562 c 0
 309.3046875 438.000976562 287.8046875 401.833984375 268.471679688 361.500976562 c 0
 249.138671875 321.16796875 235.138671875 280.66796875 226.471679688 240.000976562 c 0
 222.430664062 222.22265625 220.41015625 204.688476562 220.41015625 187.399414062 c 0
 220.41015625 176.163085938 221.263671875 165.030273438 222.970703125 154.000976562 c 0
 227.303710938 126.000976562 237.303710938 103.16796875 252.970703125 85.5009765625 c 0
 268.637695312 67.833984375 287.8046875 59.0009765625 310.471679688 59.0009765625 c 0
 330.471679688 59.0009765625 350.471679688 61.16796875 370.471679688 65.5009765625 c 0
 390.471679688 69.833984375 408.8046875 75.5009765625 425.471679688 82.5009765625 c 0
 442.138671875 89.5009765625 456.805664062 96.5009765625 469.47265625 103.500976562 c 0
 482.139648438 110.500976562 494.139648438 118.000976562 505.47265625 126.000976562 c 0
 514.805664062 132.000976562 522.805664062 136.66796875 529.47265625 140.000976562 c 0
 536.139648438 143.333984375 542.97265625 145.000976562 549.97265625 145.000976562 c 0
 556.97265625 145.000976562 562.805664062 142.66796875 567.47265625 138.000976562 c 0
 574.260742188 131.212890625 577.654296875 123.631835938 577.654296875 115.256835938 c 0
 577.654296875 100.600585938 567.260742188 83.515625 546.47265625 64 c 0
EndSplineSet
Validated: 524289
EndChar

StartChar: D
Encoding: 68 68 47
Width: 640
GlyphClass: 2
Flags: HMW
HStem: -31 85.998<345.653 357.323> 694.001 20G<283.321 293.654>
LayerCount: 2
Fore
SplineSet
344.65625 -31 m 0
 313.989257812 -31 284.15234375 -29.5 255.15234375 -26.5 c 0
 226.15234375 -23.5 203.319335938 -20 186.65234375 -16 c 0
 169.985351562 -12 155.485351562 -8.3330078125 143.15234375 -5 c 0
 130.819335938 -1.6669921875 123.65234375 0 121.65234375 0 c 0
 108.985351562 0 99.818359375 4.5 94.1513671875 13.5 c 0
 91.0439453125 18.435546875 89.490234375 24.423828125 89.490234375 31.4638671875 c 0
 89.490234375 37.26171875 90.5439453125 43.7744140625 92.6513671875 51 c 0
 101.984375 83 115.651367188 139.833007812 133.651367188 221.5 c 0
 151.651367188 303.166992188 170.318359375 391.666992188 189.651367188 487 c 0
 197.651367188 524.333007812 202.984375 548.833007812 205.651367188 560.5 c 0
 208.318359375 572.166992188 212.985351562 590.333984375 219.65234375 615.000976562 c 0
 226.319335938 639.66796875 230.319335938 654.66796875 231.65234375 660.000976562 c 0
 236.319335938 678.000976562 243.986328125 691.500976562 254.653320312 700.500976562 c 0
 265.3203125 709.500976562 276.987304688 714.000976562 289.654296875 714.000976562 c 0
 297.654296875 714.000976562 307.654296875 713.333984375 319.654296875 712.000976562 c 0
 331.654296875 710.66796875 347.154296875 708.000976562 366.154296875 704.000976562 c 0
 385.154296875 700.000976562 404.154296875 694.500976562 423.154296875 687.500976562 c 0
 442.154296875 680.500976562 461.987304688 670.66796875 482.654296875 658.000976562 c 0
 503.321289062 645.333984375 522.321289062 630.666992188 539.654296875 614 c 0
 556.987304688 597.333007812 572.8203125 576.5 587.153320312 551.5 c 0
 601.486328125 526.5 612.486328125 499.166992188 620.153320312 469.5 c 0
 627.20703125 442.20703125 630.733398438 410.119140625 630.733398438 373.235351562 c 0
 630.733398438 370.026367188 630.70703125 366.78125 630.653320312 363.5 c 0
 629.986328125 322.5 623.986328125 278.333007812 612.653320312 231 c 0
 607.3203125 207.666992188 598.987304688 184 587.654296875 160 c 0
 576.321289062 136 561.98828125 112.5 544.655273438 89.5 c 0
 527.322265625 66.5 508.489257812 46 488.15625 28 c 0
 467.823242188 10 445.15625 -4.3330078125 420.15625 -15 c 0
 395.15625 -25.6669921875 369.989257812 -31 344.65625 -31 c 0
248.65234375 348 m 0
 242.65234375 319.333007812 233.8203125 276.165039062 222.153320312 218.498046875 c 0
 210.486328125 160.831054688 201.986328125 117.331054688 196.653320312 87.998046875 c 1
 219.3203125 75.998046875 243.8203125 67.498046875 270.153320312 62.498046875 c 0
 296.486328125 57.498046875 327.653320312 54.998046875 363.653320312 54.998046875 c 0
 380.986328125 54.998046875 398.653320312 61.1650390625 416.653320312 73.498046875 c 0
 434.653320312 85.8310546875 450.986328125 101.831054688 465.653320312 121.498046875 c 0
 480.3203125 141.165039062 493.3203125 162.83203125 504.653320312 186.499023438 c 0
 515.986328125 210.166015625 524.319335938 233.333007812 529.65234375 256 c 0
 537.21484375 289.063476562 540.99609375 320.0625 540.99609375 348.99609375 c 0
 540.99609375 429.743164062 511.547851562 494.411132812 452.65234375 543 c 0
 423.985351562 566.333007812 380.65234375 590.333007812 322.65234375 615 c 1
 322.65234375 616 l 1
 321.65234375 616 l 1
 320.65234375 616 l 1
 319.65234375 617 l 1
 318.65234375 617 l 1
 317.65234375 618 l 1
 316.65234375 618 l 1
 315.65234375 618 l 1
 315.65234375 619 l 1
 314.65234375 619 l 1
 313.65234375 619 l 1
 312.65234375 620 l 1
 311.65234375 620 l 1
 310.65234375 620 l 1
 310.65234375 621 l 1
 288.65234375 534.333007812 267.985351562 443.333007812 248.65234375 348 c 0
EndSplineSet
Validated: 524289
EndChar

StartChar: E
Encoding: 69 69 48
Width: 640
GlyphClass: 2
Flags: HMW
HStem: -17.498 87.4961 -6 90.4971 312.001 85.999<250.403 292.074> 332.001 80.999<564.737 596.739> 614.501 82.5
LayerCount: 2
Fore
SplineSet
499.40234375 -6 m 0x48
 497.4609375 -5.87890625 494.967773438 -5.818359375 491.921875 -5.818359375 c 0
 478.234375 -5.818359375 453.396484375 -7.0439453125 417.405273438 -9.498046875 c 0
 373.405273438 -12.498046875 325.405273438 -15.1650390625 273.405273438 -17.498046875 c 0
 245.404296875 -18.75390625 220.8828125 -19.3828125 199.840820312 -19.3828125 c 0
 181.806640625 -19.3828125 166.328125 -18.9208984375 153.405273438 -17.998046875 c 0
 139.405273438 -17.3310546875 127.072265625 -9.8310546875 116.405273438 4.501953125 c 0
 107.422851562 16.5712890625 102.931640625 30.8876953125 102.931640625 47.44921875 c 0
 102.931640625 50.5546875 103.08984375 53.73828125 103.405273438 57.001953125 c 0
 105.405273438 74.3349609375 111.572265625 105.501953125 121.905273438 150.501953125 c 0
 132.23828125 195.501953125 143.571289062 243.334960938 155.904296875 294.001953125 c 0
 168.237304688 344.668945312 180.737304688 401.668945312 193.404296875 465.001953125 c 0
 202.071289062 505.001953125 207.904296875 531.501953125 210.904296875 544.501953125 c 0
 213.904296875 557.501953125 218.737304688 576.668945312 225.404296875 602.001953125 c 0
 232.071289062 627.334960938 236.404296875 643.001953125 238.404296875 649.001953125 c 0
 243.071289062 667.001953125 250.73828125 680.668945312 261.405273438 690.001953125 c 0
 272.072265625 699.334960938 283.739257812 704.001953125 296.40625 704.001953125 c 0
 297.284179688 704.037109375 298.146484375 704.0546875 298.994140625 704.0546875 c 0
 314.251953125 704.0546875 324.721679688 698.370117188 330.40625 687.001953125 c 1
 367.073242188 692.334960938 409.240234375 695.66796875 456.907226562 697.000976562 c 0
 480.740234375 697.66796875 503.157226562 698.000976562 524.157226562 698.000976562 c 0
 545.157226562 698.000976562 564.740234375 697.666992188 582.907226562 697.000976562 c 0
 619.240234375 695.66796875 647.740234375 693.66796875 668.407226562 691.000976562 c 0
 682.407226562 689.000976562 691.740234375 685.000976562 696.407226562 679.000976562 c 0
 701.07421875 673.000976562 702.07421875 664.66796875 699.407226562 654.000976562 c 0
 698.07421875 648.000976562 696.241210938 642.333984375 693.908203125 637.000976562 c 0
 691.575195312 631.66796875 688.575195312 626.834960938 684.908203125 622.501953125 c 0
 681.241210938 618.168945312 676.408203125 614.668945312 670.408203125 612.001953125 c 0
 664.408203125 609.334960938 657.408203125 608.66796875 649.408203125 610.000976562 c 0
 607.1640625 613.439453125 564.376953125 615.159179688 521.047851562 615.159179688 c 0
 505.5703125 615.159179688 490.024414062 614.939453125 474.409179688 614.500976562 c 0
 415.076171875 612.833984375 363.409179688 608.666992188 319.409179688 602 c 1
 300.7421875 532.666992188 284.075195312 464.666992188 269.408203125 398 c 1xa8
 314.741210938 398 377.07421875 400.5 456.407226562 405.5 c 0
 535.740234375 410.5 580.073242188 413 589.40625 413 c 0
 604.073242188 413 613.573242188 409.666992188 617.90625 403 c 0
 622.239257812 396.333007812 623.072265625 387 620.405273438 375 c 0
 613.88671875 346.319335938 597.807617188 331.978515625 572.16796875 331.978515625 c 0
 571.584960938 331.978515625 570.997070312 331.986328125 570.404296875 332.000976562 c 0x18
 559.071289062 332.000976562 510.571289062 328.66796875 424.904296875 322.000976562 c 0
 339.237304688 315.333984375 281.0703125 312.000976562 250.403320312 312.000976562 c 1
 247.0703125 297.333984375 242.737304688 278.166992188 237.404296875 254.5 c 0
 232.071289062 230.833007812 227.571289062 210.5 223.904296875 193.5 c 0
 220.237304688 176.5 216.5703125 159 212.903320312 141 c 0
 209.236328125 123 206.569335938 108.166992188 204.90234375 96.5 c 0
 203.235351562 84.8330078125 202.735351562 76.666015625 203.40234375 71.9990234375 c 1
 211.958984375 69.2763671875 231.916015625 67.9150390625 263.274414062 67.9150390625 c 0
 285.668945312 67.9150390625 313.87890625 68.609375 347.903320312 69.998046875 c 0xa8
 429.5703125 73.3310546875 482.403320312 77.6640625 506.403320312 82.9970703125 c 0
 515.736328125 84.330078125 523.569335938 84.830078125 529.90234375 84.4970703125 c 0
 536.235351562 84.1640625 541.40234375 82.8310546875 545.40234375 80.498046875 c 0
 549.40234375 78.1650390625 552.40234375 75.6650390625 554.40234375 72.998046875 c 0
 556.40234375 70.3310546875 557.735351562 66.8310546875 558.40234375 62.498046875 c 0
 559.069335938 58.1650390625 559.40234375 54.33203125 559.40234375 50.9990234375 c 0
 559.40234375 47.666015625 559.069335938 44.3330078125 558.40234375 41 c 0
 555.735351562 28.3330078125 549.235351562 17 538.90234375 7 c 0
 529.78515625 -1.8232421875 518.4609375 -6.2353515625 504.930664062 -6.2353515625 c 0
 503.126953125 -6.2353515625 501.284179688 -6.1572265625 499.40234375 -6 c 0x48
EndSplineSet
Validated: 524289
EndChar

StartChar: F
Encoding: 70 70 49
Width: 640
GlyphClass: 2
Flags: HMW
HStem: 316 86.002 619.002 86.999
LayerCount: 2
Fore
SplineSet
192.013671875 24 m 0
 187.346679688 10 178.513671875 -1.166015625 165.513671875 -9.4990234375 c 0
 153.477539062 -17.21484375 141.297851562 -21.072265625 128.975585938 -21.072265625 c 0
 127.989257812 -21.072265625 127.001953125 -21.0478515625 126.013671875 -20.998046875 c 0
 113.346679688 -20.998046875 104.1796875 -16.498046875 98.5126953125 -7.498046875 c 0
 95.4052734375 -2.5625 93.8515625 3.42578125 93.8515625 10.4658203125 c 0
 93.8515625 16.263671875 94.9052734375 22.7763671875 97.0126953125 30.001953125 c 0
 105.6796875 59.3349609375 119.1796875 115.501953125 137.512695312 198.501953125 c 0
 155.845703125 281.501953125 173.678710938 367.001953125 191.01171875 455.001953125 c 0
 200.344726562 499.668945312 206.844726562 529.668945312 210.51171875 545.001953125 c 0
 214.178710938 560.334960938 219.51171875 581.001953125 226.51171875 607.001953125 c 0
 233.51171875 633.001953125 238.344726562 650.668945312 241.01171875 660.001953125 c 0
 245.678710938 678.001953125 253.345703125 691.501953125 264.012695312 700.501953125 c 0
 274.6796875 709.501953125 286.346679688 714.001953125 299.013671875 714.001953125 c 0
 300.6640625 714.12890625 302.262695312 714.192382812 303.810546875 714.192382812 c 0
 318.516601562 714.192382812 328.584960938 708.461914062 334.013671875 697.000976562 c 1
 396.013671875 701.66796875 458.013671875 704.66796875 520.013671875 706.000976562 c 0
 535.512695312 706.333984375 550.283203125 706.500976562 564.32421875 706.500976562 c 0
 606.450195312 706.500976562 642.012695312 705.000976562 671.013671875 702.000976562 c 0
 685.013671875 700.66796875 694.180664062 696.834960938 698.513671875 690.501953125 c 0
 702.846679688 684.168945312 704.013671875 675.3359375 702.013671875 664.002929688 c 0
 699.346679688 651.3359375 693.513671875 640.668945312 684.513671875 632.001953125 c 0
 675.513671875 623.334960938 663.346679688 619.001953125 648.013671875 619.001953125 c 0
 613.694335938 620.856445312 578.166015625 621.784179688 541.426757812 621.784179688 c 0
 472.541992188 621.784179688 399.404296875 618.5234375 322.012695312 612.001953125 c 1
 319.345703125 600.668945312 314.678710938 582.501953125 308.01171875 557.501953125 c 0
 301.344726562 532.501953125 294.844726562 507.001953125 288.51171875 481.001953125 c 0
 282.178710938 455.001953125 276.01171875 428.668945312 270.01171875 402.001953125 c 1
 298.58203125 405.430664062 329.845703125 407.14453125 363.803710938 407.14453125 c 0
 369.46484375 407.14453125 375.201171875 407.09765625 381.01171875 407.001953125 c 0
 421.678710938 406.334960938 458.01171875 404.501953125 490.01171875 401.501953125 c 0
 522.01171875 398.501953125 547.344726562 395.334960938 566.01171875 392.001953125 c 0
 580.01171875 389.334960938 589.178710938 385.001953125 593.51171875 379.001953125 c 0
 597.844726562 373.001953125 599.01171875 364.668945312 597.01171875 354.001953125 c 0
 595.678710938 348.001953125 593.845703125 342.501953125 591.512695312 337.501953125 c 0
 589.1796875 332.501953125 586.012695312 327.668945312 582.012695312 323.001953125 c 0
 578.012695312 318.334960938 573.1796875 314.834960938 567.512695312 312.501953125 c 0
 561.845703125 310.168945312 555.012695312 309.3359375 547.012695312 310.002929688 c 0
 529.012695312 313.3359375 503.345703125 316.168945312 470.012695312 318.501953125 c 0
 436.6796875 320.834960938 398.846679688 322.16796875 356.513671875 322.500976562 c 0
 353.694335938 322.5234375 350.90625 322.534179688 348.150390625 322.534179688 c 0
 309.528320312 322.534179688 277.1484375 320.356445312 251.013671875 316 c 1
 215.013671875 139.333007812 195.346679688 42 192.013671875 24 c 0
EndSplineSet
Validated: 524289
EndChar

StartChar: G
Encoding: 71 71 50
Width: 640
GlyphClass: 2
Flags: HMW
HStem: -30.9971 89.9971<265.032 316.032> 643.002 80.999<552.031 557.363>
LayerCount: 2
Fore
SplineSet
587.700195312 244 m 0
 583.033203125 230 575.366210938 213.669921875 564.69921875 195.002929688 c 0
 554.032226562 176.3359375 541.19921875 156.502929688 526.19921875 135.502929688 c 0
 511.19921875 114.502929688 494.032226562 94.169921875 474.69921875 74.5029296875 c 0
 455.366210938 54.8359375 435.366210938 37.0029296875 414.69921875 21.0029296875 c 0
 394.032226562 5.0029296875 371.532226562 -7.830078125 347.19921875 -17.4970703125 c 0
 324.436523438 -26.5400390625 302.694335938 -31.0615234375 281.973632812 -31.0615234375 c 0
 280.543945312 -31.0615234375 279.119140625 -31.0400390625 277.69921875 -30.9970703125 c 0
 252.366210938 -30.9970703125 229.533203125 -26.330078125 209.200195312 -16.9970703125 c 0
 188.8671875 -7.6640625 172.3671875 4.6689453125 159.700195312 20.001953125 c 0
 147.033203125 35.3349609375 137.033203125 53.16796875 129.700195312 73.5009765625 c 0
 122.3671875 93.833984375 118.3671875 115.500976562 117.700195312 138.500976562 c 0
 117.625976562 141.057617188 117.588867188 143.616210938 117.588867188 146.177734375 c 0
 117.588867188 166.653320312 119.958984375 187.26171875 124.69921875 208.000976562 c 0
 136.032226562 257.333984375 151.865234375 305.333984375 172.198242188 352.000976562 c 0
 192.53125 398.66796875 214.698242188 440.66796875 238.698242188 478.000976562 c 0
 262.698242188 515.333984375 289.03125 549.500976562 317.698242188 580.500976562 c 0
 346.365234375 611.500976562 374.865234375 637.500976562 403.198242188 658.500976562 c 0
 431.53125 679.500976562 459.53125 695.66796875 487.198242188 707.000976562 c 0
 514.865234375 718.333984375 540.365234375 724.000976562 563.698242188 724.000976562 c 0
 589.698242188 724.000976562 617.198242188 717.500976562 646.198242188 704.500976562 c 0
 675.198242188 691.500976562 693.03125 680.333984375 699.698242188 671.000976562 c 0
 704.57421875 664.295898438 707.012695312 656.685546875 707.012695312 648.169921875 c 0
 707.012695312 638.056640625 703.57421875 626.666992188 696.698242188 614.000976562 c 0
 692.698242188 605.333984375 685.53125 599.000976562 675.198242188 595.000976562 c 0
 664.865234375 591.000976562 655.365234375 591.000976562 646.698242188 595.000976562 c 0
 643.365234375 596.333984375 635.865234375 601.333984375 624.198242188 610.000976562 c 0
 612.53125 618.66796875 600.364257812 626.334960938 587.697265625 633.001953125 c 0
 575.030273438 639.668945312 563.030273438 643.001953125 551.697265625 643.001953125 c 0
 532.364257812 643.001953125 510.03125 636.168945312 484.698242188 622.501953125 c 0
 459.365234375 608.834960938 433.698242188 589.16796875 407.698242188 563.500976562 c 0
 381.698242188 537.833984375 356.698242188 508.666992188 332.698242188 476 c 0
 308.698242188 443.333007812 287.03125 406.333007812 267.698242188 365 c 0
 248.365234375 323.666992188 234.032226562 282 224.69921875 240 c 0
 220.658203125 222.221679688 218.637695312 204.6875 218.637695312 187.3984375 c 0
 218.637695312 176.162109375 219.491210938 165.029296875 221.198242188 154 c 0
 225.53125 126 235.53125 103.166992188 251.198242188 85.5 c 0
 266.865234375 67.8330078125 286.032226562 59 308.69921875 59 c 0
 323.366210938 59 339.866210938 64.1669921875 358.19921875 74.5 c 0
 376.532226562 84.8330078125 393.865234375 98 410.198242188 114 c 0
 426.53125 130 442.53125 148 458.198242188 168 c 0
 473.865234375 188 487.532226562 207.333007812 499.19921875 226 c 0
 510.866210938 244.666992188 520.366210938 262 527.69921875 278 c 1
 488.366210938 276 449.366210938 272.333007812 410.69921875 267 c 0
 372.032226562 261.666992188 344.69921875 254.666992188 328.69921875 246 c 0
 323.014648438 243.158203125 317.779296875 241.736328125 312.9921875 241.736328125 c 0
 307.673828125 241.736328125 302.91015625 243.491210938 298.69921875 247 c 0
 290.69921875 253.666992188 287.366210938 262.666992188 288.69921875 274 c 0
 290.69921875 299.333007812 307.032226562 319 337.69921875 333 c 0
 357.69921875 342.333007812 397.19921875 349.5 456.19921875 354.5 c 0
 498.341796875 358.071289062 533.9375 359.857421875 562.985351562 359.857421875 c 0
 574.604492188 359.857421875 585.17578125 359.571289062 594.69921875 359 c 0
 610.032226562 358.333007812 620.032226562 355.5 624.69921875 350.5 c 0
 629.366210938 345.5 631.366210938 337.666992188 630.69921875 327 c 0
 628.032226562 302.333007812 618.032226562 287 600.69921875 281 c 0
 600.032226562 279 598.032226562 273.666992188 594.69921875 265 c 0
 591.366210938 256.333007812 589.033203125 249.333007812 587.700195312 244 c 0
EndSplineSet
Validated: 524289
EndChar

StartChar: H
Encoding: 72 72 51
Width: 640
GlyphClass: 2
Flags: HMW
HStem: 311.999 86.001<265.288 302.62>
LayerCount: 2
Fore
SplineSet
539.290039062 24 m 0
 534.623046875 10 525.958007812 -1.16796875 513.291015625 -9.5009765625 c 0
 501.5625 -17.216796875 489.548828125 -21.07421875 477.25 -21.07421875 c 0
 476.265625 -21.07421875 475.279296875 -21.0498046875 474.291015625 -21 c 0
 461.624023438 -21 452.45703125 -16.5 446.790039062 -7.5 c 0
 443.682617188 -2.564453125 442.12890625 3.423828125 442.12890625 10.4638671875 c 0
 442.12890625 16.26171875 443.182617188 22.7744140625 445.290039062 30 c 0
 472.623046875 122.666992188 499.290039062 226.666992188 525.290039062 342 c 1
 514.623046875 341.333007812 475.456054688 336.166015625 407.7890625 326.499023438 c 0
 340.122070312 316.83203125 292.622070312 311.999023438 265.2890625 311.999023438 c 0
 264.622070312 309.999023438 263.622070312 306.499023438 262.2890625 301.499023438 c 0
 260.956054688 296.499023438 259.956054688 292.999023438 259.2890625 290.999023438 c 0
 240.622070312 224.999023438 219.955078125 135.999023438 197.288085938 23.9990234375 c 0
 192.62109375 9.9990234375 183.788085938 -1.16796875 170.788085938 -9.5009765625 c 0
 158.751953125 -17.216796875 146.858398438 -21.07421875 135.107421875 -21.07421875 c 0
 134.166992188 -21.07421875 133.2265625 -21.0498046875 132.288085938 -21 c 0
 120.288085938 -21 111.12109375 -16.5 104.788085938 -7.5 c 0
 101.350585938 -2.6142578125 99.630859375 3.302734375 99.630859375 10.251953125 c 0
 99.630859375 16.1025390625 100.850585938 22.685546875 103.288085938 30 c 0
 105.955078125 39.3330078125 109.955078125 54.3330078125 115.288085938 75 c 0
 120.62109375 95.6669921875 127.288085938 123.333984375 135.288085938 158.000976562 c 0
 143.288085938 192.66796875 150.62109375 224.000976562 157.288085938 252.000976562 c 0
 162.62109375 274.66796875 170.788085938 307.16796875 181.788085938 349.500976562 c 0
 192.788085938 391.833984375 200.62109375 423.166992188 205.288085938 443.5 c 2
 226.288085938 535 l 2
 232.288085938 565 236.288085938 584.166992188 238.288085938 592.5 c 0
 240.288085938 600.833007812 243.288085938 612.333007812 247.288085938 627 c 2
 256.288085938 660 l 2
 260.955078125 678 268.788085938 691.5 279.788085938 700.5 c 0
 290.788085938 709.5 302.62109375 714 315.288085938 714 c 0
 316.325195312 714.049804688 317.34375 714.07421875 318.342773438 714.07421875 c 0
 330.825195312 714.07421875 340.306640625 710.216796875 346.788085938 702.500976562 c 0
 351.2421875 697.198242188 353.469726562 689.9375 353.469726562 680.719726562 c 0
 353.469726562 675.453125 352.7421875 669.546875 351.288085938 663.000976562 c 0
 349.955078125 656.333984375 345.788085938 642.000976562 338.788085938 620.000976562 c 0
 331.788085938 598.000976562 326.288085938 577.66796875 322.288085938 559.000976562 c 0
 318.288085938 541.66796875 312.455078125 515.16796875 304.788085938 479.500976562 c 0
 297.12109375 443.833984375 290.954101562 416.666992188 286.287109375 398 c 1
 318.954101562 398 352.954101562 400 388.287109375 404 c 0
 423.620117188 408 455.620117188 412 484.287109375 416 c 0
 512.954101562 420 532.954101562 422.666992188 544.287109375 424 c 1
 544.954101562 428.666992188 546.12109375 435.5 547.788085938 444.5 c 0
 549.455078125 453.5 550.955078125 460.333007812 552.288085938 465 c 0
 561.62109375 506.333007812 567.62109375 533.666015625 570.288085938 546.999023438 c 0
 572.955078125 560.33203125 577.955078125 580.999023438 585.288085938 608.999023438 c 0
 592.62109375 636.999023438 597.288085938 653.999023438 599.288085938 659.999023438 c 0
 603.955078125 677.999023438 611.622070312 691.499023438 622.2890625 700.499023438 c 0
 632.956054688 709.499023438 644.623046875 713.999023438 657.290039062 713.999023438 c 0
 658.327148438 714.048828125 659.345703125 714.073242188 660.344726562 714.073242188 c 0
 672.827148438 714.073242188 682.30859375 710.215820312 688.790039062 702.5 c 0
 693.244140625 697.197265625 695.471679688 689.936523438 695.471679688 680.71875 c 0
 695.471679688 675.452148438 694.744140625 669.545898438 693.290039062 663 c 0
 690.623046875 650.333007812 684.290039062 624.333007812 674.290039062 585 c 0
 664.290039062 545.666992188 655.790039062 511.166992188 648.790039062 481.5 c 0
 641.790039062 451.833007812 632.290039062 409 620.290039062 353 c 0
 610.95703125 306.333007812 596.290039062 245 576.290039062 169 c 0
 556.290039062 93 543.95703125 44.6669921875 539.290039062 24 c 0
EndSplineSet
Validated: 524289
EndChar

StartChar: I
Encoding: 73 73 52
Width: 640
GlyphClass: 2
Flags: HMW
HStem: -13.998 80.001 -6.49902 77.999 612.001 89.001 625.002 82.999<276.727 303.394 295.061 303.394 295.061 419.393>
LayerCount: 2
Fore
SplineSet
509.400390625 -11 m 0x60
 494.067382812 -8.3330078125 468.221679688 -6.83203125 431.888671875 -6.4990234375 c 0x60
 424.625976562 -6.4326171875 417.383789062 -6.3994140625 410.161132812 -6.3994140625 c 0
 381.250976562 -6.3994140625 352.66015625 -6.9326171875 324.389648438 -7.9990234375 c 0
 289.056640625 -9.33203125 251.723632812 -10.6650390625 212.390625 -11.998046875 c 0
 173.057617188 -13.3310546875 145.724609375 -13.998046875 130.391601562 -13.998046875 c 0
 114.391601562 -13.998046875 103.224609375 -10.6650390625 96.8916015625 -3.998046875 c 0
 90.55859375 2.6689453125 88.7255859375 11.3359375 91.392578125 22.0029296875 c 0
 93.392578125 34.0029296875 99.0595703125 44.169921875 108.392578125 52.5029296875 c 0
 117.725585938 60.8359375 130.392578125 65.3359375 146.392578125 66.0029296875 c 0
 173.059570312 67.3359375 219.059570312 69.0029296875 284.392578125 71.0029296875 c 1
 317.059570312 185.002929688 346.7265625 305.669921875 373.393554688 433.002929688 c 0
 378.060546875 457.002929688 382.893554688 479.669921875 387.893554688 501.002929688 c 0
 392.893554688 522.3359375 396.393554688 537.668945312 398.393554688 547.001953125 c 0
 400.393554688 556.334960938 404.2265625 570.834960938 409.893554688 590.501953125 c 0
 415.560546875 610.168945312 418.727539062 621.668945312 419.39453125 625.001953125 c 1
 391.39453125 625.66796875 366.14453125 626.001953125 343.64453125 626.001953125 c 0
 321.14453125 626.001953125 301.39453125 625.66796875 284.39453125 625.001953125 c 0
 269.061523438 625.001953125 258.228515625 628.668945312 251.895507812 636.001953125 c 0
 245.5625 643.334960938 243.395507812 652.66796875 245.395507812 664.000976562 c 0
 247.395507812 676.000976562 253.395507812 686.333984375 263.395507812 695.000976562 c 0
 273.395507812 703.66796875 286.728515625 708.000976562 303.395507812 708.000976562 c 0x90
 355.62109375 709.556640625 403.995117188 710.334960938 448.516601562 710.334960938 c 0
 537.548828125 710.334960938 611.17578125 707.223632812 669.395507812 701.001953125 c 0
 692.090820312 698.732421875 703.438476562 688.495117188 703.438476562 670.291015625 c 0
 703.438476562 667.104492188 703.090820312 663.674804688 702.395507812 660.000976562 c 0
 701.0625 654.000976562 698.895507812 648.16796875 695.895507812 642.500976562 c 0
 692.895507812 636.833984375 689.228515625 631.333984375 684.895507812 626.000976562 c 0
 680.5625 620.66796875 675.0625 616.500976562 668.395507812 613.500976562 c 0
 661.728515625 610.500976562 654.395507812 610.000976562 646.395507812 612.000976562 c 0
 629.0625 615.333984375 584.729492188 619.000976562 513.396484375 623.000976562 c 1
 512.063476562 617.66796875 508.23046875 602.66796875 501.897460938 578.000976562 c 0
 495.564453125 553.333984375 490.564453125 533.666992188 486.897460938 519 c 0
 483.23046875 504.333007812 478.397460938 483.333007812 472.397460938 456 c 0
 466.397460938 428.666992188 460.397460938 401.666992188 454.397460938 375 c 0
 444.397460938 327.666992188 430.23046875 268.666992188 411.897460938 198 c 0
 393.564453125 127.333007812 382.731445312 85.3330078125 379.3984375 72 c 1
 406.731445312 72 437.731445312 71.8330078125 472.3984375 71.5 c 0
 507.065429688 71.1669921875 525.732421875 71 528.399414062 71 c 0
 543.06640625 71 552.399414062 67.5 556.399414062 60.5 c 0
 560.399414062 53.5 561.399414062 44.3330078125 559.399414062 33 c 0
 558.06640625 27 556.399414062 21.5 554.399414062 16.5 c 0
 552.399414062 11.5 549.399414062 6.5 545.399414062 1.5 c 0
 541.399414062 -3.5 536.232421875 -7.1669921875 529.899414062 -9.5 c 0
 523.56640625 -11.8330078125 516.733398438 -12.3330078125 509.400390625 -11 c 0x60
EndSplineSet
Validated: 524289
EndChar

StartChar: J
Encoding: 74 74 53
Width: 640
GlyphClass: 2
Flags: HMW
HStem: -35.001 101.001<296.943 304.276> 625 82.999<279.61 305.276>
VStem: 123.276 87.501 136.277 77
LayerCount: 2
Fore
SplineSet
461.275390625 215 m 0xe0
 442.608398438 155 424.110351562 106.33203125 405.77734375 68.9990234375 c 0
 387.444335938 31.666015625 369.27734375 4.9990234375 351.27734375 -11.0009765625 c 0
 333.27734375 -27.0009765625 314.27734375 -35.0009765625 294.27734375 -35.0009765625 c 0
 272.944335938 -35.0009765625 253.27734375 -31.0009765625 235.27734375 -23.0009765625 c 0
 217.27734375 -15.0009765625 202.110351562 -4.333984375 189.77734375 8.9990234375 c 0
 177.444335938 22.33203125 166.611328125 36.83203125 157.278320312 52.4990234375 c 0
 147.9453125 68.166015625 140.778320312 83.8330078125 135.778320312 99.5 c 0
 130.778320312 115.166992188 127.278320312 129.166992188 125.278320312 141.5 c 0
 123.278320312 153.833007812 122.611328125 163.666015625 123.278320312 170.999023438 c 0xe0
 123.278320312 176.999023438 124.611328125 184.166015625 127.278320312 192.499023438 c 0
 129.9453125 200.83203125 132.9453125 208.665039062 136.278320312 215.998046875 c 0
 139.611328125 223.331054688 144.778320312 229.831054688 151.778320312 235.498046875 c 0
 158.778320312 241.165039062 167.278320312 244.665039062 177.278320312 245.998046875 c 0
 180.833984375 246.64453125 184.145507812 246.967773438 187.211914062 246.967773438 c 0
 196.791992188 246.967773438 203.98046875 243.811523438 208.778320312 237.499023438 c 0
 212.927734375 232.0390625 215.001953125 225.649414062 215.001953125 218.329101562 c 0
 215.001953125 214.4765625 214.427734375 210.3671875 213.278320312 205.999023438 c 0xd0
 213.225585938 205.706054688 210.729492188 191.61328125 210.729492188 176.352539062 c 0
 210.729492188 166.751953125 212.079101562 155.80078125 214.779296875 143.5 c 0
 217.779296875 129.833007812 222.446289062 117.333007812 228.779296875 106 c 0
 235.112304688 94.6669921875 244.9453125 85.1669921875 258.278320312 77.5 c 0
 271.611328125 69.8330078125 287.611328125 66 306.278320312 66 c 0
 328.278320312 66 354.611328125 124 385.278320312 240 c 0
 388.611328125 254.666992188 398.778320312 301.666992188 415.778320312 381 c 0
 432.778320312 460.333007812 451.278320312 541.333007812 471.278320312 624 c 1
 430.079101562 625.200195312 391.51953125 625.799804688 355.600585938 625.799804688 c 0
 331.653320312 625.799804688 308.87890625 625.533203125 287.278320312 625 c 0
 271.9453125 625 260.9453125 628.666992188 254.278320312 636 c 0
 247.611328125 643.333007812 245.611328125 652.666015625 248.278320312 663.999023438 c 0
 250.278320312 675.999023438 256.4453125 686.33203125 266.778320312 694.999023438 c 0
 277.111328125 703.666015625 289.944335938 707.999023438 305.27734375 707.999023438 c 0
 357.502929688 709.5546875 405.9140625 710.333007812 450.508789062 710.333007812 c 0
 539.690429688 710.333007812 613.612304688 707.221679688 672.27734375 701 c 0
 694.97265625 698.73046875 706.3203125 688.493164062 706.3203125 670.2890625 c 0
 706.3203125 667.102539062 705.97265625 663.672851562 705.27734375 659.999023438 c 0
 703.944335938 653.999023438 701.77734375 648.166015625 698.77734375 642.499023438 c 0
 695.77734375 636.83203125 691.944335938 631.33203125 687.27734375 625.999023438 c 0
 682.610351562 620.666015625 676.943359375 616.499023438 670.276367188 613.499023438 c 0
 663.609375 610.499023438 656.609375 609.999023438 649.276367188 611.999023438 c 0
 628.609375 615.33203125 595.942382812 618.33203125 551.275390625 620.999023438 c 1
 546.608398438 601.666015625 540.44140625 572.333007812 532.774414062 533 c 0
 525.107421875 493.666992188 518.107421875 457.833984375 511.774414062 425.500976562 c 0
 505.44140625 393.16796875 497.608398438 357.16796875 488.275390625 317.500976562 c 0
 478.942382812 277.833984375 469.942382812 243.666992188 461.275390625 215 c 0xe0
EndSplineSet
Validated: 524289
EndChar

StartChar: K
Encoding: 75 75 54
Width: 640
GlyphClass: 2
Flags: W
HStem: -21.0752 21G<131.602 138.256 495.446 505.955> 694.072 20G<304.69 311.431>
LayerCount: 2
Fore
SplineSet
195.1328125 24 m 0
 190.465820312 10 181.6328125 -1.1689453125 168.6328125 -9.501953125 c 0
 156.596679688 -17.2177734375 144.416992188 -21.0751953125 132.094726562 -21.0751953125 c 0
 131.108398438 -21.0751953125 130.12109375 -21.05078125 129.1328125 -21.0009765625 c 0
 116.465820312 -21.0009765625 107.298828125 -16.5009765625 101.631835938 -7.5009765625 c 0
 98.5244140625 -2.5654296875 96.970703125 3.4228515625 96.970703125 10.462890625 c 0
 96.970703125 16.2607421875 98.0244140625 22.7734375 100.131835938 29.9990234375 c 0
 108.798828125 59.33203125 122.465820312 115.499023438 141.1328125 198.499023438 c 0
 159.799804688 281.499023438 177.799804688 366.999023438 195.1328125 454.999023438 c 0
 203.799804688 497.666015625 209.799804688 526.499023438 213.1328125 541.499023438 c 0
 216.465820312 556.499023438 221.965820312 578.166015625 229.6328125 606.499023438 c 0
 237.299804688 634.83203125 242.1328125 652.665039062 244.1328125 659.998046875 c 0
 248.799804688 677.998046875 256.466796875 691.498046875 267.133789062 700.498046875 c 0
 277.80078125 709.498046875 289.467773438 713.998046875 302.134765625 713.998046875 c 0
 303.171875 714.047851562 304.190429688 714.072265625 305.189453125 714.072265625 c 0
 317.671875 714.072265625 327.153320312 710.21484375 333.634765625 702.499023438 c 0
 338.088867188 697.196289062 340.31640625 689.935546875 340.31640625 680.717773438 c 0
 340.31640625 675.451171875 339.588867188 669.544921875 338.134765625 662.999023438 c 0
 334.801757812 646.999023438 326.134765625 611.999023438 312.134765625 557.999023438 c 0
 298.134765625 503.999023438 286.801757812 459.33203125 278.134765625 423.999023438 c 1
 306.134765625 447.33203125 348.134765625 482.665039062 404.134765625 529.998046875 c 0
 460.134765625 577.331054688 504.467773438 614.831054688 537.134765625 642.498046875 c 0
 569.801757812 670.165039062 590.801757812 687.33203125 600.134765625 693.999023438 c 0
 610.801757812 702.666015625 620.46875 708.499023438 629.135742188 711.499023438 c 0
 637.802734375 714.499023438 644.969726562 715.166015625 650.63671875 713.499023438 c 0
 656.303710938 711.83203125 661.13671875 708.33203125 665.13671875 702.999023438 c 0
 668.677734375 697.490234375 670.448242188 691.576171875 670.448242188 685.254882812 c 0
 670.448242188 670.155273438 660.344726562 652.736328125 640.13671875 632.999023438 c 0
 628.13671875 620.999023438 586.969726562 584.499023438 516.63671875 523.499023438 c 0
 446.303710938 462.499023438 384.13671875 409.33203125 330.13671875 363.999023438 c 1
 345.469726562 339.999023438 372.469726562 302.499023438 411.13671875 251.499023438 c 0
 449.803710938 200.499023438 483.303710938 155.666015625 511.63671875 116.999023438 c 0
 529.409179688 92.744140625 556.241210938 56.1259765625 556.241210938 40.0419921875 c 0
 556.241210938 28.9599609375 553.706054688 18.9462890625 548.635742188 9.9990234375 c 0
 542.96875 -0.0009765625 535.801757812 -7.66796875 527.134765625 -13.0009765625 c 0
 518.129882812 -18.5986328125 509.791015625 -21.3974609375 502.118164062 -21.3974609375 c 0
 488.774414062 -21.3974609375 477.446289062 -12.931640625 468.133789062 4 c 0
 463.466796875 12.6669921875 446.633789062 35.6669921875 417.633789062 73 c 0
 388.633789062 110.333007812 357.30078125 151.5 323.633789062 196.5 c 0
 289.966796875 241.5 265.799804688 277.333007812 251.1328125 304 c 1
 246.1328125 284 l 2
 244.1328125 272.666992188 227.1328125 186 195.1328125 24 c 0
EndSplineSet
Validated: 524289
EndChar

StartChar: L
Encoding: 76 76 55
Width: 640
GlyphClass: 2
Flags: HMW
HStem: -9.00488 81.0029
LayerCount: 2
Fore
SplineSet
512.734375 10 m 0
 468.734375 1.3330078125 403.407226562 -5.0048828125 316.740234375 -9.0048828125 c 0
 230.073242188 -13.0048828125 166.740234375 -15.0048828125 126.740234375 -15.0048828125 c 0
 114.073242188 -15.0048828125 104.90625 -10.5048828125 99.2392578125 -1.5048828125 c 0
 96.1318359375 3.4306640625 94.578125 9.4189453125 94.578125 16.458984375 c 0
 94.578125 22.2568359375 95.6318359375 28.76953125 97.7392578125 35.9951171875 c 0
 99.072265625 41.328125 111.405273438 79.4951171875 134.73828125 150.495117188 c 0
 158.071289062 221.495117188 179.071289062 289.995117188 197.73828125 355.995117188 c 0
 206.405273438 385.995117188 219.405273438 440.995117188 236.73828125 520.995117188 c 0
 254.071289062 600.995117188 263.404296875 644.328125 264.737304688 650.995117188 c 0
 269.404296875 668.995117188 277.237304688 682.662109375 288.237304688 691.995117188 c 0
 299.237304688 701.328125 310.737304688 705.995117188 322.737304688 705.995117188 c 0
 323.774414062 706.044921875 324.793945312 706.069335938 325.794921875 706.069335938 c 0
 338.299804688 706.069335938 347.947265625 702.211914062 354.737304688 694.49609375 c 0
 359.21875 689.404296875 361.458984375 682.506835938 361.458984375 673.8046875 c 0
 361.458984375 668.265625 360.551757812 661.997070312 358.736328125 654.99609375 c 0
 354.069335938 635.663085938 347.40234375 609.330078125 338.735351562 575.997070312 c 0
 330.068359375 542.6640625 319.068359375 500.6640625 305.735351562 449.997070312 c 0
 292.40234375 399.330078125 281.069335938 355.330078125 271.736328125 317.997070312 c 0
 264.403320312 289.997070312 252.5703125 249.330078125 236.237304688 195.997070312 c 0
 219.904296875 142.6640625 208.404296875 101.331054688 201.737304688 71.998046875 c 1
 206.260742188 71.9404296875 210.853515625 71.9111328125 215.514648438 71.9111328125 c 0
 264.448242188 71.9111328125 321.022460938 75.107421875 385.237304688 81.498046875 c 0
 455.5703125 88.498046875 503.0703125 95.3310546875 527.737304688 101.998046875 c 0
 535.737304688 103.998046875 542.404296875 103.665039062 547.737304688 100.998046875 c 0
 553.0703125 98.3310546875 556.903320312 94.3310546875 559.236328125 88.998046875 c 0
 561.569335938 83.6650390625 562.90234375 77.83203125 563.235351562 71.4990234375 c 0
 563.568359375 65.166015625 563.401367188 59.3330078125 562.734375 54 c 0
 560.067382812 42 555.067382812 32.3330078125 547.734375 25 c 0
 540.401367188 17.6669921875 528.734375 12.6669921875 512.734375 10 c 0
EndSplineSet
Validated: 524289
EndChar

StartChar: M
Encoding: 77 77 56
Width: 640
GlyphClass: 2
Flags: HMW
HStem: -9.99414 21G<104.119 110.119>
VStem: 274.116 97.001 491.116 89.001
LayerCount: 2
Fore
SplineSet
164.118164062 59 m 0
 160.118164062 37.6669921875 152.119140625 20.8388671875 140.119140625 8.505859375 c 0
 128.119140625 -3.8271484375 116.119140625 -9.994140625 104.119140625 -9.994140625 c 0
 89.302734375 -9.544921875 81.89453125 1.7900390625 81.89453125 24.009765625 c 0
 81.89453125 34.783203125 83.6357421875 48.115234375 87.119140625 64.0068359375 c 0
 89.119140625 72.0068359375 93.2861328125 85.673828125 99.619140625 105.006835938 c 0
 105.952148438 124.33984375 114.119140625 149.672851562 124.119140625 181.005859375 c 0
 134.119140625 212.338867188 142.786132812 239.671875 150.119140625 263.004882812 c 0
 152.119140625 271.004882812 155.786132812 283.337890625 161.119140625 300.004882812 c 0
 175.786132812 349.337890625 187.619140625 387.837890625 196.619140625 415.504882812 c 0
 205.619140625 443.171875 216.786132812 477.671875 230.119140625 519.004882812 c 0
 243.452148438 560.337890625 254.78515625 592.837890625 264.118164062 616.504882812 c 0
 273.451171875 640.171875 281.451171875 656.671875 288.118164062 666.004882812 c 0
 297.451171875 680.004882812 309.451171875 690.171875 324.118164062 696.504882812 c 0
 336.234375 701.736328125 347.213867188 704.352539062 357.0546875 704.352539062 c 0
 359.126953125 704.352539062 361.147460938 704.236328125 363.118164062 704.004882812 c 0
 391.118164062 704.004882812 405.118164062 691.671875 405.118164062 667.004882812 c 0
 405.178710938 664.336914062 405.208984375 661.510742188 405.208984375 658.526367188 c 0
 405.208984375 628.69140625 402.178710938 583.017578125 396.118164062 521.504882812 c 0
 389.451171875 453.837890625 380.784179688 376.670898438 370.1171875 290.00390625 c 0
 359.450195312 203.336914062 352.450195312 146.00390625 349.1171875 118.00390625 c 1
 377.1171875 212.00390625 403.784179688 296.670898438 429.1171875 372.00390625 c 0
 447.1171875 427.336914062 467.450195312 483.00390625 490.1171875 539.00390625 c 0
 512.784179688 595.00390625 531.1171875 637.670898438 545.1171875 667.00390625 c 0
 549.784179688 677.00390625 556.784179688 685.170898438 566.1171875 691.50390625 c 0
 575.450195312 697.836914062 584.450195312 701.669921875 593.1171875 703.002929688 c 0
 601.784179688 704.3359375 610.1171875 704.668945312 618.1171875 704.001953125 c 2
 622.1171875 704.001953125 l 1
 634.6171875 704.001953125 l 2
 637.6171875 704.001953125 641.784179688 703.168945312 647.1171875 701.501953125 c 0
 652.450195312 699.834960938 656.6171875 697.66796875 659.6171875 695.000976562 c 0
 662.6171875 692.333984375 665.1171875 688.166992188 667.1171875 682.5 c 0
 669.1171875 676.833007812 669.784179688 670 669.1171875 662 c 0
 667.1171875 642 651.784179688 544.333007812 623.1171875 369 c 0
 594.450195312 193.666992188 580.1171875 94.6669921875 580.1171875 72 c 0
 579.450195312 32 566.783203125 6.6669921875 542.116210938 -4 c 0
 536.021484375 -6.4375 530.309570312 -7.6572265625 524.98046875 -7.6572265625 c 0
 518.65234375 -7.6572265625 512.864257812 -5.9375 507.616210938 -2.5 c 0
 497.94921875 3.8330078125 492.44921875 17.666015625 491.116210938 38.9990234375 c 0
 491.017578125 40.6533203125 490.967773438 42.513671875 490.967773438 44.580078125 c 0
 490.967773438 98.29296875 524.350585938 291.099609375 591.115234375 623 c 1
 551.115234375 526.333007812 519.448242188 438.333007812 496.115234375 359 c 0
 472.782226562 283 448.44921875 210.833007812 423.116210938 142.5 c 0
 397.783203125 74.1669921875 380.450195312 32.333984375 371.1171875 17.0009765625 c 0
 360.450195312 1.0009765625 341.1171875 -6.9990234375 313.1171875 -6.9990234375 c 0
 300.450195312 -7.666015625 290.783203125 -5.666015625 284.116210938 -0.9990234375 c 0
 277.44921875 3.66796875 274.116210938 10.3349609375 274.116210938 19.001953125 c 0
 274.116210938 51.001953125 278.783203125 124.501953125 288.116210938 239.501953125 c 0
 297.44921875 354.501953125 307.116210938 464.668945312 317.116210938 570.001953125 c 1
 294.616210938 498.001953125 l 2
 286.283203125 471.334960938 279.283203125 448.16796875 273.616210938 428.500976562 c 0
 267.94921875 408.833984375 259.44921875 379.666992188 248.116210938 341 c 0
 236.783203125 302.333007812 228.116210938 273 222.116210938 253 c 0
 214.116210938 225 205.44921875 196.166992188 196.116210938 166.5 c 0
 186.783203125 136.833007812 179.450195312 113.5 174.1171875 96.5 c 0
 168.784179688 79.5 165.451171875 67 164.118164062 59 c 0
EndSplineSet
Validated: 524289
EndChar

StartChar: N
Encoding: 78 78 57
Width: 640
GlyphClass: 2
Flags: W
HStem: -12.0664 21G<122.325 128.606>
LayerCount: 2
Fore
SplineSet
475.356445312 -14 m 0
 463.356445312 -14.6669921875 454.182617188 -12.5029296875 447.849609375 -7.5029296875 c 0
 441.516601562 -2.5029296875 437.68359375 4.330078125 436.350585938 12.9970703125 c 0
 433.68359375 26.330078125 425.516601562 55.6630859375 411.849609375 100.99609375 c 0
 398.182617188 146.329101562 384.182617188 193.49609375 369.849609375 242.49609375 c 0
 355.516601562 291.49609375 341.18359375 346.329101562 326.850585938 406.99609375 c 0
 312.517578125 467.663085938 303.350585938 519.330078125 299.350585938 561.997070312 c 1
 286.017578125 489.330078125 271.684570312 421.663085938 256.3515625 358.99609375 c 0
 241.018554688 296.329101562 224.8515625 232.49609375 207.8515625 167.49609375 c 0
 190.8515625 102.49609375 181.018554688 62.99609375 178.3515625 48.99609375 c 0
 174.3515625 27.6630859375 166.8515625 11.99609375 155.8515625 1.99609375 c 0
 145.5390625 -7.37890625 134.495117188 -12.06640625 122.717773438 -12.06640625 c 0
 121.932617188 -12.06640625 121.143554688 -12.0458984375 120.3515625 -12.00390625 c 0
 107.684570312 -12.00390625 100.3515625 -6.3369140625 98.3515625 4.99609375 c 0
 97.751953125 8.396484375 97.451171875 12.2763671875 97.451171875 16.63671875 c 0
 97.451171875 26.8095703125 99.0849609375 39.5966796875 102.3515625 54.99609375 c 0
 105.018554688 68.3291015625 117.685546875 119.99609375 140.352539062 209.99609375 c 0
 163.01953125 299.99609375 182.686523438 378.663085938 199.353515625 445.99609375 c 0
 216.020507812 513.329101562 230.353515625 577.99609375 242.353515625 639.99609375 c 0
 244.353515625 653.329101562 248.353515625 664.662109375 254.353515625 673.995117188 c 0
 260.353515625 683.328125 267.353515625 690.161132812 275.353515625 694.494140625 c 0
 283.353515625 698.827148438 291.353515625 701.827148438 299.353515625 703.494140625 c 0
 307.353515625 705.161132812 315.020507812 705.328125 322.353515625 703.995117188 c 0
 349.686523438 703.995117188 364.01953125 691.662109375 365.352539062 666.995117188 c 0
 368.01953125 622.995117188 385.186523438 541.995117188 416.853515625 423.995117188 c 0
 448.520507812 305.995117188 476.353515625 210.662109375 500.353515625 137.995117188 c 1
 517.020507812 200.662109375 538.6875 291.829101562 565.354492188 411.49609375 c 0
 592.021484375 531.163085938 607.354492188 609.99609375 611.354492188 647.99609375 c 0
 613.354492188 663.99609375 619.521484375 677.49609375 629.854492188 688.49609375 c 0
 640.1875 699.49609375 651.354492188 704.99609375 663.354492188 704.99609375 c 0
 670.021484375 704.99609375 675.688476562 704.163085938 680.35546875 702.49609375 c 0
 685.022460938 700.829101562 688.522460938 698.829101562 690.85546875 696.49609375 c 0
 693.188476562 694.163085938 694.688476562 690.330078125 695.35546875 684.997070312 c 0
 696.022460938 679.6640625 696.189453125 674.831054688 695.856445312 670.498046875 c 0
 695.5234375 666.165039062 695.0234375 659.33203125 694.356445312 649.999023438 c 0
 693.689453125 639.33203125 682.356445312 585.83203125 660.356445312 489.499023438 c 0
 638.356445312 393.166015625 614.189453125 293.333007812 587.856445312 190 c 0
 561.5234375 86.6669921875 543.0234375 27 532.356445312 11 c 0
 522.356445312 -5.6669921875 503.356445312 -14 475.356445312 -14 c 0
EndSplineSet
Validated: 524289
EndChar

StartChar: O
Encoding: 79 79 58
Width: 640
GlyphClass: 2
Flags: HMW
HStem: -24 83.998<293.034 294.038> 636.997 81.001<482.036 493.702>
LayerCount: 2
Fore
SplineSet
281.372070312 -24 m 0
 243.372070312 -23.3330078125 212.03515625 -10.8349609375 187.368164062 13.498046875 c 0
 162.701171875 37.8310546875 146.868164062 70.498046875 139.868164062 111.498046875 c 0
 137.2890625 126.603515625 136 142.228515625 136 158.375 c 0
 136 186.053710938 139.7890625 215.260742188 147.368164062 245.998046875 c 0
 148.03515625 249.331054688 149.368164062 254.998046875 151.368164062 262.998046875 c 0
 158.03515625 292.998046875 163.702148438 316.998046875 168.369140625 334.998046875 c 0
 173.036132812 352.998046875 179.869140625 376.998046875 188.869140625 406.998046875 c 0
 197.869140625 436.998046875 208.036132812 465.498046875 219.369140625 492.498046875 c 0
 230.702148438 519.498046875 243.369140625 544.998046875 257.369140625 568.998046875 c 0
 283.369140625 612.331054688 319.202148438 647.998046875 364.869140625 675.998046875 c 0
 410.536132812 703.998046875 457.703125 717.998046875 506.370117188 717.998046875 c 0
 531.037109375 717.998046875 553.704101562 712.831054688 574.37109375 702.498046875 c 0
 595.038085938 692.165039062 612.205078125 677.33203125 625.872070312 657.999023438 c 0
 639.5390625 638.666015625 648.872070312 613.999023438 653.872070312 583.999023438 c 0
 656.291015625 569.483398438 657.500976562 554.108398438 657.500976562 537.875976562 c 0
 657.500976562 520.560546875 656.125 502.267578125 653.372070312 482.999023438 c 0
 648.0390625 449.666015625 641.206054688 413.999023438 632.873046875 375.999023438 c 0
 624.540039062 337.999023438 614.540039062 299.499023438 602.873046875 260.499023438 c 0
 591.206054688 221.499023438 580.0390625 190.666015625 569.372070312 167.999023438 c 0
 554.705078125 136.666015625 538.705078125 109.666015625 521.372070312 86.9990234375 c 0
 504.0390625 64.33203125 486.5390625 45.83203125 468.872070312 31.4990234375 c 0
 451.205078125 17.166015625 432.038085938 5.8330078125 411.37109375 -2.5 c 0
 390.704101562 -10.8330078125 370.204101562 -16.5 349.87109375 -19.5 c 0
 329.538085938 -22.5 306.705078125 -24 281.372070312 -24 c 0
300.368164062 59.998046875 m 0
 317.03515625 59.998046875 333.702148438 62.1650390625 350.369140625 66.498046875 c 0
 367.036132812 70.8310546875 383.369140625 77.8310546875 399.369140625 87.498046875 c 0
 415.369140625 97.1650390625 430.869140625 109.998046875 445.869140625 125.998046875 c 0
 460.869140625 141.998046875 473.702148438 160.665039062 484.369140625 181.998046875 c 0
 488.369140625 190.665039062 495.536132812 210.665039062 505.869140625 241.998046875 c 0
 516.202148438 273.331054688 527.03515625 310.6640625 538.368164062 353.997070312 c 0
 549.701171875 397.330078125 558.701171875 439.997070312 565.368164062 481.997070312 c 0
 567.30078125 494.750976562 568.266601562 506.903320312 568.266601562 518.453125 c 0
 568.266601562 546.748046875 562.467773438 571.4296875 550.869140625 592.497070312 c 0
 534.536132812 622.1640625 510.036132812 636.997070312 477.369140625 636.997070312 c 0
 444.036132812 636.997070312 413.036132812 623.830078125 384.369140625 597.497070312 c 0
 355.702148438 571.1640625 330.702148438 534.331054688 309.369140625 486.998046875 c 0
 280.702148438 423.665039062 258.03515625 348.665039062 241.368164062 261.998046875 c 0
 237.368164062 240.665039062 234.53515625 220.998046875 232.868164062 202.998046875 c 0
 231.826171875 191.749023438 231.305664062 180.499023438 231.305664062 169.25 c 0
 231.305664062 162.499023438 231.493164062 155.749023438 231.868164062 148.998046875 c 0
 232.868164062 130.998046875 235.701171875 115.498046875 240.368164062 102.498046875 c 0
 245.03515625 89.498046875 252.53515625 79.1650390625 262.868164062 71.498046875 c 0
 273.201171875 63.8310546875 285.701171875 59.998046875 300.368164062 59.998046875 c 0
EndSplineSet
Validated: 524289
EndChar

StartChar: P
Encoding: 80 80 59
Width: 640
GlyphClass: 2
Flags: HMW
HStem: 230.001 82<352.198 361.198 352.198 377.864> 630.003 80.998<448.53 499.197>
LayerCount: 2
Fore
SplineSet
213.198242188 24 m 0
 210.53125 10 202.694335938 -0.830078125 189.694335938 -8.4970703125 c 0
 177.734375 -15.55078125 165.633789062 -19.0771484375 153.392578125 -19.0771484375 c 0
 152.327148438 -19.0771484375 151.26171875 -19.05078125 150.194335938 -18.9970703125 c 0
 136.861328125 -18.9970703125 127.028320312 -14.830078125 120.6953125 -6.4970703125 c 0
 117.2578125 -1.9736328125 115.538085938 3.6796875 115.538085938 10.462890625 c 0
 115.538085938 16.17578125 116.7578125 22.6884765625 119.1953125 30.0029296875 c 0
 121.862304688 40.669921875 125.862304688 56.5029296875 131.1953125 77.5029296875 c 0
 136.528320312 98.5029296875 142.528320312 124.502929688 149.1953125 155.502929688 c 0
 155.862304688 186.502929688 162.1953125 216.502929688 168.1953125 245.502929688 c 0
 174.1953125 274.502929688 181.528320312 310.002929688 190.1953125 352.002929688 c 0
 198.862304688 394.002929688 206.1953125 429.002929688 212.1953125 457.002929688 c 0
 221.528320312 500.3359375 235.1953125 557.668945312 253.1953125 629.001953125 c 1
 249.1953125 634.001953125 l 2
 246.528320312 642.001953125 246.861328125 650.168945312 250.194335938 658.501953125 c 0
 253.52734375 666.834960938 258.52734375 674.334960938 265.194335938 681.001953125 c 0
 271.861328125 687.668945312 278.528320312 691.668945312 285.1953125 693.001953125 c 0
 309.1953125 698.334960938 343.1953125 702.66796875 387.1953125 706.000976562 c 0
 431.1953125 709.333984375 461.528320312 711.000976562 478.1953125 711.000976562 c 0
 520.1953125 711.000976562 555.862304688 703.000976562 585.1953125 687.000976562 c 0
 614.528320312 671.000976562 635.1953125 646.833984375 647.1953125 614.500976562 c 0
 653.9453125 596.313476562 657.3203125 576.174804688 657.3203125 554.0859375 c 0
 657.3203125 536.904296875 655.278320312 518.54296875 651.1953125 499.000976562 c 0
 642.528320312 461.66796875 628.6953125 426.500976562 609.6953125 393.500976562 c 0
 590.6953125 360.500976562 568.6953125 332.000976562 543.6953125 308.000976562 c 0
 518.6953125 284.000976562 490.362304688 265.000976562 458.6953125 251.000976562 c 0
 427.028320312 237.000976562 394.528320312 230.000976562 361.1953125 230.000976562 c 0
 312.528320312 230.000976562 275.1953125 233.66796875 249.1953125 241.000976562 c 1
 243.862304688 213.000976562 239.029296875 186.16796875 234.696289062 160.500976562 c 0
 230.36328125 134.833984375 226.030273438 108.166992188 221.697265625 80.5 c 0
 217.364257812 52.8330078125 214.53125 34 213.198242188 24 c 0
459.194335938 630.002929688 m 0
 437.861328125 630.002929688 398.194335938 627.333984375 340.194335938 622.000976562 c 1
 336.861328125 608.66796875 330.528320312 584.000976562 321.1953125 548.000976562 c 0
 311.862304688 512.000976562 302.529296875 475.000976562 293.196289062 437.000976562 c 0
 283.86328125 399.000976562 275.196289062 362.000976562 267.196289062 326.000976562 c 1
 288.446289062 316.625976562 314.67578125 311.938476562 345.885742188 311.938476562 c 0
 347.966796875 311.938476562 350.0703125 311.958984375 352.196289062 312.000976562 c 0
 370.196289062 312.000976562 386.86328125 313.333984375 402.196289062 316.000976562 c 0
 417.529296875 318.66796875 431.196289062 322.334960938 443.196289062 327.001953125 c 0
 455.196289062 331.668945312 466.529296875 337.8359375 477.196289062 345.502929688 c 0
 487.86328125 353.169921875 496.86328125 360.836914062 504.196289062 368.50390625 c 0
 511.529296875 376.170898438 518.362304688 385.170898438 524.6953125 395.50390625 c 0
 531.028320312 405.836914062 536.1953125 415.169921875 540.1953125 423.502929688 c 0
 544.1953125 431.8359375 548.028320312 441.502929688 551.6953125 452.502929688 c 0
 555.362304688 463.502929688 558.1953125 472.502929688 560.1953125 479.502929688 c 0
 562.1953125 486.502929688 564.528320312 495.002929688 567.1953125 505.002929688 c 0
 569.595703125 516.203125 570.795898438 526.743164062 570.795898438 536.623046875 c 0
 570.795898438 543.209960938 570.26171875 549.502929688 569.1953125 555.502929688 c 0
 566.528320312 570.502929688 561.361328125 582.502929688 553.694335938 591.502929688 c 0
 546.02734375 600.502929688 536.694335938 608.002929688 525.694335938 614.002929688 c 0
 514.694335938 620.002929688 503.52734375 624.169921875 492.194335938 626.502929688 c 0
 480.861328125 628.8359375 469.861328125 630.002929688 459.194335938 630.002929688 c 0
EndSplineSet
Validated: 524289
EndChar

StartChar: Q
Encoding: 81 81 60
Width: 640
GlyphClass: 2
Flags: HMW
HStem: -23.9961 84.002<288.707 332.707> 637.005 80.9971<480.375 492.04>
LayerCount: 2
Fore
SplineSet
481.708007812 -206 m 0
 474.154296875 -210.443359375 466.749023438 -212.6640625 459.491210938 -212.6640625 c 0
 455.859375 -212.6640625 452.264648438 -212.107421875 448.70703125 -210.99609375 c 0
 438.040039062 -207.663085938 429.70703125 -199.99609375 423.70703125 -187.99609375 c 0
 417.70703125 -175.99609375 408.20703125 -153.663085938 395.20703125 -120.99609375 c 0
 382.20703125 -88.3291015625 369.70703125 -54.99609375 357.70703125 -20.99609375 c 1
 344.374023438 -23.1298828125 329.975585938 -24.1962890625 314.510742188 -24.1962890625 c 0
 310.642578125 -24.1962890625 306.708007812 -24.1298828125 302.70703125 -23.99609375 c 0
 274.70703125 -23.99609375 250.374023438 -19.3291015625 229.70703125 -9.99609375 c 0
 209.040039062 -0.6630859375 192.040039062 12.3369140625 178.70703125 29.00390625 c 0
 165.374023438 45.6708984375 155.20703125 65.50390625 148.20703125 88.50390625 c 0
 140.797851562 112.848632812 137.180664062 138.78515625 137.180664062 166.670898438 c 0
 137.180664062 191.768554688 140.022460938 218.212890625 145.70703125 246.002929688 c 0
 171.040039062 375.3359375 207.70703125 481.668945312 255.70703125 565.001953125 c 0
 281.70703125 609.001953125 317.540039062 645.501953125 363.20703125 674.501953125 c 0
 408.874023438 703.501953125 456.041015625 718.001953125 504.708007812 718.001953125 c 0
 530.041015625 718.001953125 552.708007812 713.334960938 572.708007812 704.001953125 c 0
 592.708007812 694.668945312 609.541015625 681.001953125 623.208007812 663.001953125 c 0
 636.875 645.001953125 646.208007812 620.668945312 651.208007812 590.001953125 c 0
 653.626953125 575.163085938 654.836914062 559.154296875 654.836914062 541.974609375 c 0
 654.836914062 523.6484375 653.4609375 503.991210938 650.708007812 483.000976562 c 0
 644.708007812 437.000976562 633.375 380.833984375 616.708007812 314.500976562 c 0
 600.041015625 248.16796875 584.374023438 197.66796875 569.70703125 163.000976562 c 0
 539.70703125 91.0009765625 497.374023438 39.66796875 442.70703125 9.0009765625 c 1
 450.70703125 -10.33203125 459.374023438 -29.9990234375 468.70703125 -49.9990234375 c 0
 478.040039062 -69.9990234375 487.040039062 -88.666015625 495.70703125 -105.999023438 c 0
 504.374023438 -123.33203125 510.374023438 -134.999023438 513.70703125 -140.999023438 c 0
 516.374023438 -148.33203125 516.041015625 -156.33203125 512.708007812 -164.999023438 c 0
 509.375 -173.666015625 504.708007812 -181.833007812 498.708007812 -189.5 c 0
 492.708007812 -197.166992188 487.041015625 -202.666992188 481.708007812 -206 c 0
239.70703125 262.004882812 m 0
 235.666992188 238.974609375 233.646484375 217.353515625 233.646484375 197.139648438 c 0
 233.646484375 184 234.5 171.456054688 236.20703125 159.505859375 c 0
 240.540039062 129.172851562 250.040039062 105.005859375 264.70703125 87.005859375 c 0
 279.374023438 69.005859375 298.70703125 60.005859375 322.70703125 60.005859375 c 2
 332.70703125 60.005859375 l 1
 324.70703125 90.005859375 319.374023438 113.338867188 316.70703125 130.005859375 c 0
 315.928710938 136.561523438 315.540039062 142.802734375 315.540039062 148.729492188 c 0
 315.540039062 178.358398438 325.26171875 200.1171875 344.706054688 214.005859375 c 0
 351.373046875 218.672851562 358.040039062 221.505859375 364.70703125 222.505859375 c 0
 371.374023438 223.505859375 377.20703125 221.505859375 382.20703125 216.505859375 c 0
 387.20703125 211.505859375 390.040039062 204.005859375 390.70703125 194.005859375 c 0
 394.040039062 160.672851562 402.040039062 124.33984375 414.70703125 85.0068359375 c 1
 446.040039062 104.33984375 470.70703125 135.33984375 488.70703125 178.006835938 c 0
 492.70703125 188.006835938 499.20703125 208.173828125 508.20703125 238.506835938 c 0
 517.20703125 268.83984375 527.374023438 306.672851562 538.70703125 352.005859375 c 0
 550.040039062 397.338867188 558.373046875 440.671875 563.706054688 482.004882812 c 0
 565.342773438 494.9140625 566.16015625 507.103515625 566.16015625 518.575195312 c 0
 566.16015625 549.1640625 560.342773438 574.641601562 548.706054688 595.004882812 c 0
 532.706054688 623.004882812 508.373046875 637.004882812 475.706054688 637.004882812 c 0
 441.706054688 637.004882812 410.206054688 624.004882812 381.206054688 598.004882812 c 0
 352.206054688 572.004882812 327.373046875 535.671875 306.706054688 489.004882812 c 0
 275.373046875 419.671875 253.040039062 344.004882812 239.70703125 262.004882812 c 0
EndSplineSet
Validated: 524289
EndChar

